<svg xmlns="http://www.w3.org/2000/svg" viewBox="0 0 1600 1000" font-family="Helvetica Neue, Arial, sans-serif">
  <defs>
    <filter id="sh" x="-40%" y="-40%" width="180%" height="180%"><feDropShadow dx="0" dy="18" stdDeviation="26" flood-color="#16140f" flood-opacity="0.16"/></filter>
  </defs>
  <rect width="1600" height="1000" fill="#efe9dd"/>
  <circle cx="1280" cy="760" r="300" fill="#e7e0d2"/>
  <text x="120" y="180" fill="#E1130E" font-size="56" font-weight="800" letter-spacing="-1">H&amp;M</text>
  <text x="120" y="250" fill="#16140f" font-size="40" font-weight="700" letter-spacing="-1">Mobile shopping</text>
  <text x="122" y="300" fill="#8a847c" font-size="22">Discovery · Browsing · Checkout</text>

  <!-- two overlapping phones -->
  <g transform="translate(840,180) rotate(-6)" filter="url(#sh)">
    <rect width="300" height="600" rx="42" fill="#15130f"/>
    <rect x="12" y="14" width="276" height="572" rx="30" fill="#fff"/>
    <text x="30" y="58" fill="#E1130E" font-size="24" font-weight="800">H&amp;M</text>
    <rect x="30" y="78" width="112" height="150" rx="10" fill="#f3efe8"/><rect x="42" y="90" width="88" height="98" rx="6" fill="#e3ddd0"/>
    <rect x="156" y="78" width="112" height="150" rx="10" fill="#f3efe8"/><rect x="168" y="90" width="88" height="98" rx="6" fill="#e6e0d3"/>
    <rect x="30" y="244" width="112" height="150" rx="10" fill="#f3efe8"/><rect x="42" y="256" width="88" height="98" rx="6" fill="#e1dacc"/>
    <rect x="156" y="244" width="112" height="150" rx="10" fill="#f3efe8"/><rect x="168" y="256" width="88" height="98" rx="6" fill="#e4ded0"/>
    <rect x="30" y="520" width="238" height="46" rx="23" fill="#16140f"/>
  </g>
  <g transform="translate(1160,260) rotate(8)" filter="url(#sh)">
    <rect width="280" height="560" rx="40" fill="#15130f"/>
    <rect x="12" y="14" width="256" height="532" rx="28" fill="#fff"/>
    <rect x="28" y="40" width="224" height="150" rx="12" fill="#ece6d9"/>
    <text x="28" y="226" fill="#16140f" font-size="16" font-weight="700">Select size</text>
    <rect x="28" y="240" width="48" height="40" rx="10" fill="#f0ece5"/><rect x="84" y="240" width="48" height="40" rx="10" fill="#16140f"/><rect x="140" y="240" width="48" height="40" rx="10" fill="#f0ece5"/>
    <rect x="28" y="300" width="224" height="70" rx="12" fill="#fbeceb"/>
    <rect x="28" y="470" width="224" height="46" rx="23" fill="#16140f"/>
  </g>
</svg>
