<svg width="719" height="569" viewBox="0 0 719 569" fill="none" xmlns="http://www.w3.org/2000/svg">
<rect width="719" height="569" fill="#F7F7F8"/>
<path d="M298.22 183.069C308.955 183.069 319.691 183.069 330.426 183.069C333.716 183.069 336.955 183.457 340.235 183.457C344.658 183.457 348.997 183.472 353.396 182.983C356.393 182.65 359.571 182.719 362.59 182.681C363.22 182.673 363.833 182.579 364.455 182.487C364.761 182.442 365.51 182.059 365.371 182.336C365.119 182.84 361.895 183.122 361.577 183.188C359.099 183.699 356.644 184.277 354.183 184.858C348.244 186.261 342.272 186.26 336.236 186.863C330.161 187.471 324.042 187.726 317.934 187.726C313.302 187.726 308.711 188.114 304.083 188.114C302.218 188.114 300.365 187.92 298.521 187.92C298.002 187.92 296.54 187.522 297.638 188.07C298.552 188.528 298.802 189.363 298.802 190.442C298.802 190.927 298.802 191.412 298.802 191.897C298.802 192.627 302.028 192.119 302.477 192.08C306.795 191.712 311.073 190.866 315.379 190.377C318.145 190.064 320.996 190.248 323.776 190.248C326.239 190.248 328.76 190.093 331.203 190.442C334.136 190.861 336.97 191.197 339.933 191.218C344.673 191.251 349.415 191.412 354.161 191.412C355.638 191.412 357.115 191.412 358.591 191.412C359.286 191.412 361.096 191.629 361.728 191.207C361.959 191.053 361.24 190.938 360.984 190.83C360.54 190.641 360.094 190.455 359.68 190.205C359.181 189.903 358.506 189.415 358.214 188.89C357.852 188.237 358.35 186.649 357.578 186.572C355.146 186.329 352.571 186.561 350.13 186.561C349.138 186.561 348.147 186.561 347.155 186.561C346.14 186.561 348.867 186.791 348.987 186.799C352.797 187.032 356.64 187.144 360.456 187.144C361.473 187.144 362.49 187.144 363.506 187.144C364.218 187.144 361.132 188.32 360.844 188.394C355.617 189.733 349.938 189.278 344.59 189.278C336.46 189.278 328.385 189.831 320.327 190.916C318.951 191.101 317.497 191.367 316.112 191.412C315.554 191.43 314 191.32 314.452 191.649C314.814 191.912 315.565 191.84 315.983 191.908C316.778 192.037 317.566 192.217 318.354 192.382C320.085 192.745 321.886 192.885 323.636 193.158C327.491 193.759 331.431 193.56 335.309 193.837C339.835 194.16 344.434 193.952 348.955 193.751C351.58 193.634 354.162 193.131 356.77 192.813C358.425 192.611 360.208 192.188 361.857 192.188" stroke="#F3F3B1" stroke-width="6.56716" stroke-linecap="round"/>
<path d="M443.241 281.832C461.293 281.832 479.351 282.213 497.4 282.031C504.995 281.955 512.511 280.309 520.099 279.885C523.527 279.694 526.933 279.642 530.365 279.642C531.201 279.642 531.825 279.862 532.643 279.996C533.383 280.117 535.533 280.074 534.856 280.394C533.804 280.893 532.128 280.606 531.006 280.682C523.924 281.161 516.955 282.031 509.834 282.031C502.518 282.031 495.203 282.031 487.887 282.031C483.502 282.031 478.851 281.592 474.502 282.231C472.88 282.469 471.323 282.597 469.723 282.983C467.571 283.502 465.359 284.064 463.153 284.266C460.56 284.504 457.922 284.179 455.343 284.465C453.131 284.711 451.052 285.018 448.816 285.018C447.603 285.018 446.362 284.87 445.232 285.372C444.703 285.607 444.207 285.578 443.639 285.616C441.99 285.725 446.845 286.425 448.462 286.766C452.488 287.615 456.527 287.911 460.631 288.093C469.02 288.467 477.366 288.602 485.763 288.602C499.333 288.602 512.843 284.413 526.449 286.113C528.848 286.413 531.39 286.499 533.739 287.02C534.087 287.098 533.662 287.277 533.551 287.308C532.351 287.645 531.027 287.736 529.801 287.905C524.163 288.681 518.443 288.57 512.765 288.702C503.961 288.906 495.286 290.394 486.482 290.394C480.15 290.394 473.731 290.022 467.445 290.892C461.112 291.769 454.697 291.191 448.33 291.191C447.072 291.191 443.3 291.191 444.558 291.191C447.341 291.191 450.323 290.377 453.064 289.985C458.827 289.162 464.656 287.794 470.487 287.629C478.31 287.407 486.17 287.705 493.993 287.817C499.457 287.895 504.91 289.029 510.276 289.974C512.888 290.434 515.527 290.778 518.108 291.39C523.271 292.613 528.633 292.385 533.838 292.385C535.55 292.385 535.288 289.562 535.52 288.337C535.851 286.584 536.396 284.941 536.825 283.226" stroke="#F3F3B1" stroke-width="6.56716" stroke-linecap="round"/>
<path d="M515.316 377.742C516.795 377.742 518.381 378.412 519.837 378.664C524.608 379.49 529.339 380.016 534.162 380.509C541.585 381.268 548.961 381.431 556.423 381.431C568.428 381.431 580.49 381.787 592.474 381.021C605.368 380.197 618.362 380.611 631.281 380.611C634.525 380.611 638.006 380.428 641.12 381.386C641.94 381.638 643.091 381.431 643.944 381.431C644.426 381.431 647.929 381.27 646.084 381.545C636.621 382.955 627.028 383.044 617.48 382.855C602.667 382.561 587.879 382.618 573.128 384.198C565.522 385.013 557.723 385.341 550.069 385.109C546.146 384.99 542.263 384.805 538.341 385.075C534.659 385.329 531.094 386.145 527.386 386.145C526.015 386.145 523.966 386.564 522.695 385.895C521.769 385.408 520.973 384.8 519.917 384.551C518.563 384.233 517.327 383.801 516.25 382.877C515.704 382.409 515.521 381.909 515.521 383.173C515.521 384.308 515.497 385.294 515.84 386.373C516.156 387.368 516.379 388.497 516.956 389.379C517.749 390.592 520.186 390.843 521.465 390.86C533.956 391.02 546.429 391.27 558.928 391.27C564.152 391.27 569.366 391.375 574.551 390.609C579.799 389.834 585.058 389.346 590.288 388.4C593.734 387.776 597.078 387.375 600.582 387.375C602.624 387.375 605.654 387.929 607.551 387.17" stroke="#F3F3B1" stroke-width="6.56716" stroke-linecap="round"/>
<path d="M580.29 387.58C589.558 387.58 598.775 387.41 608.029 387.182C614.352 387.026 620.696 386.555 627.022 386.555C629.968 386.555 632.913 386.555 635.859 386.555C638.067 386.555 640.218 387.025 642.406 387.182C643.265 387.243 644.068 387.375 644.934 387.375C645.624 387.375 645.202 387.375 644.752 387.375C642.137 387.375 639.52 387.337 636.906 387.375C632.83 387.434 628.803 388.407 624.768 388.856C620.563 389.323 616.47 389.867 612.231 390.051C608.577 390.21 604.973 391.145 601.299 391.258C598.035 391.359 594.787 391.475 591.518 391.475C586.738 391.475 581.981 391.68 577.216 391.68C574.55 391.68 571.988 390.783 569.427 390.142C567.539 389.67 565.336 389.293 563.688 388.195" stroke="#F3F3B1" stroke-width="6.56716" stroke-linecap="round"/>
<path d="M72.619 159.789C71.2205 159.929 69.3494 172.828 68.9168 174.711C67.5898 180.488 67.8756 187.799 68.6883 193.613C69.9319 202.511 67.2894 216.125 81.4859 218.669C94.9196 221.075 109.073 220.275 121.616 215.5C124.617 214.357 128.989 213.228 129.34 210.12C130.193 202.553 129.386 194.619 129.386 187.018C129.386 180.567 129.094 174.597 127.557 168.263C126.708 164.765 126.51 158.797 123.215 156.141C118.04 151.969 106.934 153.156 100.225 153.156C90.8259 153.156 79.8322 155.886 71.7963 159.125" stroke="black" stroke-width="1.31343" stroke-linecap="round"/>
<path d="M86.3881 194.076C88.615 196.55 90.2205 199.427 92.8475 201.577C93.8969 202.435 94.9959 203.587 96.1397 204.286C97.5281 205.134 96.8765 202.3 97.0982 201.16C98.3159 194.898 100.33 188.311 102.891 182.49C104.1 179.742 105.762 177.295 107.371 174.78C108.264 173.385 108.644 171.777 109.642 170.446" stroke="black" stroke-width="1.31343" stroke-linecap="round"/>
<path d="M72.619 258.296C71.2205 258.437 69.3494 271.336 68.9168 273.219C67.5898 278.996 67.8756 286.306 68.6883 292.121C69.9319 301.018 67.2894 314.633 81.4859 317.176C94.9196 319.583 109.073 318.782 121.616 314.007C124.617 312.865 128.989 311.735 129.34 308.628C130.193 301.061 129.386 293.126 129.386 285.525C129.386 279.075 129.094 273.104 127.557 266.771C126.708 263.273 126.51 257.304 123.215 254.648C118.04 250.476 106.934 251.664 100.225 251.664C90.8259 251.664 79.8322 254.394 71.7963 257.633" stroke="black" stroke-width="1.31343" stroke-linecap="round"/>
<path d="M86.3881 292.583C88.615 295.057 90.2205 297.935 92.8475 300.084C93.8969 300.943 94.9959 302.094 96.1397 302.793C97.5281 303.642 96.8765 300.808 97.0982 299.668C98.3159 293.405 100.33 286.819 102.891 280.998C104.1 278.249 105.762 275.802 107.371 273.288C108.264 271.892 108.644 270.284 109.642 268.954" stroke="black" stroke-width="1.31343" stroke-linecap="round"/>
<path d="M72.619 356.803C71.2205 356.944 69.3494 369.843 68.9168 371.726C67.5898 377.503 67.8756 384.813 68.6883 390.628C69.9319 399.526 67.2894 413.14 81.4859 415.684C94.9196 418.09 109.073 417.29 121.616 412.515C124.617 411.372 128.989 410.243 129.34 407.135C130.193 399.568 129.386 391.634 129.386 384.033C129.386 377.582 129.094 371.612 127.557 365.278C126.708 361.78 126.51 355.811 123.215 353.156C118.04 348.984 106.934 350.171 100.225 350.171C90.8259 350.171 79.8322 352.901 71.7963 356.14" stroke="black" stroke-width="1.31343" stroke-linecap="round"/>
<path d="M86.3881 391.09C88.615 393.565 90.2205 396.442 92.8475 398.592C93.8969 399.45 94.9959 400.602 96.1397 401.301C97.5281 402.149 96.8765 399.315 97.0982 398.175C98.3159 391.913 100.33 385.326 102.891 379.505C104.1 376.757 105.762 374.31 107.371 371.795C108.264 370.4 108.644 368.792 109.642 367.461" stroke="black" stroke-width="1.31343" stroke-linecap="round"/>
<path d="M168.315 194.075L164.28 180.205H167.369L170.101 191.658L172.875 180.205H175.649L178.465 191.658L181.176 180.205H184.139L180.104 194.075H176.847L174.913 186.509L174.262 183.231H174.22L173.568 186.509L171.656 194.075H168.315ZM186.08 194.075V178.965H188.959V185.353C189.296 184.681 189.758 184.184 190.346 183.861C190.935 183.525 191.6 183.357 192.343 183.357C193.071 183.357 193.716 183.497 194.276 183.777C194.85 184.058 195.299 184.485 195.621 185.059C195.957 185.62 196.125 186.327 196.125 187.182V194.075H193.246V188.022C193.246 187.112 193.071 186.488 192.721 186.152C192.371 185.802 191.922 185.627 191.376 185.627C190.97 185.627 190.577 185.725 190.199 185.921C189.835 186.103 189.534 186.411 189.296 186.846C189.071 187.266 188.959 187.826 188.959 188.527V194.075H186.08ZM205.081 187.371C205.081 186.768 204.906 186.299 204.555 185.963C204.219 185.627 203.771 185.459 203.21 185.459C202.692 185.459 202.237 185.592 201.844 185.858C201.452 186.124 201.165 186.565 200.983 187.182L198.524 186.425C198.762 185.501 199.281 184.758 200.079 184.198C200.892 183.637 201.978 183.357 203.336 183.357C204.261 183.357 205.067 183.504 205.753 183.798C206.44 184.079 206.972 184.506 207.35 185.08C207.743 185.655 207.939 186.376 207.939 187.245V191.511C207.939 192.043 208.191 192.309 208.695 192.309C208.933 192.309 209.158 192.274 209.368 192.204L209.2 193.991C208.835 194.173 208.38 194.264 207.834 194.264C207.343 194.264 206.902 194.18 206.51 194.012C206.117 193.843 205.809 193.591 205.585 193.255C205.361 192.905 205.249 192.471 205.249 191.952V191.868L205.753 191.784C205.669 192.316 205.438 192.772 205.06 193.15C204.681 193.514 204.219 193.794 203.673 193.991C203.14 194.187 202.587 194.285 202.013 194.285C201.298 194.285 200.682 194.18 200.163 193.97C199.645 193.745 199.246 193.423 198.965 193.003C198.685 192.583 198.545 192.064 198.545 191.448C198.545 190.663 198.797 190.026 199.302 189.535C199.806 189.031 200.527 188.688 201.466 188.506L205.417 187.707L205.396 189.493L202.874 189.998C202.398 190.096 202.034 190.229 201.781 190.397C201.543 190.551 201.424 190.81 201.424 191.175C201.424 191.525 201.55 191.791 201.802 191.973C202.069 192.155 202.384 192.246 202.748 192.246C203.042 192.246 203.329 192.211 203.61 192.141C203.89 192.071 204.142 191.959 204.366 191.805C204.59 191.651 204.765 191.441 204.892 191.175C205.018 190.908 205.081 190.586 205.081 190.208V187.371ZM214.468 180.352V190.649C214.468 191.154 214.594 191.525 214.846 191.763C215.112 191.987 215.47 192.099 215.918 192.099C216.268 192.099 216.576 192.05 216.842 191.952C217.109 191.84 217.347 191.693 217.557 191.511L218.019 193.423C217.683 193.689 217.263 193.9 216.758 194.054C216.254 194.208 215.722 194.285 215.161 194.285C214.461 194.285 213.837 194.18 213.291 193.97C212.759 193.759 212.338 193.423 212.03 192.961C211.736 192.499 211.589 191.882 211.589 191.112V181.15L214.468 180.352ZM217.83 183.567V185.711H209.655V183.567H217.83ZM230.173 194.285C229.305 194.285 228.527 194.068 227.841 193.633C227.168 193.199 226.636 192.576 226.244 191.763C225.865 190.95 225.676 189.977 225.676 188.842C225.676 187.679 225.879 186.691 226.286 185.879C226.692 185.052 227.238 184.429 227.925 184.008C228.625 183.574 229.41 183.357 230.278 183.357C231.203 183.357 231.967 183.623 232.569 184.156C233.171 184.688 233.564 185.374 233.746 186.215L233.473 186.551V178.965H236.352V194.075H233.767L233.578 190.88L233.935 191.048C233.837 191.707 233.613 192.281 233.263 192.772C232.912 193.248 232.471 193.619 231.939 193.886C231.406 194.152 230.818 194.285 230.173 194.285ZM231.014 192.078C231.518 192.078 231.953 191.952 232.317 191.7C232.681 191.434 232.961 191.048 233.157 190.544C233.368 190.04 233.473 189.437 233.473 188.737C233.473 188.064 233.375 187.497 233.178 187.035C232.982 186.558 232.702 186.194 232.338 185.942C231.974 185.69 231.546 185.564 231.056 185.564C230.271 185.564 229.655 185.844 229.207 186.404C228.772 186.951 228.555 187.756 228.555 188.821C228.555 189.886 228.772 190.698 229.207 191.259C229.641 191.805 230.243 192.078 231.014 192.078ZM240.827 182.054C240.224 182.054 239.776 181.928 239.482 181.676C239.188 181.41 239.041 181.024 239.041 180.52C239.041 180.002 239.188 179.616 239.482 179.364C239.776 179.098 240.224 178.965 240.827 178.965C241.429 178.965 241.878 179.098 242.172 179.364C242.466 179.616 242.613 180.002 242.613 180.52C242.613 181.024 242.466 181.41 242.172 181.676C241.878 181.928 241.429 182.054 240.827 182.054ZM242.256 183.567V194.075H239.377V183.567H242.256ZM249.28 194.285C248.411 194.285 247.634 194.068 246.947 193.633C246.275 193.199 245.742 192.576 245.35 191.763C244.972 190.95 244.782 189.977 244.782 188.842C244.782 187.679 244.986 186.691 245.392 185.879C245.798 185.052 246.345 184.429 247.031 184.008C247.732 183.574 248.516 183.357 249.385 183.357C250.309 183.357 251.073 183.623 251.675 184.156C252.278 184.688 252.67 185.374 252.852 186.215L252.579 186.551V178.965H255.458V194.075H252.873L252.684 190.88L253.041 191.048C252.943 191.707 252.719 192.281 252.369 192.772C252.019 193.248 251.577 193.619 251.045 193.886C250.513 194.152 249.924 194.285 249.28 194.285ZM250.12 192.078C250.625 192.078 251.059 191.952 251.423 191.7C251.787 191.434 252.068 191.048 252.264 190.544C252.474 190.04 252.579 189.437 252.579 188.737C252.579 188.064 252.481 187.497 252.285 187.035C252.089 186.558 251.808 186.194 251.444 185.942C251.08 185.69 250.653 185.564 250.162 185.564C249.378 185.564 248.761 185.844 248.313 186.404C247.879 186.951 247.662 187.756 247.662 188.821C247.662 189.886 247.879 190.698 248.313 191.259C248.747 191.805 249.35 192.078 250.12 192.078ZM278.01 183.567H281.078L277.716 194.075H274.395L272.105 186.93L269.898 194.075H266.578L263.215 183.567H266.284L268.385 191.616L270.718 183.567H273.576L275.929 191.616L278.01 183.567ZM287.452 194.285C286.345 194.285 285.379 194.068 284.552 193.633C283.739 193.199 283.109 192.576 282.661 191.763C282.212 190.95 281.988 189.97 281.988 188.821C281.988 187.672 282.212 186.691 282.661 185.879C283.109 185.066 283.732 184.443 284.531 184.008C285.343 183.574 286.268 183.357 287.305 183.357C288.37 183.357 289.273 183.574 290.016 184.008C290.758 184.429 291.326 185.01 291.718 185.753C292.11 186.481 292.306 187.315 292.306 188.254C292.306 188.534 292.299 188.8 292.285 189.052C292.271 189.304 292.25 189.528 292.222 189.725H283.837V187.728H290.961L289.574 188.232C289.574 187.35 289.371 186.67 288.965 186.194C288.573 185.718 288.012 185.48 287.284 185.48C286.751 185.48 286.289 185.606 285.897 185.858C285.519 186.11 285.231 186.488 285.035 186.993C284.839 187.483 284.741 188.106 284.741 188.863C284.741 189.605 284.846 190.222 285.056 190.712C285.28 191.189 285.589 191.546 285.981 191.784C286.387 192.022 286.871 192.141 287.431 192.141C288.047 192.141 288.545 192.022 288.923 191.784C289.301 191.546 289.596 191.217 289.806 190.796L292.096 191.679C291.872 192.225 291.529 192.695 291.067 193.087C290.618 193.479 290.079 193.78 289.448 193.991C288.832 194.187 288.166 194.285 287.452 194.285ZM304.007 178.965V190.838C304.007 191.329 304.091 191.672 304.259 191.868C304.427 192.064 304.707 192.162 305.1 192.162C305.338 192.162 305.534 192.148 305.688 192.12C305.842 192.078 306.038 192.022 306.276 191.952L306.024 193.843C305.786 193.984 305.485 194.089 305.121 194.159C304.77 194.243 304.42 194.285 304.07 194.285C303.047 194.285 302.298 194.04 301.821 193.549C301.359 193.045 301.128 192.246 301.128 191.154V178.965H304.007ZM312.756 194.285C311.649 194.285 310.683 194.068 309.856 193.633C309.043 193.199 308.413 192.576 307.965 191.763C307.516 190.95 307.292 189.97 307.292 188.821C307.292 187.672 307.516 186.691 307.965 185.879C308.413 185.066 309.036 184.443 309.835 184.008C310.648 183.574 311.572 183.357 312.609 183.357C313.674 183.357 314.577 183.574 315.32 184.008C316.062 184.429 316.63 185.01 317.022 185.753C317.414 186.481 317.611 187.315 317.611 188.254C317.611 188.534 317.604 188.8 317.59 189.052C317.576 189.304 317.554 189.528 317.526 189.725H309.142V187.728H316.266L314.879 188.232C314.879 187.35 314.675 186.67 314.269 186.194C313.877 185.718 313.316 185.48 312.588 185.48C312.056 185.48 311.593 185.606 311.201 185.858C310.823 186.11 310.536 186.488 310.339 186.993C310.143 187.483 310.045 188.106 310.045 188.863C310.045 189.605 310.15 190.222 310.36 190.712C310.585 191.189 310.893 191.546 311.285 191.784C311.691 192.022 312.175 192.141 312.735 192.141C313.352 192.141 313.849 192.022 314.227 191.784C314.605 191.546 314.9 191.217 315.11 190.796L317.4 191.679C317.176 192.225 316.833 192.695 316.371 193.087C315.922 193.479 315.383 193.78 314.753 193.991C314.136 194.187 313.471 194.285 312.756 194.285ZM326.04 187.371C326.04 186.768 325.865 186.299 325.514 185.963C325.178 185.627 324.73 185.459 324.169 185.459C323.651 185.459 323.196 185.592 322.803 185.858C322.411 186.124 322.124 186.565 321.942 187.182L319.483 186.425C319.721 185.501 320.24 184.758 321.038 184.198C321.851 183.637 322.936 183.357 324.295 183.357C325.22 183.357 326.026 183.504 326.712 183.798C327.399 184.079 327.931 184.506 328.309 185.08C328.702 185.655 328.898 186.376 328.898 187.245V191.511C328.898 192.043 329.15 192.309 329.654 192.309C329.892 192.309 330.117 192.274 330.327 192.204L330.159 193.991C329.794 194.173 329.339 194.264 328.793 194.264C328.302 194.264 327.861 194.18 327.469 194.012C327.076 193.843 326.768 193.591 326.544 193.255C326.32 192.905 326.208 192.471 326.208 191.952V191.868L326.712 191.784C326.628 192.316 326.397 192.772 326.019 193.15C325.64 193.514 325.178 193.794 324.632 193.991C324.099 194.187 323.546 194.285 322.971 194.285C322.257 194.285 321.641 194.18 321.122 193.97C320.604 193.745 320.205 193.423 319.924 193.003C319.644 192.583 319.504 192.064 319.504 191.448C319.504 190.663 319.756 190.026 320.261 189.535C320.765 189.031 321.486 188.688 322.425 188.506L326.376 187.707L326.355 189.493L323.833 189.998C323.357 190.096 322.993 190.229 322.74 190.397C322.502 190.551 322.383 190.81 322.383 191.175C322.383 191.525 322.509 191.791 322.761 191.973C323.028 192.155 323.343 192.246 323.707 192.246C324.001 192.246 324.288 192.211 324.569 192.141C324.849 192.071 325.101 191.959 325.325 191.805C325.549 191.651 325.724 191.441 325.851 191.175C325.977 190.908 326.04 190.586 326.04 190.208V187.371ZM332.118 194.075V183.567H334.618L334.807 185.627C335.088 184.898 335.494 184.338 336.026 183.945C336.573 183.553 337.252 183.357 338.065 183.357C338.303 183.357 338.52 183.378 338.716 183.42C338.912 183.462 339.074 183.518 339.2 183.588L338.863 186.005C338.723 185.949 338.548 185.907 338.338 185.879C338.142 185.851 337.883 185.837 337.56 185.837C337.14 185.837 336.734 185.942 336.342 186.152C335.949 186.348 335.627 186.656 335.375 187.077C335.123 187.483 334.997 188.001 334.997 188.632V194.075H332.118ZM340.983 194.075V183.567H343.568L343.736 186.719L343.379 186.383C343.547 185.697 343.813 185.129 344.178 184.681C344.542 184.233 344.983 183.903 345.501 183.693C346.034 183.469 346.615 183.357 347.246 183.357C347.974 183.357 348.619 183.497 349.179 183.777C349.753 184.058 350.202 184.485 350.524 185.059C350.86 185.62 351.028 186.327 351.028 187.182V194.075H348.149V188.001C348.149 187.105 347.974 186.488 347.624 186.152C347.274 185.802 346.818 185.627 346.258 185.627C345.866 185.627 345.48 185.725 345.102 185.921C344.738 186.103 344.437 186.404 344.199 186.824C343.974 187.245 343.862 187.805 343.862 188.506V194.075H340.983ZM357.942 179.995C358.937 179.995 359.819 180.142 360.59 180.436C361.36 180.73 361.963 181.164 362.397 181.739C362.831 182.299 363.049 182.993 363.049 183.819C363.049 184.66 362.866 185.353 362.502 185.9C362.152 186.432 361.676 186.839 361.073 187.119C360.471 187.385 359.805 187.56 359.077 187.644L358.93 189.619H356.303L356.324 186.446C357.262 186.334 357.991 186.187 358.509 186.005C359.042 185.809 359.413 185.564 359.623 185.269C359.847 184.975 359.959 184.625 359.959 184.219C359.959 183.826 359.875 183.497 359.707 183.231C359.553 182.965 359.315 182.762 358.993 182.622C358.67 182.481 358.257 182.411 357.753 182.411C357.024 182.411 356.443 182.622 356.009 183.042C355.574 183.448 355.308 184.03 355.21 184.786L352.478 183.735C352.646 183.007 352.954 182.362 353.403 181.802C353.851 181.228 354.446 180.786 355.189 180.478C355.946 180.156 356.863 179.995 357.942 179.995ZM357.648 191.027C358.194 191.027 358.628 191.175 358.951 191.469C359.273 191.763 359.434 192.155 359.434 192.646C359.434 193.15 359.273 193.549 358.951 193.843C358.628 194.124 358.194 194.264 357.648 194.264C357.101 194.264 356.667 194.124 356.345 193.843C356.023 193.549 355.861 193.15 355.861 192.646C355.861 192.155 356.023 191.763 356.345 191.469C356.667 191.175 357.101 191.027 357.648 191.027Z" fill="black"/>
<path d="M168.315 292.582L164.28 278.712H167.369L170.101 290.165L172.875 278.712H175.649L178.465 290.165L181.176 278.712H184.139L180.104 292.582H176.847L174.913 285.017L174.262 281.738H174.22L173.568 285.017L171.656 292.582H168.315ZM186.08 292.582V277.472H188.959V283.861C189.296 283.188 189.758 282.691 190.346 282.369C190.935 282.033 191.6 281.864 192.343 281.864C193.071 281.864 193.716 282.005 194.276 282.285C194.85 282.565 195.299 282.992 195.621 283.567C195.957 284.127 196.125 284.835 196.125 285.689V292.582H193.246V286.53C193.246 285.619 193.071 284.996 192.721 284.659C192.371 284.309 191.922 284.134 191.376 284.134C190.97 284.134 190.577 284.232 190.199 284.428C189.835 284.61 189.534 284.919 189.296 285.353C189.071 285.773 188.959 286.334 188.959 287.034V292.582H186.08ZM205.081 285.878C205.081 285.276 204.906 284.807 204.555 284.47C204.219 284.134 203.771 283.966 203.21 283.966C202.692 283.966 202.237 284.099 201.844 284.365C201.452 284.631 201.165 285.073 200.983 285.689L198.524 284.933C198.762 284.008 199.281 283.265 200.079 282.705C200.892 282.145 201.978 281.864 203.336 281.864C204.261 281.864 205.067 282.012 205.753 282.306C206.44 282.586 206.972 283.013 207.35 283.588C207.743 284.162 207.939 284.884 207.939 285.752V290.018C207.939 290.551 208.191 290.817 208.695 290.817C208.933 290.817 209.158 290.782 209.368 290.712L209.2 292.498C208.835 292.68 208.38 292.771 207.834 292.771C207.343 292.771 206.902 292.687 206.51 292.519C206.117 292.351 205.809 292.099 205.585 291.763C205.361 291.412 205.249 290.978 205.249 290.46V290.376L205.753 290.291C205.669 290.824 205.438 291.279 205.06 291.657C204.681 292.022 204.219 292.302 203.673 292.498C203.14 292.694 202.587 292.792 202.013 292.792C201.298 292.792 200.682 292.687 200.163 292.477C199.645 292.253 199.246 291.931 198.965 291.51C198.685 291.09 198.545 290.572 198.545 289.955C198.545 289.171 198.797 288.533 199.302 288.043C199.806 287.539 200.527 287.195 201.466 287.013L205.417 286.215L205.396 288.001L202.874 288.505C202.398 288.603 202.034 288.736 201.781 288.904C201.543 289.059 201.424 289.318 201.424 289.682C201.424 290.032 201.55 290.298 201.802 290.481C202.069 290.663 202.384 290.754 202.748 290.754C203.042 290.754 203.329 290.719 203.61 290.649C203.89 290.579 204.142 290.467 204.366 290.312C204.59 290.158 204.765 289.948 204.892 289.682C205.018 289.416 205.081 289.094 205.081 288.715V285.878ZM214.468 278.859V289.157C214.468 289.661 214.594 290.032 214.846 290.27C215.112 290.495 215.47 290.607 215.918 290.607C216.268 290.607 216.576 290.558 216.842 290.46C217.109 290.348 217.347 290.2 217.557 290.018L218.019 291.931C217.683 292.197 217.263 292.407 216.758 292.561C216.254 292.715 215.722 292.792 215.161 292.792C214.461 292.792 213.837 292.687 213.291 292.477C212.759 292.267 212.338 291.931 212.03 291.468C211.736 291.006 211.589 290.39 211.589 289.619V279.658L214.468 278.859ZM217.83 282.075V284.218H209.655V282.075H217.83ZM232.191 285.878C232.191 285.276 232.016 284.807 231.665 284.47C231.329 284.134 230.881 283.966 230.32 283.966C229.802 283.966 229.347 284.099 228.954 284.365C228.562 284.631 228.275 285.073 228.093 285.689L225.634 284.933C225.872 284.008 226.391 283.265 227.189 282.705C228.002 282.145 229.088 281.864 230.447 281.864C231.371 281.864 232.177 282.012 232.863 282.306C233.55 282.586 234.082 283.013 234.46 283.588C234.853 284.162 235.049 284.884 235.049 285.752V290.018C235.049 290.551 235.301 290.817 235.805 290.817C236.044 290.817 236.268 290.782 236.478 290.712L236.31 292.498C235.945 292.68 235.49 292.771 234.944 292.771C234.453 292.771 234.012 292.687 233.62 292.519C233.228 292.351 232.919 292.099 232.695 291.763C232.471 291.412 232.359 290.978 232.359 290.46V290.376L232.863 290.291C232.779 290.824 232.548 291.279 232.17 291.657C231.791 292.022 231.329 292.302 230.783 292.498C230.25 292.694 229.697 292.792 229.123 292.792C228.408 292.792 227.792 292.687 227.273 292.477C226.755 292.253 226.356 291.931 226.075 291.51C225.795 291.09 225.655 290.572 225.655 289.955C225.655 289.171 225.907 288.533 226.412 288.043C226.916 287.539 227.638 287.195 228.576 287.013L232.527 286.215L232.506 288.001L229.984 288.505C229.508 288.603 229.144 288.736 228.891 288.904C228.653 289.059 228.534 289.318 228.534 289.682C228.534 290.032 228.66 290.298 228.912 290.481C229.179 290.663 229.494 290.754 229.858 290.754C230.152 290.754 230.44 290.719 230.72 290.649C231 290.579 231.252 290.467 231.476 290.312C231.7 290.158 231.876 289.948 232.002 289.682C232.128 289.416 232.191 289.094 232.191 288.715V285.878ZM242.472 292.792C241.407 292.792 240.433 292.603 239.551 292.225C238.682 291.847 237.974 291.314 237.428 290.628L239.088 288.947C239.425 289.451 239.873 289.864 240.433 290.186C240.994 290.509 241.659 290.67 242.43 290.67C242.976 290.67 243.41 290.593 243.733 290.439C244.069 290.27 244.237 290.011 244.237 289.661C244.237 289.437 244.16 289.248 244.006 289.094C243.852 288.925 243.543 288.792 243.081 288.694L241.232 288.316C240.013 288.064 239.144 287.686 238.626 287.181C238.122 286.663 237.869 285.997 237.869 285.185C237.869 284.61 238.038 284.071 238.374 283.567C238.724 283.062 239.242 282.656 239.929 282.348C240.615 282.026 241.47 281.864 242.493 281.864C243.543 281.864 244.454 282.033 245.225 282.369C246.009 282.691 246.626 283.174 247.074 283.819L245.351 285.5C245.043 285.01 244.636 284.638 244.132 284.386C243.642 284.12 243.123 283.987 242.577 283.987C242.184 283.987 241.848 284.029 241.568 284.113C241.288 284.197 241.078 284.316 240.938 284.47C240.797 284.61 240.727 284.793 240.727 285.017C240.727 285.241 240.826 285.437 241.022 285.605C241.218 285.759 241.575 285.892 242.093 286.004L244.237 286.446C245.274 286.656 246.016 287.013 246.465 287.517C246.913 288.008 247.137 288.603 247.137 289.304C247.137 289.976 246.955 290.579 246.591 291.111C246.24 291.629 245.715 292.043 245.014 292.351C244.328 292.645 243.48 292.792 242.472 292.792ZM253.636 292.792C252.571 292.792 251.597 292.603 250.715 292.225C249.846 291.847 249.139 291.314 248.592 290.628L250.252 288.947C250.589 289.451 251.037 289.864 251.597 290.186C252.158 290.509 252.823 290.67 253.594 290.67C254.14 290.67 254.575 290.593 254.897 290.439C255.233 290.27 255.401 290.011 255.401 289.661C255.401 289.437 255.324 289.248 255.17 289.094C255.016 288.925 254.708 288.792 254.245 288.694L252.396 288.316C251.177 288.064 250.308 287.686 249.79 287.181C249.286 286.663 249.034 285.997 249.034 285.185C249.034 284.61 249.202 284.071 249.538 283.567C249.888 283.062 250.407 282.656 251.093 282.348C251.78 282.026 252.634 281.864 253.657 281.864C254.708 281.864 255.618 282.033 256.389 282.369C257.173 282.691 257.79 283.174 258.238 283.819L256.515 285.5C256.207 285.01 255.8 284.638 255.296 284.386C254.806 284.12 254.287 283.987 253.741 283.987C253.349 283.987 253.012 284.029 252.732 284.113C252.452 284.197 252.242 284.316 252.102 284.47C251.962 284.61 251.892 284.793 251.892 285.017C251.892 285.241 251.99 285.437 252.186 285.605C252.382 285.759 252.739 285.892 253.258 286.004L255.401 286.446C256.438 286.656 257.18 287.013 257.629 287.517C258.077 288.008 258.301 288.603 258.301 289.304C258.301 289.976 258.119 290.579 257.755 291.111C257.405 291.629 256.879 292.043 256.179 292.351C255.492 292.645 254.645 292.792 253.636 292.792ZM264.254 292.792C263.553 292.792 262.923 292.666 262.362 292.414C261.802 292.162 261.354 291.763 261.017 291.216C260.695 290.656 260.534 289.934 260.534 289.052V282.075H263.413V288.358C263.413 289.171 263.581 289.738 263.917 290.06C264.254 290.369 264.737 290.523 265.367 290.523C265.662 290.523 265.949 290.474 266.229 290.376C266.509 290.263 266.754 290.095 266.965 289.871C267.189 289.647 267.364 289.36 267.49 289.01C267.616 288.645 267.679 288.218 267.679 287.728V282.075H270.558V292.582H267.994L267.889 290.754C267.539 291.454 267.056 291.973 266.439 292.309C265.837 292.631 265.108 292.792 264.254 292.792ZM273.588 292.582V282.075H276.173L276.278 283.966C276.628 283.265 277.104 282.74 277.707 282.39C278.323 282.04 279.003 281.864 279.745 281.864C280.502 281.864 281.181 282.04 281.784 282.39C282.4 282.74 282.862 283.258 283.171 283.945C283.395 283.483 283.696 283.097 284.074 282.789C284.452 282.481 284.873 282.25 285.335 282.096C285.797 281.942 286.267 281.864 286.743 281.864C287.43 281.864 288.053 282.005 288.613 282.285C289.188 282.565 289.643 282.985 289.979 283.546C290.316 284.106 290.484 284.821 290.484 285.689V292.582H287.605V286.257C287.605 285.486 287.437 284.94 287.1 284.617C286.764 284.295 286.33 284.134 285.797 284.134C285.377 284.134 284.985 284.239 284.621 284.449C284.27 284.659 283.99 284.975 283.78 285.395C283.584 285.801 283.486 286.313 283.486 286.929V292.582H280.607V286.257C280.607 285.486 280.432 284.94 280.081 284.617C279.745 284.295 279.311 284.134 278.778 284.134C278.414 284.134 278.05 284.232 277.686 284.428C277.335 284.624 277.041 284.933 276.803 285.353C276.579 285.773 276.467 286.327 276.467 287.013V292.582H273.588ZM293.453 296.995V282.075H296.038L296.227 285.416L295.87 285.038C295.996 284.421 296.227 283.875 296.564 283.399C296.914 282.922 297.355 282.551 297.888 282.285C298.42 282.005 299.015 281.864 299.674 281.864C300.528 281.864 301.292 282.082 301.964 282.516C302.637 282.95 303.162 283.574 303.541 284.386C303.933 285.185 304.129 286.159 304.129 287.307C304.129 288.456 303.933 289.444 303.541 290.27C303.148 291.083 302.609 291.706 301.922 292.141C301.25 292.575 300.479 292.792 299.611 292.792C298.686 292.792 297.916 292.533 297.299 292.015C296.697 291.496 296.283 290.845 296.059 290.06L296.332 289.619V296.995H293.453ZM298.77 290.586C299.541 290.586 300.143 290.312 300.577 289.766C301.026 289.206 301.25 288.393 301.25 287.328C301.25 286.264 301.033 285.458 300.598 284.912C300.178 284.351 299.583 284.071 298.812 284.071C298.322 284.071 297.888 284.204 297.509 284.47C297.145 284.723 296.858 285.094 296.648 285.584C296.438 286.06 296.332 286.642 296.332 287.328C296.332 288.001 296.431 288.582 296.627 289.073C296.823 289.563 297.103 289.941 297.467 290.207C297.846 290.46 298.28 290.586 298.77 290.586ZM310.246 278.859V289.157C310.246 289.661 310.372 290.032 310.624 290.27C310.89 290.495 311.248 290.607 311.696 290.607C312.046 290.607 312.354 290.558 312.62 290.46C312.887 290.348 313.125 290.2 313.335 290.018L313.797 291.931C313.461 292.197 313.041 292.407 312.536 292.561C312.032 292.715 311.5 292.792 310.939 292.792C310.239 292.792 309.615 292.687 309.069 292.477C308.537 292.267 308.116 291.931 307.808 291.468C307.514 291.006 307.367 290.39 307.367 289.619V279.658L310.246 278.859ZM313.608 282.075V284.218H305.433V282.075H313.608ZM317.006 280.562C316.404 280.562 315.955 280.435 315.661 280.183C315.367 279.917 315.22 279.532 315.22 279.027C315.22 278.509 315.367 278.124 315.661 277.872C315.955 277.605 316.404 277.472 317.006 277.472C317.608 277.472 318.057 277.605 318.351 277.872C318.645 278.124 318.792 278.509 318.792 279.027C318.792 279.532 318.645 279.917 318.351 280.183C318.057 280.435 317.608 280.562 317.006 280.562ZM318.435 282.075V292.582H315.556V282.075H318.435ZM326.278 281.864C327.343 281.864 328.275 282.082 329.073 282.516C329.886 282.95 330.516 283.574 330.965 284.386C331.427 285.199 331.658 286.18 331.658 287.328C331.658 288.463 331.427 289.444 330.965 290.27C330.516 291.083 329.886 291.706 329.073 292.141C328.275 292.575 327.343 292.792 326.278 292.792C325.228 292.792 324.296 292.575 323.483 292.141C322.671 291.706 322.033 291.083 321.571 290.27C321.123 289.444 320.899 288.463 320.899 287.328C320.899 286.18 321.123 285.199 321.571 284.386C322.033 283.574 322.671 282.95 323.483 282.516C324.296 282.082 325.228 281.864 326.278 281.864ZM326.278 284.008C325.746 284.008 325.291 284.134 324.912 284.386C324.548 284.624 324.268 284.989 324.072 285.479C323.876 285.969 323.778 286.586 323.778 287.328C323.778 288.071 323.876 288.687 324.072 289.178C324.268 289.668 324.548 290.039 324.912 290.291C325.291 290.53 325.746 290.649 326.278 290.649C326.797 290.649 327.238 290.53 327.602 290.291C327.981 290.039 328.268 289.668 328.464 289.178C328.66 288.687 328.758 288.071 328.758 287.328C328.758 286.586 328.66 285.969 328.464 285.479C328.268 284.989 327.981 284.624 327.602 284.386C327.238 284.134 326.797 284.008 326.278 284.008ZM334.067 292.582V282.075H336.652L336.82 285.227L336.463 284.891C336.631 284.204 336.897 283.637 337.261 283.188C337.626 282.74 338.067 282.411 338.585 282.201C339.118 281.977 339.699 281.864 340.33 281.864C341.058 281.864 341.703 282.005 342.263 282.285C342.837 282.565 343.286 282.992 343.608 283.567C343.944 284.127 344.112 284.835 344.112 285.689V292.582H341.233V286.509C341.233 285.612 341.058 284.996 340.708 284.659C340.358 284.309 339.902 284.134 339.342 284.134C338.95 284.134 338.564 284.232 338.186 284.428C337.822 284.61 337.521 284.912 337.282 285.332C337.058 285.752 336.946 286.313 336.946 287.013V292.582H334.067ZM351.281 292.792C350.217 292.792 349.243 292.603 348.36 292.225C347.492 291.847 346.784 291.314 346.238 290.628L347.898 288.947C348.234 289.451 348.683 289.864 349.243 290.186C349.803 290.509 350.469 290.67 351.239 290.67C351.786 290.67 352.22 290.593 352.542 290.439C352.879 290.27 353.047 290.011 353.047 289.661C353.047 289.437 352.97 289.248 352.815 289.094C352.661 288.925 352.353 288.792 351.891 288.694L350.042 288.316C348.823 288.064 347.954 287.686 347.436 287.181C346.931 286.663 346.679 285.997 346.679 285.185C346.679 284.61 346.847 284.071 347.183 283.567C347.534 283.062 348.052 282.656 348.739 282.348C349.425 282.026 350.28 281.864 351.302 281.864C352.353 281.864 353.264 282.033 354.034 282.369C354.819 282.691 355.435 283.174 355.884 283.819L354.16 285.5C353.852 285.01 353.446 284.638 352.942 284.386C352.451 284.12 351.933 283.987 351.386 283.987C350.994 283.987 350.658 284.029 350.378 284.113C350.098 284.197 349.887 284.316 349.747 284.47C349.607 284.61 349.537 284.793 349.537 285.017C349.537 285.241 349.635 285.437 349.831 285.605C350.027 285.759 350.385 285.892 350.903 286.004L353.047 286.446C354.083 286.656 354.826 287.013 355.274 287.517C355.723 288.008 355.947 288.603 355.947 289.304C355.947 289.976 355.765 290.579 355.4 291.111C355.05 291.629 354.525 292.043 353.824 292.351C353.138 292.645 352.29 292.792 351.281 292.792ZM369.436 281.864C370.375 281.864 371.167 282.005 371.811 282.285C372.47 282.551 372.995 282.922 373.387 283.399C373.794 283.861 374.081 284.379 374.249 284.954L371.559 285.92C371.419 285.29 371.181 284.814 370.844 284.491C370.508 284.169 370.053 284.008 369.478 284.008C368.946 284.008 368.491 284.134 368.113 284.386C367.734 284.624 367.447 284.996 367.251 285.5C367.055 285.99 366.957 286.607 366.957 287.349C366.957 288.092 367.055 288.708 367.251 289.199C367.461 289.689 367.755 290.053 368.134 290.291C368.526 290.53 368.981 290.649 369.5 290.649C369.92 290.649 370.277 290.579 370.571 290.439C370.865 290.284 371.104 290.067 371.286 289.787C371.482 289.507 371.615 289.171 371.685 288.778L374.291 289.619C374.137 290.249 373.85 290.803 373.429 291.279C373.009 291.756 372.47 292.127 371.811 292.393C371.153 292.659 370.389 292.792 369.521 292.792C368.442 292.792 367.489 292.575 366.662 292.141C365.836 291.706 365.198 291.083 364.75 290.27C364.302 289.458 364.078 288.477 364.078 287.328C364.078 286.18 364.302 285.199 364.75 284.386C365.198 283.574 365.829 282.95 366.641 282.516C367.454 282.082 368.386 281.864 369.436 281.864ZM382.517 285.878C382.517 285.276 382.342 284.807 381.992 284.47C381.656 284.134 381.207 283.966 380.647 283.966C380.129 283.966 379.673 284.099 379.281 284.365C378.889 284.631 378.601 285.073 378.419 285.689L375.961 284.933C376.199 284.008 376.717 283.265 377.516 282.705C378.328 282.145 379.414 281.864 380.773 281.864C381.698 281.864 382.503 282.012 383.19 282.306C383.876 282.586 384.409 283.013 384.787 283.588C385.179 284.162 385.375 284.884 385.375 285.752V290.018C385.375 290.551 385.627 290.817 386.132 290.817C386.37 290.817 386.594 290.782 386.804 290.712L386.636 292.498C386.272 292.68 385.817 292.771 385.27 292.771C384.78 292.771 384.339 292.687 383.946 292.519C383.554 292.351 383.246 292.099 383.022 291.763C382.797 291.412 382.685 290.978 382.685 290.46V290.376L383.19 290.291C383.106 290.824 382.875 291.279 382.496 291.657C382.118 292.022 381.656 292.302 381.109 292.498C380.577 292.694 380.023 292.792 379.449 292.792C378.735 292.792 378.118 292.687 377.6 292.477C377.081 292.253 376.682 291.931 376.402 291.51C376.122 291.09 375.982 290.572 375.982 289.955C375.982 289.171 376.234 288.533 376.738 288.043C377.243 287.539 377.964 287.195 378.903 287.013L382.854 286.215L382.832 288.001L380.311 288.505C379.834 288.603 379.47 288.736 379.218 288.904C378.98 289.059 378.861 289.318 378.861 289.682C378.861 290.032 378.987 290.298 379.239 290.481C379.505 290.663 379.82 290.754 380.185 290.754C380.479 290.754 380.766 290.719 381.046 290.649C381.326 290.579 381.579 290.467 381.803 290.312C382.027 290.158 382.202 289.948 382.328 289.682C382.454 289.416 382.517 289.094 382.517 288.715V285.878ZM388.595 292.582V282.075H391.18L391.348 285.227L390.991 284.891C391.159 284.204 391.425 283.637 391.789 283.188C392.154 282.74 392.595 282.411 393.113 282.201C393.646 281.977 394.227 281.864 394.858 281.864C395.586 281.864 396.231 282.005 396.791 282.285C397.365 282.565 397.814 282.992 398.136 283.567C398.472 284.127 398.64 284.835 398.64 285.689V292.582H395.761V286.509C395.761 285.612 395.586 284.996 395.236 284.659C394.886 284.309 394.43 284.134 393.87 284.134C393.478 284.134 393.092 284.232 392.714 284.428C392.35 284.61 392.049 284.912 391.81 285.332C391.586 285.752 391.474 286.313 391.474 287.013V292.582H388.595ZM421.133 282.075H424.201L420.839 292.582H417.518L415.228 285.437L413.021 292.582H409.701L406.339 282.075H409.407L411.508 290.123L413.841 282.075H416.699L419.053 290.123L421.133 282.075ZM430.575 292.792C429.468 292.792 428.502 292.575 427.675 292.141C426.862 291.706 426.232 291.083 425.784 290.27C425.335 289.458 425.111 288.477 425.111 287.328C425.111 286.18 425.335 285.199 425.784 284.386C426.232 283.574 426.855 282.95 427.654 282.516C428.467 282.082 429.391 281.864 430.428 281.864C431.493 281.864 432.396 282.082 433.139 282.516C433.881 282.936 434.449 283.518 434.841 284.26C435.233 284.989 435.43 285.822 435.43 286.761C435.43 287.041 435.423 287.307 435.409 287.56C435.395 287.812 435.374 288.036 435.346 288.232H426.961V286.236H434.085L432.698 286.74C432.698 285.857 432.494 285.178 432.088 284.701C431.696 284.225 431.136 283.987 430.407 283.987C429.875 283.987 429.412 284.113 429.02 284.365C428.642 284.617 428.355 284.996 428.158 285.5C427.962 285.99 427.864 286.614 427.864 287.37C427.864 288.113 427.969 288.729 428.179 289.22C428.404 289.696 428.712 290.053 429.104 290.291C429.51 290.53 429.994 290.649 430.554 290.649C431.171 290.649 431.668 290.53 432.046 290.291C432.424 290.053 432.719 289.724 432.929 289.304L435.219 290.186C434.995 290.733 434.652 291.202 434.19 291.594C433.741 291.987 433.202 292.288 432.572 292.498C431.955 292.694 431.29 292.792 430.575 292.792ZM447.766 278.859V289.157C447.766 289.661 447.892 290.032 448.145 290.27C448.411 290.495 448.768 290.607 449.216 290.607C449.567 290.607 449.875 290.558 450.141 290.46C450.407 290.348 450.645 290.2 450.856 290.018L451.318 291.931C450.982 292.197 450.561 292.407 450.057 292.561C449.553 292.715 449.02 292.792 448.46 292.792C447.759 292.792 447.136 292.687 446.589 292.477C446.057 292.267 445.637 291.931 445.329 291.468C445.034 291.006 444.887 290.39 444.887 289.619V279.658L447.766 278.859ZM451.129 282.075V284.218H442.954V282.075H451.129ZM457.868 281.864C458.933 281.864 459.864 282.082 460.663 282.516C461.475 282.95 462.106 283.574 462.554 284.386C463.017 285.199 463.248 286.18 463.248 287.328C463.248 288.463 463.017 289.444 462.554 290.27C462.106 291.083 461.475 291.706 460.663 292.141C459.864 292.575 458.933 292.792 457.868 292.792C456.817 292.792 455.886 292.575 455.073 292.141C454.26 291.706 453.623 291.083 453.161 290.27C452.712 289.444 452.488 288.463 452.488 287.328C452.488 286.18 452.712 285.199 453.161 284.386C453.623 283.574 454.26 282.95 455.073 282.516C455.886 282.082 456.817 281.864 457.868 281.864ZM457.868 284.008C457.336 284.008 456.88 284.134 456.502 284.386C456.138 284.624 455.857 284.989 455.661 285.479C455.465 285.969 455.367 286.586 455.367 287.328C455.367 288.071 455.465 288.687 455.661 289.178C455.857 289.668 456.138 290.039 456.502 290.291C456.88 290.53 457.336 290.649 457.868 290.649C458.386 290.649 458.828 290.53 459.192 290.291C459.57 290.039 459.857 289.668 460.053 289.178C460.25 288.687 460.348 288.071 460.348 287.328C460.348 286.586 460.25 285.969 460.053 285.479C459.857 284.989 459.57 284.624 459.192 284.386C458.828 284.134 458.386 284.008 457.868 284.008ZM469.86 292.792C468.795 292.792 467.821 292.603 466.939 292.225C466.07 291.847 465.363 291.314 464.816 290.628L466.476 288.947C466.813 289.451 467.261 289.864 467.821 290.186C468.382 290.509 469.047 290.67 469.818 290.67C470.364 290.67 470.798 290.593 471.121 290.439C471.457 290.27 471.625 290.011 471.625 289.661C471.625 289.437 471.548 289.248 471.394 289.094C471.24 288.925 470.931 288.792 470.469 288.694L468.62 288.316C467.401 288.064 466.532 287.686 466.014 287.181C465.51 286.663 465.257 285.997 465.257 285.185C465.257 284.61 465.426 284.071 465.762 283.567C466.112 283.062 466.63 282.656 467.317 282.348C468.003 282.026 468.858 281.864 469.881 281.864C470.931 281.864 471.842 282.033 472.613 282.369C473.397 282.691 474.014 283.174 474.462 283.819L472.739 285.5C472.431 285.01 472.024 284.638 471.52 284.386C471.03 284.12 470.511 283.987 469.965 283.987C469.573 283.987 469.236 284.029 468.956 284.113C468.676 284.197 468.466 284.316 468.326 284.47C468.186 284.61 468.115 284.793 468.115 285.017C468.115 285.241 468.214 285.437 468.41 285.605C468.606 285.759 468.963 285.892 469.481 286.004L471.625 286.446C472.662 286.656 473.404 287.013 473.853 287.517C474.301 288.008 474.525 288.603 474.525 289.304C474.525 289.976 474.343 290.579 473.979 291.111C473.628 291.629 473.103 292.043 472.403 292.351C471.716 292.645 470.868 292.792 469.86 292.792ZM481.024 292.792C479.959 292.792 478.985 292.603 478.103 292.225C477.234 291.847 476.527 291.314 475.98 290.628L477.641 288.947C477.977 289.451 478.425 289.864 478.985 290.186C479.546 290.509 480.211 290.67 480.982 290.67C481.528 290.67 481.963 290.593 482.285 290.439C482.621 290.27 482.789 290.011 482.789 289.661C482.789 289.437 482.712 289.248 482.558 289.094C482.404 288.925 482.096 288.792 481.633 288.694L479.784 288.316C478.565 288.064 477.697 287.686 477.178 287.181C476.674 286.663 476.422 285.997 476.422 285.185C476.422 284.61 476.59 284.071 476.926 283.567C477.276 283.062 477.795 282.656 478.481 282.348C479.168 282.026 480.022 281.864 481.045 281.864C482.096 281.864 483.006 282.033 483.777 282.369C484.561 282.691 485.178 283.174 485.626 283.819L483.903 285.5C483.595 285.01 483.188 284.638 482.684 284.386C482.194 284.12 481.675 283.987 481.129 283.987C480.737 283.987 480.4 284.029 480.12 284.113C479.84 284.197 479.63 284.316 479.49 284.47C479.35 284.61 479.28 284.793 479.28 285.017C479.28 285.241 479.378 285.437 479.574 285.605C479.77 285.759 480.127 285.892 480.646 286.004L482.789 286.446C483.826 286.656 484.568 287.013 485.017 287.517C485.465 288.008 485.689 288.603 485.689 289.304C485.689 289.976 485.507 290.579 485.143 291.111C484.793 291.629 484.267 292.043 483.567 292.351C482.88 292.645 482.033 292.792 481.024 292.792ZM499.2 281.864C500.265 281.864 501.196 282.082 501.995 282.516C502.808 282.95 503.438 283.574 503.886 284.386C504.349 285.199 504.58 286.18 504.58 287.328C504.58 288.463 504.349 289.444 503.886 290.27C503.438 291.083 502.808 291.706 501.995 292.141C501.196 292.575 500.265 292.792 499.2 292.792C498.149 292.792 497.218 292.575 496.405 292.141C495.592 291.706 494.955 291.083 494.493 290.27C494.044 289.444 493.82 288.463 493.82 287.328C493.82 286.18 494.044 285.199 494.493 284.386C494.955 283.574 495.592 282.95 496.405 282.516C497.218 282.082 498.149 281.864 499.2 281.864ZM499.2 284.008C498.668 284.008 498.212 284.134 497.834 284.386C497.47 284.624 497.19 284.989 496.993 285.479C496.797 285.969 496.699 286.586 496.699 287.328C496.699 288.071 496.797 288.687 496.993 289.178C497.19 289.668 497.47 290.039 497.834 290.291C498.212 290.53 498.668 290.649 499.2 290.649C499.718 290.649 500.16 290.53 500.524 290.291C500.902 290.039 501.189 289.668 501.386 289.178C501.582 288.687 501.68 288.071 501.68 287.328C501.68 286.586 501.582 285.969 501.386 285.479C501.189 284.989 500.902 284.624 500.524 284.386C500.16 284.134 499.718 284.008 499.2 284.008ZM510.645 292.792C509.945 292.792 509.314 292.666 508.754 292.414C508.194 292.162 507.745 291.763 507.409 291.216C507.087 290.656 506.926 289.934 506.926 289.052V282.075H509.805V288.358C509.805 289.171 509.973 289.738 510.309 290.06C510.645 290.369 511.129 290.523 511.759 290.523C512.053 290.523 512.341 290.474 512.621 290.376C512.901 290.263 513.146 290.095 513.356 289.871C513.581 289.647 513.756 289.36 513.882 289.01C514.008 288.645 514.071 288.218 514.071 287.728V282.075H516.95V292.582H514.386L514.281 290.754C513.931 291.454 513.447 291.973 512.831 292.309C512.229 292.631 511.5 292.792 510.645 292.792ZM523.699 278.859V289.157C523.699 289.661 523.825 290.032 524.077 290.27C524.344 290.495 524.701 290.607 525.149 290.607C525.499 290.607 525.808 290.558 526.074 290.46C526.34 290.348 526.578 290.2 526.788 290.018L527.251 291.931C526.914 292.197 526.494 292.407 525.99 292.561C525.485 292.715 524.953 292.792 524.393 292.792C523.692 292.792 523.069 292.687 522.522 292.477C521.99 292.267 521.57 291.931 521.261 291.468C520.967 291.006 520.82 290.39 520.82 289.619V279.658L523.699 278.859ZM527.062 282.075V284.218H518.887V282.075H527.062ZM533.696 278.502C534.69 278.502 535.573 278.649 536.344 278.943C537.114 279.238 537.717 279.672 538.151 280.246C538.585 280.807 538.802 281.5 538.802 282.327C538.802 283.167 538.62 283.861 538.256 284.407C537.906 284.94 537.429 285.346 536.827 285.626C536.224 285.892 535.559 286.067 534.83 286.152L534.683 288.127H532.057L532.078 284.954C533.016 284.842 533.745 284.694 534.263 284.512C534.795 284.316 535.167 284.071 535.377 283.777C535.601 283.483 535.713 283.132 535.713 282.726C535.713 282.334 535.629 282.005 535.461 281.738C535.307 281.472 535.069 281.269 534.746 281.129C534.424 280.989 534.011 280.919 533.507 280.919C532.778 280.919 532.197 281.129 531.762 281.549C531.328 281.956 531.062 282.537 530.964 283.293L528.232 282.243C528.4 281.514 528.708 280.87 529.156 280.309C529.605 279.735 530.2 279.294 530.943 278.985C531.699 278.663 532.617 278.502 533.696 278.502ZM533.401 289.535C533.948 289.535 534.382 289.682 534.704 289.976C535.027 290.27 535.188 290.663 535.188 291.153C535.188 291.657 535.027 292.057 534.704 292.351C534.382 292.631 533.948 292.771 533.401 292.771C532.855 292.771 532.421 292.631 532.099 292.351C531.776 292.057 531.615 291.657 531.615 291.153C531.615 290.663 531.776 290.27 532.099 289.976C532.421 289.682 532.855 289.535 533.401 289.535Z" fill="black"/>
<path d="M168.315 391.09L164.28 377.22H167.369L170.101 388.673L172.875 377.22H175.649L178.465 388.673L181.176 377.22H184.139L180.104 391.09H176.847L174.913 383.524L174.262 380.246H174.22L173.568 383.524L171.656 391.09H168.315ZM186.08 391.09V375.98H188.959V382.368C189.296 381.696 189.758 381.199 190.346 380.876C190.935 380.54 191.6 380.372 192.343 380.372C193.071 380.372 193.716 380.512 194.276 380.792C194.85 381.072 195.299 381.5 195.621 382.074C195.957 382.635 196.125 383.342 196.125 384.197V391.09H193.246V385.037C193.246 384.127 193.071 383.503 192.721 383.167C192.371 382.817 191.922 382.642 191.376 382.642C190.97 382.642 190.577 382.74 190.199 382.936C189.835 383.118 189.534 383.426 189.296 383.86C189.071 384.281 188.959 384.841 188.959 385.542V391.09H186.08ZM205.081 384.386C205.081 383.783 204.906 383.314 204.555 382.978C204.219 382.642 203.771 382.473 203.21 382.473C202.692 382.473 202.237 382.607 201.844 382.873C201.452 383.139 201.165 383.58 200.983 384.197L198.524 383.44C198.762 382.515 199.281 381.773 200.079 381.213C200.892 380.652 201.978 380.372 203.336 380.372C204.261 380.372 205.067 380.519 205.753 380.813C206.44 381.093 206.972 381.521 207.35 382.095C207.743 382.67 207.939 383.391 207.939 384.26V388.526C207.939 389.058 208.191 389.324 208.695 389.324C208.933 389.324 209.158 389.289 209.368 389.219L209.2 391.005C208.835 391.188 208.38 391.279 207.834 391.279C207.343 391.279 206.902 391.195 206.51 391.026C206.117 390.858 205.809 390.606 205.585 390.27C205.361 389.92 205.249 389.485 205.249 388.967V388.883L205.753 388.799C205.669 389.331 205.438 389.787 205.06 390.165C204.681 390.529 204.219 390.809 203.673 391.005C203.14 391.202 202.587 391.3 202.013 391.3C201.298 391.3 200.682 391.195 200.163 390.984C199.645 390.76 199.246 390.438 198.965 390.018C198.685 389.597 198.545 389.079 198.545 388.463C198.545 387.678 198.797 387.041 199.302 386.55C199.806 386.046 200.527 385.703 201.466 385.521L205.417 384.722L205.396 386.508L202.874 387.013C202.398 387.111 202.034 387.244 201.781 387.412C201.543 387.566 201.424 387.825 201.424 388.189C201.424 388.54 201.55 388.806 201.802 388.988C202.069 389.17 202.384 389.261 202.748 389.261C203.042 389.261 203.329 389.226 203.61 389.156C203.89 389.086 204.142 388.974 204.366 388.82C204.59 388.666 204.765 388.456 204.892 388.189C205.018 387.923 205.081 387.601 205.081 387.223V384.386ZM214.468 377.367V387.664C214.468 388.168 214.594 388.54 214.846 388.778C215.112 389.002 215.47 389.114 215.918 389.114C216.268 389.114 216.576 389.065 216.842 388.967C217.109 388.855 217.347 388.708 217.557 388.526L218.019 390.438C217.683 390.704 217.263 390.914 216.758 391.069C216.254 391.223 215.722 391.3 215.161 391.3C214.461 391.3 213.837 391.195 213.291 390.984C212.759 390.774 212.338 390.438 212.03 389.976C211.736 389.513 211.589 388.897 211.589 388.126V378.165L214.468 377.367ZM217.83 380.582V382.726H209.655V380.582H217.83ZM232.191 384.386C232.191 383.783 232.016 383.314 231.665 382.978C231.329 382.642 230.881 382.473 230.32 382.473C229.802 382.473 229.347 382.607 228.954 382.873C228.562 383.139 228.275 383.58 228.093 384.197L225.634 383.44C225.872 382.515 226.391 381.773 227.189 381.213C228.002 380.652 229.088 380.372 230.447 380.372C231.371 380.372 232.177 380.519 232.863 380.813C233.55 381.093 234.082 381.521 234.46 382.095C234.853 382.67 235.049 383.391 235.049 384.26V388.526C235.049 389.058 235.301 389.324 235.805 389.324C236.044 389.324 236.268 389.289 236.478 389.219L236.31 391.005C235.945 391.188 235.49 391.279 234.944 391.279C234.453 391.279 234.012 391.195 233.62 391.026C233.228 390.858 232.919 390.606 232.695 390.27C232.471 389.92 232.359 389.485 232.359 388.967V388.883L232.863 388.799C232.779 389.331 232.548 389.787 232.17 390.165C231.791 390.529 231.329 390.809 230.783 391.005C230.25 391.202 229.697 391.3 229.123 391.3C228.408 391.3 227.792 391.195 227.273 390.984C226.755 390.76 226.356 390.438 226.075 390.018C225.795 389.597 225.655 389.079 225.655 388.463C225.655 387.678 225.907 387.041 226.412 386.55C226.916 386.046 227.638 385.703 228.576 385.521L232.527 384.722L232.506 386.508L229.984 387.013C229.508 387.111 229.144 387.244 228.891 387.412C228.653 387.566 228.534 387.825 228.534 388.189C228.534 388.54 228.66 388.806 228.912 388.988C229.179 389.17 229.494 389.261 229.858 389.261C230.152 389.261 230.44 389.226 230.72 389.156C231 389.086 231.252 388.974 231.476 388.82C231.7 388.666 231.876 388.456 232.002 388.189C232.128 387.923 232.191 387.601 232.191 387.223V384.386ZM242.472 391.3C241.407 391.3 240.433 391.111 239.551 390.732C238.682 390.354 237.974 389.822 237.428 389.135L239.088 387.454C239.425 387.958 239.873 388.372 240.433 388.694C240.994 389.016 241.659 389.177 242.43 389.177C242.976 389.177 243.41 389.1 243.733 388.946C244.069 388.778 244.237 388.519 244.237 388.168C244.237 387.944 244.16 387.755 244.006 387.601C243.852 387.433 243.543 387.3 243.081 387.202L241.232 386.824C240.013 386.571 239.144 386.193 238.626 385.689C238.122 385.17 237.869 384.505 237.869 383.692C237.869 383.118 238.038 382.578 238.374 382.074C238.724 381.57 239.242 381.163 239.929 380.855C240.615 380.533 241.47 380.372 242.493 380.372C243.543 380.372 244.454 380.54 245.225 380.876C246.009 381.199 246.626 381.682 247.074 382.326L245.351 384.008C245.043 383.517 244.636 383.146 244.132 382.894C243.642 382.628 243.123 382.494 242.577 382.494C242.184 382.494 241.848 382.536 241.568 382.621C241.288 382.705 241.078 382.824 240.938 382.978C240.797 383.118 240.727 383.3 240.727 383.524C240.727 383.748 240.826 383.944 241.022 384.113C241.218 384.267 241.575 384.4 242.093 384.512L244.237 384.953C245.274 385.163 246.016 385.521 246.465 386.025C246.913 386.515 247.137 387.111 247.137 387.811C247.137 388.484 246.955 389.086 246.591 389.618C246.24 390.137 245.715 390.55 245.014 390.858C244.328 391.153 243.48 391.3 242.472 391.3ZM253.636 391.3C252.571 391.3 251.597 391.111 250.715 390.732C249.846 390.354 249.139 389.822 248.592 389.135L250.252 387.454C250.589 387.958 251.037 388.372 251.597 388.694C252.158 389.016 252.823 389.177 253.594 389.177C254.14 389.177 254.575 389.1 254.897 388.946C255.233 388.778 255.401 388.519 255.401 388.168C255.401 387.944 255.324 387.755 255.17 387.601C255.016 387.433 254.708 387.3 254.245 387.202L252.396 386.824C251.177 386.571 250.308 386.193 249.79 385.689C249.286 385.17 249.034 384.505 249.034 383.692C249.034 383.118 249.202 382.578 249.538 382.074C249.888 381.57 250.407 381.163 251.093 380.855C251.78 380.533 252.634 380.372 253.657 380.372C254.708 380.372 255.618 380.54 256.389 380.876C257.173 381.199 257.79 381.682 258.238 382.326L256.515 384.008C256.207 383.517 255.8 383.146 255.296 382.894C254.806 382.628 254.287 382.494 253.741 382.494C253.349 382.494 253.012 382.536 252.732 382.621C252.452 382.705 252.242 382.824 252.102 382.978C251.962 383.118 251.892 383.3 251.892 383.524C251.892 383.748 251.99 383.944 252.186 384.113C252.382 384.267 252.739 384.4 253.258 384.512L255.401 384.953C256.438 385.163 257.18 385.521 257.629 386.025C258.077 386.515 258.301 387.111 258.301 387.811C258.301 388.484 258.119 389.086 257.755 389.618C257.405 390.137 256.879 390.55 256.179 390.858C255.492 391.153 254.645 391.3 253.636 391.3ZM264.254 391.3C263.553 391.3 262.923 391.174 262.362 390.921C261.802 390.669 261.354 390.27 261.017 389.724C260.695 389.163 260.534 388.442 260.534 387.559V380.582H263.413V386.866C263.413 387.678 263.581 388.246 263.917 388.568C264.254 388.876 264.737 389.03 265.367 389.03C265.662 389.03 265.949 388.981 266.229 388.883C266.509 388.771 266.754 388.603 266.965 388.379C267.189 388.154 267.364 387.867 267.49 387.517C267.616 387.153 267.679 386.725 267.679 386.235V380.582H270.558V391.09H267.994L267.889 389.261C267.539 389.962 267.056 390.48 266.439 390.816C265.837 391.139 265.108 391.3 264.254 391.3ZM273.588 391.09V380.582H276.173L276.278 382.473C276.628 381.773 277.104 381.248 277.707 380.897C278.323 380.547 279.003 380.372 279.745 380.372C280.502 380.372 281.181 380.547 281.784 380.897C282.4 381.248 282.862 381.766 283.171 382.452C283.395 381.99 283.696 381.605 284.074 381.297C284.452 380.988 284.873 380.757 285.335 380.603C285.797 380.449 286.267 380.372 286.743 380.372C287.43 380.372 288.053 380.512 288.613 380.792C289.188 381.072 289.643 381.493 289.979 382.053C290.316 382.614 290.484 383.328 290.484 384.197V391.09H287.605V384.764C287.605 383.993 287.437 383.447 287.1 383.125C286.764 382.803 286.33 382.642 285.797 382.642C285.377 382.642 284.985 382.747 284.621 382.957C284.27 383.167 283.99 383.482 283.78 383.902C283.584 384.309 283.486 384.82 283.486 385.437V391.09H280.607V384.764C280.607 383.993 280.432 383.447 280.081 383.125C279.745 382.803 279.311 382.642 278.778 382.642C278.414 382.642 278.05 382.74 277.686 382.936C277.335 383.132 277.041 383.44 276.803 383.86C276.579 384.281 276.467 384.834 276.467 385.521V391.09H273.588ZM293.453 395.503V380.582H296.038L296.227 383.923L295.87 383.545C295.996 382.929 296.227 382.382 296.564 381.906C296.914 381.43 297.355 381.058 297.888 380.792C298.42 380.512 299.015 380.372 299.674 380.372C300.528 380.372 301.292 380.589 301.964 381.023C302.637 381.458 303.162 382.081 303.541 382.894C303.933 383.692 304.129 384.666 304.129 385.815C304.129 386.964 303.933 387.951 303.541 388.778C303.148 389.59 302.609 390.214 301.922 390.648C301.25 391.083 300.479 391.3 299.611 391.3C298.686 391.3 297.916 391.041 297.299 390.522C296.697 390.004 296.283 389.352 296.059 388.568L296.332 388.126V395.503H293.453ZM298.77 389.093C299.541 389.093 300.143 388.82 300.577 388.274C301.026 387.713 301.25 386.901 301.25 385.836C301.25 384.771 301.033 383.965 300.598 383.419C300.178 382.859 299.583 382.578 298.812 382.578C298.322 382.578 297.888 382.712 297.509 382.978C297.145 383.23 296.858 383.601 296.648 384.092C296.438 384.568 296.332 385.149 296.332 385.836C296.332 386.508 296.431 387.09 296.627 387.58C296.823 388.07 297.103 388.449 297.467 388.715C297.846 388.967 298.28 389.093 298.77 389.093ZM310.246 377.367V387.664C310.246 388.168 310.372 388.54 310.624 388.778C310.89 389.002 311.248 389.114 311.696 389.114C312.046 389.114 312.354 389.065 312.62 388.967C312.887 388.855 313.125 388.708 313.335 388.526L313.797 390.438C313.461 390.704 313.041 390.914 312.536 391.069C312.032 391.223 311.5 391.3 310.939 391.3C310.239 391.3 309.615 391.195 309.069 390.984C308.537 390.774 308.116 390.438 307.808 389.976C307.514 389.513 307.367 388.897 307.367 388.126V378.165L310.246 377.367ZM313.608 380.582V382.726H305.433V380.582H313.608ZM317.006 379.069C316.404 379.069 315.955 378.943 315.661 378.691C315.367 378.425 315.22 378.039 315.22 377.535C315.22 377.017 315.367 376.631 315.661 376.379C315.955 376.113 316.404 375.98 317.006 375.98C317.608 375.98 318.057 376.113 318.351 376.379C318.645 376.631 318.792 377.017 318.792 377.535C318.792 378.039 318.645 378.425 318.351 378.691C318.057 378.943 317.608 379.069 317.006 379.069ZM318.435 380.582V391.09H315.556V380.582H318.435ZM326.278 380.372C327.343 380.372 328.275 380.589 329.073 381.023C329.886 381.458 330.516 382.081 330.965 382.894C331.427 383.706 331.658 384.687 331.658 385.836C331.658 386.971 331.427 387.951 330.965 388.778C330.516 389.59 329.886 390.214 329.073 390.648C328.275 391.083 327.343 391.3 326.278 391.3C325.228 391.3 324.296 391.083 323.483 390.648C322.671 390.214 322.033 389.59 321.571 388.778C321.123 387.951 320.899 386.971 320.899 385.836C320.899 384.687 321.123 383.706 321.571 382.894C322.033 382.081 322.671 381.458 323.483 381.023C324.296 380.589 325.228 380.372 326.278 380.372ZM326.278 382.515C325.746 382.515 325.291 382.642 324.912 382.894C324.548 383.132 324.268 383.496 324.072 383.986C323.876 384.477 323.778 385.093 323.778 385.836C323.778 386.578 323.876 387.195 324.072 387.685C324.268 388.175 324.548 388.547 324.912 388.799C325.291 389.037 325.746 389.156 326.278 389.156C326.797 389.156 327.238 389.037 327.602 388.799C327.981 388.547 328.268 388.175 328.464 387.685C328.66 387.195 328.758 386.578 328.758 385.836C328.758 385.093 328.66 384.477 328.464 383.986C328.268 383.496 327.981 383.132 327.602 382.894C327.238 382.642 326.797 382.515 326.278 382.515ZM334.067 391.09V380.582H336.652L336.82 383.734L336.463 383.398C336.631 382.712 336.897 382.144 337.261 381.696C337.626 381.248 338.067 380.918 338.585 380.708C339.118 380.484 339.699 380.372 340.33 380.372C341.058 380.372 341.703 380.512 342.263 380.792C342.837 381.072 343.286 381.5 343.608 382.074C343.944 382.635 344.112 383.342 344.112 384.197V391.09H341.233V385.016C341.233 384.12 341.058 383.503 340.708 383.167C340.358 382.817 339.902 382.642 339.342 382.642C338.95 382.642 338.564 382.74 338.186 382.936C337.822 383.118 337.521 383.419 337.282 383.839C337.058 384.26 336.946 384.82 336.946 385.521V391.09H334.067ZM351.281 391.3C350.217 391.3 349.243 391.111 348.36 390.732C347.492 390.354 346.784 389.822 346.238 389.135L347.898 387.454C348.234 387.958 348.683 388.372 349.243 388.694C349.803 389.016 350.469 389.177 351.239 389.177C351.786 389.177 352.22 389.1 352.542 388.946C352.879 388.778 353.047 388.519 353.047 388.168C353.047 387.944 352.97 387.755 352.815 387.601C352.661 387.433 352.353 387.3 351.891 387.202L350.042 386.824C348.823 386.571 347.954 386.193 347.436 385.689C346.931 385.17 346.679 384.505 346.679 383.692C346.679 383.118 346.847 382.578 347.183 382.074C347.534 381.57 348.052 381.163 348.739 380.855C349.425 380.533 350.28 380.372 351.302 380.372C352.353 380.372 353.264 380.54 354.034 380.876C354.819 381.199 355.435 381.682 355.884 382.326L354.16 384.008C353.852 383.517 353.446 383.146 352.942 382.894C352.451 382.628 351.933 382.494 351.386 382.494C350.994 382.494 350.658 382.536 350.378 382.621C350.098 382.705 349.887 382.824 349.747 382.978C349.607 383.118 349.537 383.3 349.537 383.524C349.537 383.748 349.635 383.944 349.831 384.113C350.027 384.267 350.385 384.4 350.903 384.512L353.047 384.953C354.083 385.163 354.826 385.521 355.274 386.025C355.723 386.515 355.947 387.111 355.947 387.811C355.947 388.484 355.765 389.086 355.4 389.618C355.05 390.137 354.525 390.55 353.824 390.858C353.138 391.153 352.29 391.3 351.281 391.3ZM368.638 391.3C367.769 391.3 366.992 391.083 366.305 390.648C365.633 390.214 365.1 389.59 364.708 388.778C364.33 387.965 364.141 386.992 364.141 385.857C364.141 384.694 364.344 383.706 364.75 382.894C365.156 382.067 365.703 381.444 366.389 381.023C367.09 380.589 367.874 380.372 368.743 380.372C369.668 380.372 370.431 380.638 371.034 381.17C371.636 381.703 372.028 382.389 372.21 383.23L371.937 383.566V375.98H374.816V391.09H372.231L372.042 387.895L372.4 388.063C372.301 388.722 372.077 389.296 371.727 389.787C371.377 390.263 370.936 390.634 370.403 390.9C369.871 391.167 369.282 391.3 368.638 391.3ZM369.478 389.093C369.983 389.093 370.417 388.967 370.781 388.715C371.146 388.449 371.426 388.063 371.622 387.559C371.832 387.055 371.937 386.452 371.937 385.752C371.937 385.079 371.839 384.512 371.643 384.05C371.447 383.573 371.167 383.209 370.802 382.957C370.438 382.705 370.011 382.578 369.521 382.578C368.736 382.578 368.12 382.859 367.671 383.419C367.237 383.965 367.02 384.771 367.02 385.836C367.02 386.901 367.237 387.713 367.671 388.274C368.106 388.82 368.708 389.093 369.478 389.093ZM382.633 380.372C383.698 380.372 384.629 380.589 385.428 381.023C386.24 381.458 386.871 382.081 387.319 382.894C387.782 383.706 388.013 384.687 388.013 385.836C388.013 386.971 387.782 387.951 387.319 388.778C386.871 389.59 386.24 390.214 385.428 390.648C384.629 391.083 383.698 391.3 382.633 391.3C381.582 391.3 380.65 391.083 379.838 390.648C379.025 390.214 378.388 389.59 377.926 388.778C377.477 387.951 377.253 386.971 377.253 385.836C377.253 384.687 377.477 383.706 377.926 382.894C378.388 382.081 379.025 381.458 379.838 381.023C380.65 380.589 381.582 380.372 382.633 380.372ZM382.633 382.515C382.1 382.515 381.645 382.642 381.267 382.894C380.903 383.132 380.622 383.496 380.426 383.986C380.23 384.477 380.132 385.093 380.132 385.836C380.132 386.578 380.23 387.195 380.426 387.685C380.622 388.175 380.903 388.547 381.267 388.799C381.645 389.037 382.1 389.156 382.633 389.156C383.151 389.156 383.593 389.037 383.957 388.799C384.335 388.547 384.622 388.175 384.818 387.685C385.015 387.195 385.113 386.578 385.113 385.836C385.113 385.093 385.015 384.477 384.818 383.986C384.622 383.496 384.335 383.132 383.957 382.894C383.593 382.642 383.151 382.515 382.633 382.515ZM409.948 380.582H413.016L409.654 391.09H406.334L404.043 383.944L401.837 391.09H398.516L395.154 380.582H398.222L400.323 388.631L402.656 380.582H405.514L407.868 388.631L409.948 380.582ZM419.39 391.3C418.284 391.3 417.317 391.083 416.49 390.648C415.678 390.214 415.047 389.59 414.599 388.778C414.151 387.965 413.927 386.985 413.927 385.836C413.927 384.687 414.151 383.706 414.599 382.894C415.047 382.081 415.671 381.458 416.469 381.023C417.282 380.589 418.207 380.372 419.243 380.372C420.308 380.372 421.212 380.589 421.954 381.023C422.697 381.444 423.264 382.025 423.656 382.768C424.049 383.496 424.245 384.33 424.245 385.268C424.245 385.549 424.238 385.815 424.224 386.067C424.21 386.319 424.189 386.543 424.161 386.739H415.776V384.743H422.9L421.513 385.247C421.513 384.365 421.31 383.685 420.903 383.209C420.511 382.733 419.951 382.494 419.222 382.494C418.69 382.494 418.228 382.621 417.835 382.873C417.457 383.125 417.17 383.503 416.974 384.008C416.778 384.498 416.679 385.121 416.679 385.878C416.679 386.62 416.785 387.237 416.995 387.727C417.219 388.203 417.527 388.561 417.919 388.799C418.326 389.037 418.809 389.156 419.369 389.156C419.986 389.156 420.483 389.037 420.861 388.799C421.24 388.561 421.534 388.232 421.744 387.811L424.035 388.694C423.811 389.24 423.467 389.71 423.005 390.102C422.557 390.494 422.017 390.795 421.387 391.005C420.77 391.202 420.105 391.3 419.39 391.3ZM433.108 391.09V380.582H435.693L435.861 383.734L435.504 383.398C435.672 382.712 435.938 382.144 436.302 381.696C436.667 381.248 437.108 380.918 437.626 380.708C438.159 380.484 438.74 380.372 439.371 380.372C440.099 380.372 440.744 380.512 441.304 380.792C441.878 381.072 442.327 381.5 442.649 382.074C442.985 382.635 443.153 383.342 443.153 384.197V391.09H440.274V385.016C440.274 384.12 440.099 383.503 439.749 383.167C439.399 382.817 438.943 382.642 438.383 382.642C437.991 382.642 437.605 382.74 437.227 382.936C436.863 383.118 436.562 383.419 436.324 383.839C436.099 384.26 435.987 384.82 435.987 385.521V391.09H433.108ZM450.995 391.3C449.888 391.3 448.921 391.083 448.095 390.648C447.282 390.214 446.652 389.59 446.203 388.778C445.755 387.965 445.531 386.985 445.531 385.836C445.531 384.687 445.755 383.706 446.203 382.894C446.652 382.081 447.275 381.458 448.074 381.023C448.886 380.589 449.811 380.372 450.848 380.372C451.913 380.372 452.816 380.589 453.559 381.023C454.301 381.444 454.869 382.025 455.261 382.768C455.653 383.496 455.849 384.33 455.849 385.268C455.849 385.549 455.842 385.815 455.828 386.067C455.814 386.319 455.793 386.543 455.765 386.739H447.38V384.743H454.504L453.117 385.247C453.117 384.365 452.914 383.685 452.508 383.209C452.116 382.733 451.555 382.494 450.827 382.494C450.294 382.494 449.832 382.621 449.44 382.873C449.062 383.125 448.774 383.503 448.578 384.008C448.382 384.498 448.284 385.121 448.284 385.878C448.284 386.62 448.389 387.237 448.599 387.727C448.823 388.203 449.132 388.561 449.524 388.799C449.93 389.037 450.413 389.156 450.974 389.156C451.59 389.156 452.088 389.037 452.466 388.799C452.844 388.561 453.138 388.232 453.349 387.811L455.639 388.694C455.415 389.24 455.072 389.71 454.609 390.102C454.161 390.494 453.622 390.795 452.991 391.005C452.375 391.202 451.709 391.3 450.995 391.3ZM463.165 391.3C462.058 391.3 461.091 391.083 460.265 390.648C459.452 390.214 458.822 389.59 458.373 388.778C457.925 387.965 457.701 386.985 457.701 385.836C457.701 384.687 457.925 383.706 458.373 382.894C458.822 382.081 459.445 381.458 460.244 381.023C461.056 380.589 461.981 380.372 463.018 380.372C464.082 380.372 464.986 380.589 465.728 381.023C466.471 381.444 467.038 382.025 467.431 382.768C467.823 383.496 468.019 384.33 468.019 385.268C468.019 385.549 468.012 385.815 467.998 386.067C467.984 386.319 467.963 386.543 467.935 386.739H459.55V384.743H466.674L465.287 385.247C465.287 384.365 465.084 383.685 464.678 383.209C464.285 382.733 463.725 382.494 462.997 382.494C462.464 382.494 462.002 382.621 461.61 382.873C461.231 383.125 460.944 383.503 460.748 384.008C460.552 384.498 460.454 385.121 460.454 385.878C460.454 386.62 460.559 387.237 460.769 387.727C460.993 388.203 461.301 388.561 461.694 388.799C462.1 389.037 462.583 389.156 463.144 389.156C463.76 389.156 464.257 389.037 464.636 388.799C465.014 388.561 465.308 388.232 465.518 387.811L467.809 388.694C467.585 389.24 467.242 389.71 466.779 390.102C466.331 390.494 465.792 390.795 465.161 391.005C464.545 391.202 463.879 391.3 463.165 391.3ZM474.431 391.3C473.562 391.3 472.785 391.083 472.098 390.648C471.426 390.214 470.893 389.59 470.501 388.778C470.123 387.965 469.934 386.992 469.934 385.857C469.934 384.694 470.137 383.706 470.543 382.894C470.949 382.067 471.496 381.444 472.182 381.023C472.883 380.589 473.667 380.372 474.536 380.372C475.461 380.372 476.224 380.638 476.827 381.17C477.429 381.703 477.821 382.389 478.003 383.23L477.73 383.566V375.98H480.609V391.09H478.024L477.835 387.895L478.192 388.063C478.094 388.722 477.87 389.296 477.52 389.787C477.17 390.263 476.728 390.634 476.196 390.9C475.664 391.167 475.075 391.3 474.431 391.3ZM475.271 389.093C475.776 389.093 476.21 388.967 476.574 388.715C476.939 388.449 477.219 388.063 477.415 387.559C477.625 387.055 477.73 386.452 477.73 385.752C477.73 385.079 477.632 384.512 477.436 384.05C477.24 383.573 476.96 383.209 476.595 382.957C476.231 382.705 475.804 382.578 475.313 382.578C474.529 382.578 473.912 382.859 473.464 383.419C473.03 383.965 472.813 384.771 472.813 385.836C472.813 386.901 473.03 387.713 473.464 388.274C473.898 388.82 474.501 389.093 475.271 389.093ZM493.531 377.367V387.664C493.531 388.168 493.657 388.54 493.91 388.778C494.176 389.002 494.533 389.114 494.981 389.114C495.332 389.114 495.64 389.065 495.906 388.967C496.172 388.855 496.41 388.708 496.62 388.526L497.083 390.438C496.747 390.704 496.326 390.914 495.822 391.069C495.318 391.223 494.785 391.3 494.225 391.3C493.524 391.3 492.901 391.195 492.354 390.984C491.822 390.774 491.402 390.438 491.094 389.976C490.799 389.513 490.652 388.897 490.652 388.126V378.165L493.531 377.367ZM496.894 380.582V382.726H488.719V380.582H496.894ZM503.633 380.372C504.698 380.372 505.629 380.589 506.428 381.023C507.24 381.458 507.871 382.081 508.319 382.894C508.782 383.706 509.013 384.687 509.013 385.836C509.013 386.971 508.782 387.951 508.319 388.778C507.871 389.59 507.24 390.214 506.428 390.648C505.629 391.083 504.698 391.3 503.633 391.3C502.582 391.3 501.65 391.083 500.838 390.648C500.025 390.214 499.388 389.59 498.926 388.778C498.477 387.951 498.253 386.971 498.253 385.836C498.253 384.687 498.477 383.706 498.926 382.894C499.388 382.081 500.025 381.458 500.838 381.023C501.65 380.589 502.582 380.372 503.633 380.372ZM503.633 382.515C503.1 382.515 502.645 382.642 502.267 382.894C501.903 383.132 501.622 383.496 501.426 383.986C501.23 384.477 501.132 385.093 501.132 385.836C501.132 386.578 501.23 387.195 501.426 387.685C501.622 388.175 501.903 388.547 502.267 388.799C502.645 389.037 503.1 389.156 503.633 389.156C504.151 389.156 504.593 389.037 504.957 388.799C505.335 388.547 505.622 388.175 505.818 387.685C506.015 387.195 506.113 386.578 506.113 385.836C506.113 385.093 506.015 384.477 505.818 383.986C505.622 383.496 505.335 383.132 504.957 382.894C504.593 382.642 504.151 382.515 503.633 382.515ZM522.285 375.77C522.776 375.77 523.217 375.826 523.609 375.938C524.015 376.036 524.317 376.162 524.513 376.316L524.114 378.228C523.959 378.13 523.784 378.053 523.588 377.997C523.392 377.941 523.161 377.913 522.895 377.913C522.348 377.913 521.914 378.039 521.592 378.291C521.27 378.53 521.108 378.943 521.108 379.531V380.981L521.235 381.549V391.09H518.355V379.321C518.355 378.733 518.454 378.214 518.65 377.766C518.846 377.318 519.119 376.946 519.469 376.652C519.819 376.358 520.233 376.141 520.709 376.001C521.199 375.847 521.725 375.77 522.285 375.77ZM524.429 380.582V382.726H516.527V380.582H524.429ZM529.813 391.3C529.113 391.3 528.482 391.174 527.922 390.921C527.362 390.669 526.913 390.27 526.577 389.724C526.255 389.163 526.094 388.442 526.094 387.559V380.582H528.973V386.866C528.973 387.678 529.141 388.246 529.477 388.568C529.813 388.876 530.297 389.03 530.927 389.03C531.221 389.03 531.509 388.981 531.789 388.883C532.069 388.771 532.314 388.603 532.524 388.379C532.748 388.154 532.924 387.867 533.05 387.517C533.176 387.153 533.239 386.725 533.239 386.235V380.582H536.118V391.09H533.554L533.449 389.261C533.099 389.962 532.615 390.48 531.999 390.816C531.396 391.139 530.668 391.3 529.813 391.3ZM539.147 391.09V380.582H541.648L541.837 382.642C542.118 381.913 542.524 381.353 543.056 380.96C543.603 380.568 544.282 380.372 545.095 380.372C545.333 380.372 545.55 380.393 545.746 380.435C545.942 380.477 546.103 380.533 546.229 380.603L545.893 383.02C545.753 382.964 545.578 382.922 545.368 382.894C545.172 382.866 544.913 382.852 544.59 382.852C544.17 382.852 543.764 382.957 543.371 383.167C542.979 383.363 542.657 383.671 542.405 384.092C542.153 384.498 542.026 385.016 542.026 385.647V391.09H539.147ZM551.343 377.367V387.664C551.343 388.168 551.469 388.54 551.721 388.778C551.987 389.002 552.345 389.114 552.793 389.114C553.143 389.114 553.451 389.065 553.717 388.967C553.984 388.855 554.222 388.708 554.432 388.526L554.894 390.438C554.558 390.704 554.138 390.914 553.633 391.069C553.129 391.223 552.597 391.3 552.036 391.3C551.336 391.3 550.712 391.195 550.166 390.984C549.634 390.774 549.213 390.438 548.905 389.976C548.611 389.513 548.464 388.897 548.464 388.126V378.165L551.343 377.367ZM554.705 380.582V382.726H546.53V380.582H554.705ZM556.817 391.09V375.98H559.696V382.368C560.032 381.696 560.495 381.199 561.083 380.876C561.672 380.54 562.337 380.372 563.08 380.372C563.808 380.372 564.453 380.512 565.013 380.792C565.587 381.072 566.036 381.5 566.358 382.074C566.694 382.635 566.862 383.342 566.862 384.197V391.09H563.983V385.037C563.983 384.127 563.808 383.503 563.458 383.167C563.108 382.817 562.659 382.642 562.113 382.642C561.707 382.642 561.314 382.74 560.936 382.936C560.572 383.118 560.271 383.426 560.032 383.86C559.808 384.281 559.696 384.841 559.696 385.542V391.09H556.817ZM574.704 391.3C573.597 391.3 572.63 391.083 571.804 390.648C570.991 390.214 570.361 389.59 569.912 388.778C569.464 387.965 569.24 386.985 569.24 385.836C569.24 384.687 569.464 383.706 569.912 382.894C570.361 382.081 570.984 381.458 571.783 381.023C572.595 380.589 573.52 380.372 574.557 380.372C575.621 380.372 576.525 380.589 577.268 381.023C578.01 381.444 578.578 382.025 578.97 382.768C579.362 383.496 579.558 384.33 579.558 385.268C579.558 385.549 579.551 385.815 579.537 386.067C579.523 386.319 579.502 386.543 579.474 386.739H571.089V384.743H578.213L576.826 385.247C576.826 384.365 576.623 383.685 576.217 383.209C575.825 382.733 575.264 382.494 574.536 382.494C574.003 382.494 573.541 382.621 573.149 382.873C572.77 383.125 572.483 383.503 572.287 384.008C572.091 384.498 571.993 385.121 571.993 385.878C571.993 386.62 572.098 387.237 572.308 387.727C572.532 388.203 572.841 388.561 573.233 388.799C573.639 389.037 574.122 389.156 574.683 389.156C575.299 389.156 575.797 389.037 576.175 388.799C576.553 388.561 576.847 388.232 577.058 387.811L579.348 388.694C579.124 389.24 578.781 389.71 578.318 390.102C577.87 390.494 577.331 390.795 576.7 391.005C576.084 391.202 575.418 391.3 574.704 391.3ZM581.998 391.09V380.582H584.499L584.688 382.642C584.968 381.913 585.375 381.353 585.907 380.96C586.453 380.568 587.133 380.372 587.945 380.372C588.184 380.372 588.401 380.393 588.597 380.435C588.793 380.477 588.954 380.533 589.08 380.603L588.744 383.02C588.604 382.964 588.429 382.922 588.219 382.894C588.022 382.866 587.763 382.852 587.441 382.852C587.021 382.852 586.614 382.957 586.222 383.167C585.83 383.363 585.508 383.671 585.255 384.092C585.003 384.498 584.877 385.016 584.877 385.647V391.09H581.998ZM600.371 377.367V387.664C600.371 388.168 600.497 388.54 600.749 388.778C601.015 389.002 601.372 389.114 601.821 389.114C602.171 389.114 602.479 389.065 602.745 388.967C603.012 388.855 603.25 388.708 603.46 388.526L603.922 390.438C603.586 390.704 603.166 390.914 602.661 391.069C602.157 391.223 601.625 391.3 601.064 391.3C600.364 391.3 599.74 391.195 599.194 390.984C598.662 390.774 598.241 390.438 597.933 389.976C597.639 389.513 597.492 388.897 597.492 388.126V378.165L600.371 377.367ZM603.733 380.582V382.726H595.558V380.582H603.733ZM610.556 391.3C609.45 391.3 608.483 391.083 607.656 390.648C606.844 390.214 606.213 389.59 605.765 388.778C605.317 387.965 605.093 386.985 605.093 385.836C605.093 384.687 605.317 383.706 605.765 382.894C606.213 382.081 606.837 381.458 607.635 381.023C608.448 380.589 609.373 380.372 610.409 380.372C611.474 380.372 612.378 380.589 613.12 381.023C613.863 381.444 614.43 382.025 614.823 382.768C615.215 383.496 615.411 384.33 615.411 385.268C615.411 385.549 615.404 385.815 615.39 386.067C615.376 386.319 615.355 386.543 615.327 386.739H606.942V384.743H614.066L612.679 385.247C612.679 384.365 612.476 383.685 612.07 383.209C611.677 382.733 611.117 382.494 610.388 382.494C609.856 382.494 609.394 382.621 609.001 382.873C608.623 383.125 608.336 383.503 608.14 384.008C607.944 384.498 607.846 385.121 607.846 385.878C607.846 386.62 607.951 387.237 608.161 387.727C608.385 388.203 608.693 388.561 609.085 388.799C609.492 389.037 609.975 389.156 610.535 389.156C611.152 389.156 611.649 389.037 612.028 388.799C612.406 388.561 612.7 388.232 612.91 387.811L615.201 388.694C614.977 389.24 614.633 389.71 614.171 390.102C613.723 390.494 613.183 390.795 612.553 391.005C611.936 391.202 611.271 391.3 610.556 391.3ZM622.054 391.3C620.989 391.3 620.015 391.111 619.133 390.732C618.264 390.354 617.557 389.822 617.01 389.135L618.67 387.454C619.007 387.958 619.455 388.372 620.015 388.694C620.576 389.016 621.241 389.177 622.012 389.177C622.558 389.177 622.992 389.1 623.315 388.946C623.651 388.778 623.819 388.519 623.819 388.168C623.819 387.944 623.742 387.755 623.588 387.601C623.434 387.433 623.126 387.3 622.663 387.202L620.814 386.824C619.595 386.571 618.726 386.193 618.208 385.689C617.704 385.17 617.451 384.505 617.451 383.692C617.451 383.118 617.62 382.578 617.956 382.074C618.306 381.57 618.824 381.163 619.511 380.855C620.197 380.533 621.052 380.372 622.075 380.372C623.126 380.372 624.036 380.54 624.807 380.876C625.591 381.199 626.208 381.682 626.656 382.326L624.933 384.008C624.625 383.517 624.218 383.146 623.714 382.894C623.224 382.628 622.705 382.494 622.159 382.494C621.767 382.494 621.43 382.536 621.15 382.621C620.87 382.705 620.66 382.824 620.52 382.978C620.38 383.118 620.31 383.3 620.31 383.524C620.31 383.748 620.408 383.944 620.604 384.113C620.8 384.267 621.157 384.4 621.675 384.512L623.819 384.953C624.856 385.163 625.598 385.521 626.047 386.025C626.495 386.515 626.719 387.111 626.719 387.811C626.719 388.484 626.537 389.086 626.173 389.618C625.822 390.137 625.297 390.55 624.597 390.858C623.91 391.153 623.062 391.3 622.054 391.3ZM632.735 377.367V387.664C632.735 388.168 632.861 388.54 633.113 388.778C633.379 389.002 633.736 389.114 634.185 389.114C634.535 389.114 634.843 389.065 635.109 388.967C635.375 388.855 635.614 388.708 635.824 388.526L636.286 390.438C635.95 390.704 635.53 390.914 635.025 391.069C634.521 391.223 633.988 391.3 633.428 391.3C632.728 391.3 632.104 391.195 631.558 390.984C631.025 390.774 630.605 390.438 630.297 389.976C630.003 389.513 629.856 388.897 629.856 388.126V378.165L632.735 377.367ZM636.097 380.582V382.726H627.922V380.582H636.097ZM642.731 377.01C643.726 377.01 644.608 377.157 645.379 377.451C646.15 377.745 646.752 378.179 647.186 378.754C647.621 379.314 647.838 380.008 647.838 380.834C647.838 381.675 647.656 382.368 647.291 382.915C646.941 383.447 646.465 383.853 645.862 384.134C645.26 384.4 644.594 384.575 643.866 384.659L643.719 386.634H641.092L641.113 383.461C642.052 383.349 642.78 383.202 643.299 383.02C643.831 382.824 644.202 382.578 644.412 382.284C644.636 381.99 644.749 381.64 644.749 381.234C644.749 380.841 644.665 380.512 644.496 380.246C644.342 379.98 644.104 379.777 643.782 379.636C643.46 379.496 643.046 379.426 642.542 379.426C641.813 379.426 641.232 379.636 640.798 380.057C640.363 380.463 640.097 381.044 639.999 381.801L637.267 380.75C637.435 380.022 637.744 379.377 638.192 378.817C638.64 378.242 639.236 377.801 639.978 377.493C640.735 377.171 641.652 377.01 642.731 377.01ZM642.437 388.042C642.983 388.042 643.418 388.189 643.74 388.484C644.062 388.778 644.223 389.17 644.223 389.661C644.223 390.165 644.062 390.564 643.74 390.858C643.418 391.139 642.983 391.279 642.437 391.279C641.891 391.279 641.456 391.139 641.134 390.858C640.812 390.564 640.651 390.165 640.651 389.661C640.651 389.17 640.812 388.778 641.134 388.484C641.456 388.189 641.891 388.042 642.437 388.042Z" fill="black"/>
<path d="M400.235 183.107C397.755 183.107 397.071 179.131 398.188 177.376C399.238 175.726 400.606 176.062 402.512 176.455C405.106 176.989 405.899 179.022 405.736 175.841C405.594 173.064 404.765 170.742 406.325 168.267C407.653 166.16 409.707 164.049 412.209 163.406C414.886 162.718 416.502 165.889 417.736 167.602C418.153 168.182 418.549 166.482 418.657 166.22C419.334 164.581 420.192 163.047 421.318 161.666C424.275 158.041 433.93 159.966 434.751 164.481C435.762 170.041 438.115 163.094 441.94 163.79C444.942 164.335 448.239 166.339 449.437 169.214C450.356 171.418 449.507 173.701 450 175.918C450.114 176.429 454.967 175.79 455.296 175.79C457.783 175.79 460.228 175.878 462.333 177.325C463.565 178.172 463.239 180.246 462.87 181.444C462.328 183.204 457.336 187.147 456.064 184.949C453.137 179.893 454.09 189.326 452.635 190.834C450.864 192.671 445.689 192.452 443.373 192.293C442.175 192.21 440.9 190.086 440.712 190.297C438.6 192.673 434.416 193.923 431.348 194.135C429.463 194.265 423.99 193.351 423.032 191.627C422.619 190.884 420.971 193.826 420.039 194.519C417.422 196.463 414.44 193.989 412.772 192.062C410.748 189.723 409.035 190.884 406.325 191.755C404.928 192.204 400.614 191.407 399.877 190.015C399.752 189.779 400.235 189.299 400.235 189.299C400.235 189.299 399.81 189.734 399.775 190.015C399.621 191.243 398.42 189.123 398.393 188.634C398.296 186.899 400.235 186.149 400.235 184.489" stroke="black" stroke-linecap="round"/>
<path d="M577.378 267.071C573.774 266.426 569.217 265.123 565.47 265.606C563.588 265.849 560.678 266.273 559.086 267.364C558.34 267.876 557.818 268.1 558.584 268.976C561.25 272.023 564.955 272.075 568.777 272.534C575.494 273.34 582.422 274.545 589.183 274.606C592.457 274.635 595.768 274.724 599.04 274.585C600.423 274.526 602.584 274.517 603.54 273.287C604.466 272.096 594.297 270.007 592.803 269.708C590.685 269.285 588.671 268.748 586.587 268.285C584.74 267.874 582.107 267.071 580.204 267.071C579.007 267.071 577.162 266.462 576.248 267.071" stroke="black" stroke-linecap="round"/>
<path d="M557.789 269.332C557.439 266.886 556.614 274.187 556.659 276.657C556.73 280.602 557.412 284.516 557.412 288.503C557.412 291.251 557.412 294 557.412 296.749C557.412 300.034 556.514 303.731 557.056 306.983C557.198 307.837 564.873 308.454 566.077 308.511C568.937 308.647 571.745 309.42 574.553 310.018C581.046 311.399 587.645 312.278 594.331 312.278C597.302 312.278 597.298 312.683 598.308 310.374C599.327 308.043 599.455 305.337 600.359 302.944C602.178 298.128 604.126 293.819 604.126 288.545C604.126 287.129 604.503 285.816 604.503 284.401C604.503 282.976 604.126 281.674 604.126 280.257C604.126 277.99 603.749 276.032 603.749 273.852" stroke="black" stroke-linecap="round"/>
<path d="M556.659 281.01C557.64 280.887 559.005 279.296 559.84 278.75C560.928 278.038 561.961 277.442 563.042 276.699C564.904 275.419 566.913 274.3 568.714 273.099" stroke="black" stroke-linecap="round"/>
<path d="M557.789 295.702C558.834 295.572 560.936 293.314 561.891 292.73C563.836 291.541 565.75 290.2 567.584 288.838C570.657 286.555 573.668 284.129 576.813 281.952C578.813 280.568 580.423 279.037 582.82 278.352C584.129 277.978 585.23 276.331 586.42 275.736" stroke="black" stroke-linecap="round"/>
<path d="M558.165 307.004C559.288 306.879 560.717 305.932 561.723 305.539C564.24 304.556 566.61 303.412 569.049 302.274C573.043 300.41 576.957 298.227 580.706 295.912C584.602 293.505 588.007 289.733 592.259 288C594.711 287.001 597.295 285.413 599.145 283.563C599.995 282.713 601.342 282.056 601.866 281.01" stroke="black" stroke-linecap="round"/>
<path d="M575.872 311.148C576.321 311.092 577.027 310.202 577.462 309.934C579.797 308.501 582.184 307.503 584.704 306.439C587.519 305.25 590.105 303.437 592.824 302.023C596.337 300.196 599.014 297.101 602.242 294.949" stroke="black" stroke-linecap="round"/>
<path d="M556.282 294.195C556.4 295.255 558.662 295.944 559.421 296.602C560.247 297.318 560.92 298.213 561.765 298.905C563.04 299.947 564.152 300.726 565.323 301.897C567.732 304.306 570.287 307.791 573.235 309.264" stroke="black" stroke-linecap="round"/>
<path d="M557.043 285.148C557.356 285.233 557.54 285.532 557.743 285.764C558.163 286.243 558.693 286.623 559.186 287.021C559.977 287.659 560.797 288.331 561.633 288.911C563.443 290.169 565.041 291.413 566.628 292.978C568.798 295.117 571.047 297.067 573.615 298.716C575.914 300.192 578.239 301.948 580.315 303.745C582.108 305.298 584.089 306.481 585.934 307.931C586.725 308.552 587.621 309.05 588.365 309.719C588.716 310.036 589.182 310.242 589.58 310.513C590.009 310.805 590.313 311.352 590.761 311.576" stroke="black" stroke-linecap="round"/>
<path d="M556.435 274.516C557.84 275.765 559.396 277.116 560.891 278.263C563.497 280.261 565.328 282.964 567.827 285.072C570.148 287.031 571.959 289.428 574.712 290.835C576.488 291.743 578.075 292.957 579.834 293.873C582.002 295.002 584.211 296.057 586.373 297.197C588.598 298.37 590.361 300.224 592.491 301.535C593.595 302.214 594.65 303.092 595.739 303.83C596.181 304.129 596.667 304.356 596.997 304.741C597.216 304.997 597.545 305.323 597.824 305.509C598.313 305.835 598.611 306.464 599.115 306.715" stroke="black" stroke-linecap="round"/>
<path d="M557.802 268.896C558.811 269.905 560.019 270.747 561.11 271.664C562.092 272.49 562.884 273.304 563.962 274.027C565.686 275.182 567.637 275.961 569.379 277.115C570.863 278.098 572.338 279.095 573.817 280.085C576.512 281.888 578.992 283.989 581.715 285.772C584.445 287.56 587.541 288.539 590.44 289.958C592.226 290.831 593.937 291.82 595.689 292.742C596.867 293.362 598.248 293.947 599.351 294.683C600.091 295.177 600.878 295.636 601.511 296.269C601.795 296.553 602.124 297.133 602.456 297.299" stroke="black" stroke-linecap="round"/>
<path d="M578.762 274.061C578.97 274.087 579.149 274.447 579.285 274.584C580.131 275.43 581.062 276.038 582.061 276.676C583.575 277.642 585.043 278.704 586.525 279.714C589.266 281.583 591.825 283.766 594.204 286.093C595.819 287.674 597.568 289.234 599.57 290.312C600.518 290.823 601.705 291.321 602.532 291.983C602.737 292.147 602.985 292.355 603.063 292.59" stroke="black" stroke-linecap="round"/>
<path d="M589.698 274.82C589.854 274.836 589.987 274.886 590.12 274.972C591.094 275.596 592.055 276.232 593.048 276.828C593.863 277.317 594.721 277.8 595.427 278.398C596.765 279.53 598.336 280.367 599.638 281.579C600.058 281.971 600.476 282.365 600.895 282.752C601.906 283.684 603.364 285.141 603.975 286.363" stroke="black" stroke-linecap="round"/>
<path d="M611.468 304.341C610.449 304.341 609.388 304.123 608.414 304.123C607.938 304.123 607.011 305.526 606.669 305.868C605.866 306.671 605.404 307.128 606.657 306.971C607.662 306.845 606.623 308.732 606.5 309.189C606.305 309.913 607.6 311.679 608.196 312.024C609.395 312.718 611.305 311.75 612.389 311.237C613.12 310.89 612.777 312.836 612.777 313.297C612.777 314.76 613.509 313.443 614.57 313.333C615.735 313.212 616.381 313.592 617.212 314.351C617.486 314.601 617.935 314.871 618.327 314.763C620.573 314.145 625.197 308.475 623.55 310.122C622.702 310.97 621.811 311.019 621.623 309.782C621.398 308.304 622.088 304.695 619.902 305.093C618.864 305.281 617.469 305.698 616.412 305.383C615.629 305.15 615.68 302.893 615.443 302.257C615.164 301.511 614.772 302.551 614.522 302.717C614.448 302.767 614.521 302.539 614.51 302.451C614.457 302.059 614.331 301.652 614.086 301.336C613.562 300.663 612.122 303.305 612.122 303.905" stroke="black" stroke-linecap="round"/>
<path d="M617.794 301.724C618.089 301.687 618.425 301.208 618.606 301.021C619.31 300.29 620.162 299.411 621.187 299.155C621.966 298.96 622.745 301.172 622.992 301.687C623.63 303.015 623.45 303.582 624.604 302.572C626.245 301.136 627.098 300.824 627.488 303.057C627.53 303.294 627.5 305.082 627.828 304.947C628.686 304.594 629.494 304.246 630.445 304.172C633.207 303.957 632.466 306.686 631.148 308.098C630.521 308.769 626.083 311.309 626.083 309.904C626.083 309.318 626.513 307.204 625.489 307.747C624.782 308.12 623.622 308.922 622.811 308.922C622.439 308.922 622.593 307.65 622.593 307.395" stroke="black" stroke-linecap="round"/>
<path d="M563.84 366.87C561.362 364.145 559.797 360.692 557.775 357.659C557.324 356.983 557.005 356.213 556.614 355.5C556.498 355.288 555.855 354.527 555.855 354.274C555.855 354.022 558.487 353.764 558.762 353.699C559.68 353.483 560.613 353.205 561.54 353.048C562.156 352.944 563.33 352.455 563.926 352.625C564.555 352.805 563.84 359.108 563.84 360.231C563.84 362.118 563.84 364.006 563.84 365.894" stroke="black" stroke-linecap="round"/>
<path d="M571.261 364.722C571.261 361.462 571.261 358.214 571.261 354.958C571.261 354.075 571.261 353.193 571.261 352.311C571.261 351.194 571.375 351.229 572.487 351.345C574.32 351.536 575.884 351.949 577.618 352.267C578.769 352.479 577.054 355.131 576.826 355.815C576.121 357.93 574.875 359.553 573.604 361.359C573.201 361.932 572.626 362.676 572.432 363.355C572.233 364.053 571.456 364.535 571.456 365.308" stroke="black" stroke-linecap="round"/>
<path d="M581.065 364.487C581.268 364.437 581.268 363.452 581.284 363.308C581.365 362.549 581.648 361.776 581.873 361.048C582.16 360.121 582.613 359.228 582.714 358.253C582.798 357.439 582.999 356.701 583.183 355.906C583.312 355.351 583.371 354.51 583.642 354.017C583.78 353.766 585.43 354.586 585.574 354.65C586.269 354.959 586.876 355.511 587.594 355.742C588.022 355.88 588.469 355.95 588.899 356.086C589.63 356.318 589.155 356.476 588.735 356.774C587.579 357.596 586.855 358.649 585.831 359.618C585.182 360.232 584.642 360.911 584.013 361.54C583.41 362.143 582.852 362.81 582.25 363.412C581.899 363.763 581.422 364.204 581.262 364.684" stroke="black" stroke-linecap="round"/>
</svg>
