<svg width="719" height="569" viewBox="0 0 719 569" fill="none" xmlns="http://www.w3.org/2000/svg">
<rect width="719" height="569" fill="#F7F7F8"/>
<path d="M476.997 365.628C476.723 367.818 457.886 365.392 454.752 364.395C450.171 362.937 445.674 361.644 441.136 359.912C439.11 359.139 436.784 357.859 434.609 357.587C432.364 357.306 429.368 359.094 427.241 359.688C421.185 361.381 415.223 362.634 408.946 363.358C399.518 364.446 389.196 364.878 379.697 364.087C371.047 363.366 362.144 362.748 353.558 361.481C342.845 359.901 331.929 359.31 321.228 357.559C310.086 355.736 299.114 354.226 288.113 351.508C281.014 349.754 275.913 346.279 271.247 340.806C263.238 331.41 260.045 318.868 256.343 307.326C251.353 291.769 253 284.374 253 268C253 261.981 259.284 245.339 264 241.853C272.361 235.673 274.856 235.445 284.751 232.103C289.407 230.531 293.841 228.293 298.507 226.696C305.096 224.442 311.734 222.667 318.426 220.785C326.849 218.416 335.196 214.935 343.977 213.949C364.903 211.6 386.475 211.82 407.573 211.82C418.113 211.82 429.202 211.968 439.624 213.585C443.781 214.23 448.491 214.353 452.399 215.966C456.452 217.639 460.555 219.126 464.586 220.869C470.352 223.363 475.457 226.918 481.143 229.47C486.952 232.076 490.51 236.64 493.919 241.853C500.429 251.81 499.656 263.794 497.785 275.024C496.962 279.958 496.939 285.005 495.908 289.957C494.925 294.674 493.556 299.234 491.621 303.656C489.364 308.816 487.865 314.322 485.57 319.485C483.624 323.863 479.063 326.112 475.988 329.571C473.329 332.563 470.003 335.929 468.536 339.797C467.552 342.393 468.498 344.447 469.825 346.969C471.718 350.566 475.004 353.293 476.885 357.055C478.203 359.692 481.031 362.599 481.031 365.628" stroke="#F3F3B1" stroke-width="10" stroke-linecap="round"/>
<path d="M382.38 213.904C360.933 213.904 341.094 214.746 319.907 218.005C304.364 220.396 290.98 222.932 278.746 232.507C269.474 239.763 262.664 246.914 257.14 257.408C251.933 267.301 253.422 282.918 254.577 293.882C257.369 320.407 269.293 340.841 294.712 351.009C311.574 357.754 332.401 365.205 350.741 365.511C375.425 365.922 400.832 363.667 424.567 357.894C430.43 356.467 439.782 353.903 445.367 355.257C449.591 356.281 452.508 360.643 457.525 361.556C460.4 362.078 477.2 366.487 477.299 363.899C477.429 360.531 474.72 356.082 473.344 352.987C470.186 345.881 466.316 342.704 471.001 334.896C475.557 327.302 485.018 321.938 489.164 314.682C500.606 294.659 499.849 271.924 494.144 250.817C490.162 236.081 484.676 230.545 470.122 225.183C457.62 220.577 443.874 218.366 430.719 215.808C420.474 213.816 408.805 211.267 398.493 211.267C391.778 211.267 380.245 207.22 375.789 213.904" stroke="black" stroke-linecap="round"/>
<path d="M307.236 319.369C307.236 304.779 308.554 290.445 308.554 275.865C308.554 271.895 306.136 261.024 310.678 267.662C311.724 269.191 324.172 290.105 325.4 288.755C328.836 284.975 330.848 278.312 333.749 273.961C335.867 270.783 338.87 268.373 340.194 264.732C341.683 260.637 341.512 267.508 341.512 268.248C341.512 273.961 341.512 279.673 341.512 285.386C341.512 295.835 341.512 306.284 341.512 316.733" stroke="black" stroke-linecap="round"/>
<path d="M353.377 266.637C353.377 272.08 355.715 278.051 357.332 283.189C358.62 287.279 357.81 291.38 358.944 295.347C360.363 300.315 362.348 306.306 362.606 311.46C362.772 314.787 363.624 315.586 364.656 311.899C368.647 297.645 378.425 282.73 378.425 267.955" stroke="black" stroke-linecap="round"/>
<path d="M391.609 265.318C391.609 274.683 394.245 283.646 394.245 292.93C394.245 301.157 392.927 308.972 392.927 317.099C392.927 324.899 394.022 301.532 394.245 293.735C394.419 287.634 395.563 281.573 395.563 275.865C395.563 269.866 399.799 266.03 406.183 265.392C415.593 264.451 416.657 273.434 416.657 280.992C416.657 297.64 402.708 286.411 394.245 286.411" stroke="black" stroke-linecap="round"/>
<circle cx="208.84" cy="236.5" r="31" stroke="black"/>
<circle cx="208.84" cy="236.5" r="26" stroke="black"/>
<path d="M551.098 233.485C550.644 230.31 533.105 244.743 531.91 248.327C530.391 252.883 528.959 259.892 531.254 264.482C532.791 267.556 546.922 275.497 545.932 276.29C541.211 280.067 542.242 293.529 542.242 299.168C542.242 306.408 543.248 306.29 548.31 305.728C549.35 305.612 561.105 304.526 561.348 303.432C562.857 296.644 558.252 284.321 562.578 278.914C564.361 276.685 564.228 274.055 566.842 271.534C571.842 266.713 575.995 263.444 578.814 257.102C581.145 251.856 574.857 244.616 571.434 241.193C565.824 235.583 555.64 234.961 548.146 234.961" stroke="black" stroke-linecap="round"/>
<path d="M547.472 256.255C547.636 254.944 554.942 254.917 556.322 254.87C559.476 254.761 555.174 258.058 554.09 258.987C551.92 260.848 554.969 261.796 556.322 261.796C559.835 261.796 556.476 261.912 556.476 264.22C556.476 265.949 557.41 266.268 556.437 268.376C555.643 270.097 553.579 271.039 552.128 272.109C550.672 273.181 552.255 272.472 552.32 273.571C552.41 275.093 553.594 276.032 552.628 277.688C551.963 278.828 548.358 283.268 551.627 283.268" stroke="black" stroke-linecap="round"/>
<path d="M526 215.39C526.761 219.192 532.588 221.64 534.312 225.086" stroke="black" stroke-linecap="round"/>
<path d="M550.935 205C553.967 208.412 550.771 220.156 553.705 221.623" stroke="black" stroke-linecap="round"/>
<path d="M586.952 214.004C586.69 216.099 583.014 219.542 581.719 221.161C579.642 223.757 577.616 226.08 576.562 229.242" stroke="black" stroke-linecap="round"/>
<path d="M182.816 254.686C182.038 255.464 181.21 256.101 180.222 256.609C178.286 257.604 176.734 259.23 174.835 260.18C171.481 261.857 168.892 265.143 166.015 267.489C162.471 270.381 158.453 272.736 154.799 275.501C151.188 278.233 147.174 280.439 143.476 283.039C140.337 285.247 137.623 287.984 134.503 290.227C134.151 290.48 132 291.354 132 291.768C132 292.83 132.24 294.234 132.687 295.217C133.649 297.335 133.739 298.727 135.693 300.421C137.51 301.995 139.28 304.252 141.477 305.228C143.838 306.277 144.534 305.963 146.619 304.739C149.216 303.215 151.144 301.03 153.547 299.276C156.74 296.947 160.045 294.85 163.131 292.348C164.819 290.98 166.578 289.561 168.136 288.045C169.504 286.714 171.201 285.691 172.394 284.199C174.416 281.671 176.918 279.399 178.483 276.539C179.87 274.002 182.173 272.156 183.702 269.733C184.893 267.842 186.561 266.197 187.761 264.361C188.259 263.599 188.935 262.876 189.684 262.377" stroke="black" stroke-linecap="round"/>
</svg>
