<svg width="719" height="569" viewBox="0 0 719 569" fill="none" xmlns="http://www.w3.org/2000/svg">
<rect width="719" height="569" fill="#F7F7F8"/>
<path d="M314.399 456.535C317.433 454.329 323.614 456.535 327.335 456.535C332.438 456.535 337.465 456.406 342.527 457.143C348.307 457.983 354.613 457.711 360.454 458.054C366.202 458.392 371.92 459.66 377.686 459.66C383.763 459.66 389.84 459.66 395.917 459.66C407.275 459.66 373.061 459.365 361.886 461.396C350.368 463.491 337.554 462.785 325.859 462.785C323.734 462.785 322.21 463.065 320.303 463.61C317.186 464.501 326.785 463.567 330.026 463.567C340.333 463.567 350.964 461.746 361.279 462.959C366.154 463.533 370.794 463.359 375.69 463.61C379.768 463.819 385.652 463.496 389.406 464.956C390.874 465.527 394.334 463.567 396.047 463.567C401.169 463.567 394.549 461.887 392.531 461.396C388.44 460.401 384.185 460.442 379.987 460.442C373.434 460.442 367.136 459.075 360.671 458.879C349.735 458.547 338.875 458.098 327.942 458.098C325.051 458.098 321.522 458.068 318.74 457.273C317.435 456.9 320.482 455.83 320.65 455.754C323.061 454.651 325.697 454.972 328.29 454.972C351.206 454.972 374.282 454.972 397.219 454.972" stroke="#F3F3B1" stroke-width="10" stroke-linecap="round"/>
<rect x="299.5" y="98.5" width="120" height="37" fill="#F7F7F8" stroke="black"/>
<path d="M440.192 283.082C458.316 283.082 476.674 282.301 494.884 282.301C501.685 282.301 508.485 282.301 515.285 282.301C516.252 282.301 521.726 282.029 518.02 282.691C510.299 284.07 501.841 283.803 494.016 283.863C486.841 283.919 479.662 283.863 472.486 283.863C466.698 283.863 460.266 283.015 454.603 284.471C450.938 285.413 446.636 286.989 453.561 286.989C463.6 286.989 473.658 286.816 483.685 287.379C486.863 287.558 490.491 288.283 493.669 287.596C498.026 286.654 502.599 286.989 507.038 286.989C509.18 286.989 511.321 286.989 513.462 286.989C516.685 286.989 506.412 286.993 505.736 286.989C490.922 286.886 476.085 285.193 461.288 284.645C455.514 284.431 447.693 285.141 442.536 287.596C439.038 289.262 443.29 288.771 445.705 288.985C451.685 289.515 457.625 290.114 463.631 290.114C469.303 290.114 474.975 290.114 480.647 290.114C485.653 290.114 490.659 290.114 495.666 290.114C502.506 290.114 509.16 291.676 515.98 291.676" stroke="#F3F3B1" stroke-width="10" stroke-linecap="round"/>
<path d="M203.452 284.645C210.722 284.645 217.927 284.522 225.155 285.426C232.237 286.311 239.269 285.738 246.338 286.381C255.785 287.24 284.174 287.528 274.726 288.378C257.648 289.913 240.445 285.759 223.419 286.207C217.473 286.364 213.622 288.551 207.706 288.551C206.711 288.551 202.341 288.529 202.584 288.464C207.289 287.21 211.785 286.989 216.648 286.989C222.254 286.989 228.877 288.455 234.01 286.989C239.413 285.445 246.54 283.863 252.241 283.863C255.423 283.863 259.268 284.506 262.355 283.82C262.892 283.701 265.655 283.07 265.958 282.691C267.599 280.64 273.536 281.519 276.115 281.519" stroke="#F3F3B1" stroke-width="10" stroke-linecap="round"/>
<line x1="359.5" y1="136" x2="359.5" y2="441" stroke="black"/>
<line x1="420" y1="285.5" x2="299" y2="285.5" stroke="black"/>
<line x1="178" y1="285.5" x2="133" y2="285.5" stroke="black"/>
<line x1="586" y1="285.5" x2="541" y2="285.5" stroke="black"/>
<rect x="299.5" y="441.5" width="120" height="37" stroke="black"/>
<rect x="178.5" y="266.5" width="120" height="37" stroke="black"/>
<rect x="420.5" y="266.5" width="120" height="37" stroke="black"/>
<path d="M323.568 465.224H329.136V467H321.36V456.44H323.568V465.224ZM334.253 458.84C335.064 458.84 335.773 459.005 336.381 459.336C337 459.667 337.48 460.141 337.821 460.76C338.173 461.379 338.349 462.125 338.349 463C338.349 463.864 338.173 464.611 337.821 465.24C337.48 465.859 337 466.333 336.381 466.664C335.773 466.995 335.064 467.16 334.253 467.16C333.453 467.16 332.744 466.995 332.125 466.664C331.506 466.333 331.021 465.859 330.669 465.24C330.328 464.611 330.157 463.864 330.157 463C330.157 462.125 330.328 461.379 330.669 460.76C331.021 460.141 331.506 459.667 332.125 459.336C332.744 459.005 333.453 458.84 334.253 458.84ZM334.253 460.472C333.848 460.472 333.501 460.568 333.213 460.76C332.936 460.941 332.722 461.219 332.573 461.592C332.424 461.965 332.349 462.435 332.349 463C332.349 463.565 332.424 464.035 332.573 464.408C332.722 464.781 332.936 465.064 333.213 465.256C333.501 465.437 333.848 465.528 334.253 465.528C334.648 465.528 334.984 465.437 335.261 465.256C335.549 465.064 335.768 464.781 335.917 464.408C336.066 464.035 336.141 463.565 336.141 463C336.141 462.435 336.066 461.965 335.917 461.592C335.768 461.219 335.549 460.941 335.261 460.76C334.984 460.568 334.648 460.472 334.253 460.472ZM350.285 459H352.621L350.061 467H347.533L345.789 461.56L344.109 467H341.581L339.021 459H341.357L342.957 465.128L344.733 459H346.909L348.701 465.128L350.285 459ZM363.4 459H365.672L362.632 467H360.104L357.064 459H359.4L361.384 465.32L363.4 459ZM371.275 461.896C371.275 461.437 371.141 461.08 370.875 460.824C370.619 460.568 370.277 460.44 369.851 460.44C369.456 460.44 369.109 460.541 368.811 460.744C368.512 460.947 368.293 461.283 368.155 461.752L366.283 461.176C366.464 460.472 366.859 459.907 367.467 459.48C368.085 459.053 368.912 458.84 369.947 458.84C370.651 458.84 371.264 458.952 371.787 459.176C372.309 459.389 372.715 459.715 373.003 460.152C373.301 460.589 373.451 461.139 373.451 461.8V465.048C373.451 465.453 373.643 465.656 374.027 465.656C374.208 465.656 374.379 465.629 374.539 465.576L374.411 466.936C374.133 467.075 373.787 467.144 373.371 467.144C372.997 467.144 372.661 467.08 372.363 466.952C372.064 466.824 371.829 466.632 371.659 466.376C371.488 466.109 371.403 465.779 371.403 465.384V465.32L371.787 465.256C371.723 465.661 371.547 466.008 371.259 466.296C370.971 466.573 370.619 466.787 370.203 466.936C369.797 467.085 369.376 467.16 368.939 467.16C368.395 467.16 367.925 467.08 367.531 466.92C367.136 466.749 366.832 466.504 366.618 466.184C366.405 465.864 366.299 465.469 366.299 465C366.299 464.403 366.491 463.917 366.875 463.544C367.259 463.16 367.808 462.899 368.523 462.76L371.531 462.152L371.515 463.512L369.595 463.896C369.232 463.971 368.955 464.072 368.763 464.2C368.581 464.317 368.491 464.515 368.491 464.792C368.491 465.059 368.587 465.261 368.779 465.4C368.981 465.539 369.221 465.608 369.499 465.608C369.723 465.608 369.941 465.581 370.155 465.528C370.368 465.475 370.56 465.389 370.731 465.272C370.901 465.155 371.035 464.995 371.131 464.792C371.227 464.589 371.275 464.344 371.275 464.056V461.896ZM378.062 455.496V464.536C378.062 464.909 378.126 465.171 378.254 465.32C378.382 465.469 378.595 465.544 378.894 465.544C379.075 465.544 379.225 465.533 379.342 465.512C379.459 465.48 379.609 465.437 379.79 465.384L379.598 466.824C379.417 466.931 379.187 467.011 378.91 467.064C378.643 467.128 378.377 467.16 378.11 467.16C377.331 467.16 376.761 466.973 376.398 466.6C376.046 466.216 375.87 465.608 375.87 464.776V455.496H378.062ZM383.795 467.16C383.262 467.16 382.782 467.064 382.355 466.872C381.929 466.68 381.587 466.376 381.331 465.96C381.086 465.533 380.963 464.984 380.963 464.312V459H383.155V463.784C383.155 464.403 383.283 464.835 383.539 465.08C383.795 465.315 384.163 465.432 384.643 465.432C384.867 465.432 385.086 465.395 385.299 465.32C385.513 465.235 385.699 465.107 385.859 464.936C386.03 464.765 386.163 464.547 386.259 464.28C386.355 464.003 386.403 463.677 386.403 463.304V459H388.595V467H386.643L386.563 465.608C386.297 466.141 385.929 466.536 385.459 466.792C385.001 467.037 384.446 467.16 383.795 467.16ZM394.614 467.16C393.771 467.16 393.035 466.995 392.406 466.664C391.787 466.333 391.307 465.859 390.966 465.24C390.625 464.621 390.454 463.875 390.454 463C390.454 462.125 390.625 461.379 390.966 460.76C391.307 460.141 391.782 459.667 392.39 459.336C393.009 459.005 393.713 458.84 394.502 458.84C395.313 458.84 396.001 459.005 396.566 459.336C397.131 459.656 397.563 460.099 397.862 460.664C398.161 461.219 398.31 461.853 398.31 462.568C398.31 462.781 398.305 462.984 398.294 463.176C398.283 463.368 398.267 463.539 398.246 463.688H391.862V462.168H397.286L396.23 462.552C396.23 461.88 396.075 461.363 395.766 461C395.467 460.637 395.041 460.456 394.486 460.456C394.081 460.456 393.729 460.552 393.43 460.744C393.142 460.936 392.923 461.224 392.774 461.608C392.625 461.981 392.55 462.456 392.55 463.032C392.55 463.597 392.63 464.067 392.79 464.44C392.961 464.803 393.195 465.075 393.494 465.256C393.803 465.437 394.171 465.528 394.598 465.528C395.067 465.528 395.446 465.437 395.734 465.256C396.022 465.075 396.246 464.824 396.406 464.504L398.15 465.176C397.979 465.592 397.718 465.949 397.366 466.248C397.025 466.547 396.614 466.776 396.134 466.936C395.665 467.085 395.158 467.16 394.614 467.16Z" fill="black"/>
<path d="M208.693 290.224H214.261V292H206.485V281.44H208.693V290.224ZM219.378 283.84C220.189 283.84 220.898 284.005 221.506 284.336C222.125 284.667 222.605 285.141 222.946 285.76C223.298 286.379 223.474 287.125 223.474 288C223.474 288.864 223.298 289.611 222.946 290.24C222.605 290.859 222.125 291.333 221.506 291.664C220.898 291.995 220.189 292.16 219.378 292.16C218.578 292.16 217.869 291.995 217.25 291.664C216.631 291.333 216.146 290.859 215.794 290.24C215.453 289.611 215.282 288.864 215.282 288C215.282 287.125 215.453 286.379 215.794 285.76C216.146 285.141 216.631 284.667 217.25 284.336C217.869 284.005 218.578 283.84 219.378 283.84ZM219.378 285.472C218.973 285.472 218.626 285.568 218.338 285.76C218.061 285.941 217.847 286.219 217.698 286.592C217.549 286.965 217.474 287.435 217.474 288C217.474 288.565 217.549 289.035 217.698 289.408C217.847 289.781 218.061 290.064 218.338 290.256C218.626 290.437 218.973 290.528 219.378 290.528C219.773 290.528 220.109 290.437 220.386 290.256C220.674 290.064 220.893 289.781 221.042 289.408C221.191 289.035 221.266 288.565 221.266 288C221.266 287.435 221.191 286.965 221.042 286.592C220.893 286.219 220.674 285.941 220.386 285.76C220.109 285.568 219.773 285.472 219.378 285.472ZM235.41 284H237.746L235.186 292H232.658L230.914 286.56L229.234 292H226.706L224.146 284H226.482L228.082 290.128L229.858 284H232.034L233.826 290.128L235.41 284ZM243.652 292V284H245.556L245.7 285.568C245.913 285.013 246.223 284.587 246.628 284.288C247.044 283.989 247.561 283.84 248.18 283.84C248.361 283.84 248.527 283.856 248.676 283.888C248.825 283.92 248.948 283.963 249.044 284.016L248.788 285.856C248.681 285.813 248.548 285.781 248.388 285.76C248.239 285.739 248.041 285.728 247.796 285.728C247.476 285.728 247.167 285.808 246.868 285.968C246.569 286.117 246.324 286.352 246.132 286.672C245.94 286.981 245.844 287.376 245.844 287.856V292H243.652ZM251.506 282.848C251.047 282.848 250.706 282.752 250.482 282.56C250.258 282.357 250.146 282.064 250.146 281.68C250.146 281.285 250.258 280.992 250.482 280.8C250.706 280.597 251.047 280.496 251.506 280.496C251.965 280.496 252.306 280.597 252.53 280.8C252.754 280.992 252.866 281.285 252.866 281.68C252.866 282.064 252.754 282.357 252.53 282.56C252.306 282.752 251.965 282.848 251.506 282.848ZM252.594 284V292H250.402V284H252.594ZM258.118 292.16C257.307 292.16 256.566 292.016 255.894 291.728C255.232 291.44 254.694 291.035 254.278 290.512L255.542 289.232C255.798 289.616 256.139 289.931 256.566 290.176C256.992 290.421 257.499 290.544 258.086 290.544C258.502 290.544 258.832 290.485 259.078 290.368C259.334 290.24 259.462 290.043 259.462 289.776C259.462 289.605 259.403 289.461 259.286 289.344C259.168 289.216 258.934 289.115 258.582 289.04L257.174 288.752C256.246 288.56 255.584 288.272 255.19 287.888C254.806 287.493 254.614 286.987 254.614 286.368C254.614 285.931 254.742 285.52 254.998 285.136C255.264 284.752 255.659 284.443 256.182 284.208C256.704 283.963 257.355 283.84 258.134 283.84C258.934 283.84 259.627 283.968 260.214 284.224C260.811 284.469 261.28 284.837 261.622 285.328L260.31 286.608C260.075 286.235 259.766 285.952 259.382 285.76C259.008 285.557 258.614 285.456 258.198 285.456C257.899 285.456 257.643 285.488 257.43 285.552C257.216 285.616 257.056 285.707 256.95 285.824C256.843 285.931 256.79 286.069 256.79 286.24C256.79 286.411 256.864 286.56 257.014 286.688C257.163 286.805 257.435 286.907 257.83 286.992L259.462 287.328C260.251 287.488 260.816 287.76 261.158 288.144C261.499 288.517 261.67 288.971 261.67 289.504C261.67 290.016 261.531 290.475 261.254 290.88C260.987 291.275 260.587 291.589 260.054 291.824C259.531 292.048 258.886 292.16 258.118 292.16ZM271.562 284L267.866 287.856L267.434 288.064L265.034 290.64L265.002 288.304L269.066 284H271.562ZM265.61 280.496V292H263.418V280.496H265.61ZM268.17 286.544L271.754 292H269.274L266.666 287.824L268.17 286.544Z" fill="black"/>
<path d="M456.292 281.44V292H454.084V281.44H456.292ZM449.428 281.44V292H447.22V281.44H449.428ZM455.236 285.776V287.552H448.324V285.776H455.236ZM459.928 282.848C459.469 282.848 459.128 282.752 458.904 282.56C458.68 282.357 458.568 282.064 458.568 281.68C458.568 281.285 458.68 280.992 458.904 280.8C459.128 280.597 459.469 280.496 459.928 280.496C460.387 280.496 460.728 280.597 460.952 280.8C461.176 280.992 461.288 281.285 461.288 281.68C461.288 282.064 461.176 282.357 460.952 282.56C460.728 282.752 460.387 282.848 459.928 282.848ZM461.016 284V292H458.824V284H461.016ZM470.716 282.096L470.972 283.664C470.929 283.664 470.881 283.664 470.828 283.664C470.785 283.653 470.737 283.648 470.684 283.648C470.193 283.648 469.825 283.76 469.58 283.984C469.334 284.197 469.212 284.496 469.212 284.88L468.316 284.512C468.316 284.085 468.401 283.691 468.572 283.328C468.742 282.955 468.993 282.656 469.324 282.432C469.665 282.208 470.07 282.096 470.54 282.096C470.561 282.096 470.588 282.096 470.62 282.096C470.652 282.096 470.684 282.096 470.716 282.096ZM468.092 290.496C468.956 290.496 469.622 290.683 470.092 291.056C470.561 291.429 470.796 291.952 470.796 292.624C470.796 293.232 470.62 293.744 470.267 294.16C469.916 294.587 469.42 294.907 468.78 295.12C468.15 295.333 467.42 295.44 466.588 295.44C465.212 295.44 464.204 295.248 463.564 294.864C462.934 294.48 462.62 293.979 462.62 293.36C462.62 292.923 462.785 292.555 463.116 292.256C463.457 291.957 464.017 291.792 464.796 291.76L464.716 292.016C464.161 291.92 463.734 291.739 463.436 291.472C463.148 291.195 463.004 290.816 463.004 290.336C463.004 289.845 463.19 289.445 463.564 289.136C463.948 288.816 464.465 288.629 465.116 288.576L466.076 289.024H465.852C465.393 289.056 465.068 289.152 464.876 289.312C464.694 289.461 464.604 289.632 464.604 289.824C464.604 290.048 464.689 290.219 464.86 290.336C465.041 290.443 465.297 290.496 465.628 290.496H468.092ZM466.604 293.936C467.158 293.936 467.612 293.888 467.964 293.792C468.326 293.696 468.593 293.573 468.764 293.424C468.945 293.275 469.036 293.109 469.036 292.928C469.036 292.725 468.956 292.56 468.796 292.432C468.636 292.315 468.348 292.256 467.932 292.256H465.228C464.972 292.256 464.758 292.32 464.588 292.448C464.428 292.576 464.348 292.752 464.348 292.976C464.348 293.275 464.545 293.509 464.94 293.68C465.345 293.851 465.9 293.936 466.604 293.936ZM466.62 283.84C467.366 283.84 468.012 283.952 468.556 284.176C469.11 284.389 469.532 284.699 469.82 285.104C470.118 285.509 470.267 285.995 470.267 286.56C470.267 287.115 470.118 287.595 469.82 288C469.532 288.405 469.11 288.72 468.556 288.944C468.012 289.157 467.366 289.264 466.62 289.264C465.436 289.264 464.529 289.024 463.9 288.544C463.281 288.053 462.972 287.392 462.972 286.56C462.972 285.995 463.116 285.509 463.404 285.104C463.702 284.699 464.124 284.389 464.668 284.176C465.212 283.952 465.862 283.84 466.62 283.84ZM466.62 285.216C466.193 285.216 465.841 285.333 465.564 285.568C465.286 285.803 465.148 286.128 465.148 286.544C465.148 286.96 465.286 287.291 465.564 287.536C465.841 287.771 466.193 287.888 466.62 287.888C467.046 287.888 467.393 287.771 467.66 287.536C467.937 287.291 468.076 286.96 468.076 286.544C468.076 286.128 467.937 285.803 467.66 285.568C467.393 285.333 467.046 285.216 466.62 285.216ZM472.121 292V280.496H474.313V285.36C474.569 284.848 474.921 284.469 475.369 284.224C475.817 283.968 476.323 283.84 476.889 283.84C477.443 283.84 477.934 283.947 478.361 284.16C478.798 284.373 479.139 284.699 479.385 285.136C479.641 285.563 479.769 286.101 479.769 286.752V292H477.577V287.392C477.577 286.699 477.443 286.224 477.177 285.968C476.91 285.701 476.569 285.568 476.153 285.568C475.843 285.568 475.545 285.643 475.257 285.792C474.979 285.931 474.75 286.165 474.569 286.496C474.398 286.816 474.313 287.243 474.313 287.776V292H472.121ZM486.918 292V284H488.822L488.966 285.568C489.179 285.013 489.488 284.587 489.894 284.288C490.31 283.989 490.827 283.84 491.446 283.84C491.627 283.84 491.792 283.856 491.942 283.888C492.091 283.92 492.214 283.963 492.31 284.016L492.054 285.856C491.947 285.813 491.814 285.781 491.654 285.76C491.504 285.739 491.307 285.728 491.062 285.728C490.742 285.728 490.432 285.808 490.134 285.968C489.835 286.117 489.59 286.352 489.398 286.672C489.206 286.981 489.11 287.376 489.11 287.856V292H486.918ZM494.772 282.848C494.313 282.848 493.972 282.752 493.748 282.56C493.524 282.357 493.412 282.064 493.412 281.68C493.412 281.285 493.524 280.992 493.748 280.8C493.972 280.597 494.313 280.496 494.772 280.496C495.23 280.496 495.572 280.597 495.796 280.8C496.02 280.992 496.132 281.285 496.132 281.68C496.132 282.064 496.02 282.357 495.796 282.56C495.572 282.752 495.23 282.848 494.772 282.848ZM495.86 284V292H493.668V284H495.86ZM501.383 292.16C500.573 292.16 499.831 292.016 499.159 291.728C498.498 291.44 497.959 291.035 497.543 290.512L498.807 289.232C499.063 289.616 499.405 289.931 499.831 290.176C500.258 290.421 500.765 290.544 501.351 290.544C501.767 290.544 502.098 290.485 502.343 290.368C502.599 290.24 502.727 290.043 502.727 289.776C502.727 289.605 502.669 289.461 502.551 289.344C502.434 289.216 502.199 289.115 501.847 289.04L500.439 288.752C499.511 288.56 498.85 288.272 498.455 287.888C498.071 287.493 497.879 286.987 497.879 286.368C497.879 285.931 498.007 285.52 498.263 285.136C498.53 284.752 498.925 284.443 499.447 284.208C499.97 283.963 500.621 283.84 501.399 283.84C502.199 283.84 502.893 283.968 503.479 284.224C504.077 284.469 504.546 284.837 504.887 285.328L503.575 286.608C503.341 286.235 503.031 285.952 502.647 285.76C502.274 285.557 501.879 285.456 501.463 285.456C501.165 285.456 500.909 285.488 500.695 285.552C500.482 285.616 500.322 285.707 500.215 285.824C500.109 285.931 500.055 286.069 500.055 286.24C500.055 286.411 500.13 286.56 500.279 286.688C500.429 286.805 500.701 286.907 501.095 286.992L502.727 287.328C503.517 287.488 504.082 287.76 504.423 288.144C504.765 288.517 504.935 288.971 504.935 289.504C504.935 290.016 504.797 290.475 504.519 290.88C504.253 291.275 503.853 291.589 503.319 291.824C502.797 292.048 502.151 292.16 501.383 292.16ZM514.827 284L511.131 287.856L510.699 288.064L508.299 290.64L508.267 288.304L512.331 284H514.827ZM508.875 280.496V292H506.683V280.496H508.875ZM511.435 286.544L515.019 292H512.539L509.931 287.824L511.435 286.544Z" fill="black"/>
<rect width="43" height="43" transform="translate(459 206)" fill="#F7F7F8"/>
<path d="M499.955 226.41C499.962 236.623 492.825 245.529 483.128 247.365C481.971 247.582 480.53 247.91 479.134 247.843C474.595 247.641 471.161 246.529 467.772 243.67C463.121 239.736 460.919 234.57 461.053 228.56C461.225 220.789 464.577 214.54 471.221 210.405C477.402 206.553 483.934 206.179 490.444 209.666C496.386 212.846 499.947 219.281 499.955 226.41ZM498.17 226.739C498.17 226.589 498.163 226.44 498.148 226.291C498.014 225.126 497.924 223.954 497.715 222.812C496.117 214.018 488.1 208.128 479.41 209.322C466.488 211.099 458.948 226.358 465.301 237.757C468.66 243.782 476.267 247.082 482.083 245.947C491.265 244.155 497.946 236.085 498.17 226.739Z" fill="black"/>
<path d="M470.78 234.032C476.036 237.832 485.188 238.653 489.705 233.054C489.764 232.98 489.824 232.92 489.802 232.905C489.585 232.487 488.906 231.972 489.436 231.516C489.981 231.046 490.414 231.636 490.772 231.994C491.295 232.517 491.825 233.047 492.258 233.644C492.437 233.898 492.855 234.308 492.437 234.667C492.079 235.018 491.75 234.838 491.325 234.517C491.153 234.391 490.966 234.226 490.847 234.129C490.265 234.667 489.749 235.189 489.19 235.667C485.897 238.482 482.03 239.109 477.902 238.459C475.02 238.004 472.363 236.929 470.041 235.1C469.974 235.047 469.743 234.801 469.638 234.794C469.429 234.779 469.377 234.921 469.101 235.018C468.906 235.085 468.794 235.286 468.406 234.876C468.085 234.547 468.309 234.204 468.458 234.084C469.242 233.457 470.071 232.883 470.922 232.345C471.079 232.248 471.437 232.166 471.616 232.479C471.81 232.815 471.631 232.995 471.512 233.181C471.333 233.457 471.056 233.681 470.773 233.958C470.765 233.987 470.765 234.017 470.78 234.032Z" fill="black"/>
<path d="M491.295 227.716C491.384 227.724 491.481 227.701 491.564 227.664C492.146 227.358 492.123 226.485 492.123 225.955C492.116 224.835 491.982 223.902 491.974 222.827C491.974 222.386 491.952 221.916 492.071 221.505C492.146 221.251 492.474 220.93 492.706 220.916C492.937 220.901 493.295 221.005 493.407 221.416C493.833 223.185 493.848 225.522 493.527 227.037C493.258 228.314 492.123 228.941 491.153 228.948C490.1 228.956 488.943 228.194 488.63 226.903C488.294 225.514 488.271 224.043 488.122 222.61C488.115 222.528 488.115 222.259 488.122 222.177C488.182 221.677 488.361 221.393 489.003 221.431C489.473 221.446 489.608 222.117 489.697 222.506C489.854 223.192 489.802 223.924 489.921 224.626C490.108 225.693 490.22 227.642 491.295 227.716Z" fill="black"/>
<path d="M471.153 222.976C471.198 222.67 471.146 222.23 471.766 222.133C472.311 222.05 472.557 222.603 472.579 222.864C472.706 224.335 472.848 225.82 472.729 227.284C472.617 228.642 471.4 229.784 470.302 229.919C469.041 230.076 467.645 229.307 467.227 227.858C466.839 226.522 466.674 224.925 466.682 223.678C466.682 223.469 466.749 223.073 467.13 223.013C467.615 222.909 467.727 223.342 467.794 223.573C468.078 224.506 468.22 225.477 468.511 226.41C468.682 226.963 468.959 227.522 469.324 227.955C469.922 228.657 470.706 228.523 470.944 227.642C471.176 226.776 471.056 223.611 471.153 222.976Z" fill="black"/>
<rect width="51" height="51" transform="translate(213 200)" fill="#F7F7F8"/>
<path d="M243.981 248.574C238.757 248.415 234.454 247.343 230.336 245.449C229.026 244.846 227.654 244.386 226.317 243.872C224.546 243.191 222.996 242.146 222.199 240.419C220.376 236.462 218.463 232.513 217.046 228.395C215.727 224.562 216.542 220.719 218.915 217.443C220.756 214.902 221.872 212.175 222.678 209.164C223.669 205.472 226.405 203.427 230.124 202.63C231.833 202.267 233.453 202.382 235.082 203.01C236.596 203.595 238.164 203.692 239.748 203.258C242.688 202.453 245.371 203.285 248.001 204.551C249.231 205.135 250.489 205.755 251.808 206.047C256.155 207.004 258.386 209.864 258.98 214.025C259.272 216.088 259.104 218.24 258.953 220.338C258.82 222.171 259.015 223.906 259.599 225.633C261.114 230.113 260.883 234.496 258.811 238.772C257.545 241.393 255.473 243.164 252.959 244.519C251.197 245.466 249.444 246.44 247.735 247.485C246.354 248.326 244.875 248.618 243.981 248.574ZM243.936 246.927C245.3 246.945 246.336 246.511 247.726 245.44C248.665 244.722 249.78 244.227 250.816 243.642C252.038 242.96 253.472 242.5 254.464 241.57C258.679 237.604 259.635 232.521 258.218 227.2C257.306 223.765 257.032 220.471 257.43 217C257.944 212.467 255.465 209.058 251.117 207.854C249.612 207.438 248.169 206.729 246.752 206.047C244.937 205.18 243.069 204.427 241.068 204.905C238.465 205.525 235.985 205.33 233.489 204.489C232.674 204.215 231.753 203.967 230.921 204.064C227.574 204.454 225.228 206.428 224.386 209.563C223.474 212.971 221.943 215.938 220.048 218.868C218.082 221.914 217.56 225.385 218.959 228.882C220.34 232.344 221.845 235.762 223.333 239.18C224.068 240.88 225.36 242.013 227.105 242.659C228.752 243.27 230.416 243.846 232.019 244.563C235.552 246.13 239.297 246.662 243.936 246.927Z" fill="black"/>
<path d="M240.156 235C236.402 235.16 232.957 234.567 230.274 231.769C229.814 231.291 229.38 230.759 229.106 230.166C228.973 229.892 228.858 229.369 229.371 229.086C229.69 228.909 230.097 229.095 230.354 229.289C231.001 229.768 231.541 230.396 232.196 230.874C235.277 233.15 238.686 233.858 242.378 232.778C244.246 232.238 245.548 230.866 246.699 229.36C247.124 228.811 247.593 227.979 248.364 228.555C249.134 229.139 248.443 229.847 248.045 230.379C246.035 233.053 243.609 235.018 240.156 235Z" fill="black"/>
<path d="M251.923 220.462C251.914 221.542 251.091 222.41 250.117 222.392C249.107 222.374 248.266 221.48 248.293 220.462C248.319 219.346 249.098 218.461 250.046 218.479C251.108 218.488 251.941 219.364 251.923 220.462Z" fill="black"/>
<path d="M228.769 221.896C228.76 222.977 227.937 223.844 226.963 223.827C225.954 223.809 225.112 222.915 225.139 221.896C225.166 220.781 225.945 219.895 226.892 219.913C227.946 219.922 228.778 220.799 228.769 221.896Z" fill="black"/>
<rect width="51" height="51" transform="translate(455 357)" fill="#F7F7F8"/>
<path d="M485.981 405.574C480.757 405.415 476.454 404.343 472.336 402.449C471.026 401.846 469.654 401.386 468.317 400.872C466.546 400.191 464.996 399.146 464.199 397.419C462.376 393.462 460.463 389.513 459.046 385.395C457.727 381.562 458.542 377.719 460.915 374.443C462.756 371.902 463.872 369.175 464.678 366.164C465.669 362.472 468.405 360.427 472.124 359.63C473.833 359.267 475.453 359.382 477.082 360.01C478.596 360.595 480.164 360.692 481.748 360.258C484.688 359.453 487.371 360.285 490.001 361.551C491.231 362.135 492.489 362.755 493.808 363.047C498.155 364.004 500.386 366.864 500.98 371.025C501.272 373.088 501.104 375.24 500.953 377.338C500.82 379.171 501.015 380.906 501.599 382.633C503.114 387.113 502.883 391.496 500.811 395.772C499.545 398.393 497.473 400.164 494.959 401.519C493.197 402.466 491.444 403.44 489.735 404.485C488.354 405.326 486.875 405.618 485.981 405.574ZM485.936 403.927C487.3 403.945 488.336 403.511 489.726 402.44C490.665 401.722 491.78 401.227 492.816 400.642C494.038 399.96 495.472 399.5 496.464 398.57C500.679 394.604 501.635 389.521 500.218 384.2C499.306 380.765 499.032 377.471 499.43 374C499.944 369.467 497.465 366.058 493.117 364.854C491.612 364.438 490.169 363.729 488.752 363.047C486.937 362.18 485.069 361.427 483.068 361.905C480.465 362.525 477.985 362.33 475.489 361.489C474.674 361.215 473.753 360.967 472.921 361.064C469.574 361.454 467.228 363.428 466.386 366.563C465.474 369.971 463.943 372.938 462.048 375.868C460.082 378.914 459.56 382.385 460.959 385.882C462.34 389.344 463.845 392.762 465.333 396.18C466.068 397.88 467.36 399.013 469.105 399.659C470.752 400.27 472.416 400.846 474.019 401.563C477.552 403.13 481.297 403.662 485.936 403.927Z" fill="black"/>
<path d="M479.549 385.384C483.303 385.225 486.747 385.818 489.43 388.616C489.891 389.094 490.324 389.625 490.599 390.218C490.732 390.493 490.847 391.015 490.333 391.299C490.015 391.476 489.607 391.29 489.35 391.095C488.704 390.617 488.164 389.988 487.509 389.51C484.428 387.234 481.019 386.526 477.326 387.606C475.458 388.146 474.157 389.519 473.006 391.024C472.581 391.573 472.111 392.405 471.341 391.83C470.571 391.245 471.261 390.537 471.66 390.006C473.67 387.332 476.096 385.366 479.549 385.384Z" fill="black"/>
<path d="M493.923 377.462C493.914 378.542 493.091 379.41 492.117 379.392C491.107 379.374 490.266 378.48 490.293 377.462C490.319 376.346 491.098 375.461 492.046 375.479C493.108 375.488 493.941 376.364 493.923 377.462Z" fill="black"/>
<path d="M470.769 378.896C470.76 379.977 469.937 380.844 468.963 380.827C467.954 380.809 467.112 379.915 467.139 378.896C467.166 377.781 467.945 376.895 468.892 376.913C469.946 376.922 470.778 377.799 470.769 378.896Z" fill="black"/>
<rect width="42.2086" height="42.2086" transform="translate(218 355)" fill="#F7F7F8"/>
<path d="M220.682 375.174C220.924 369.245 223.408 363.354 229.3 359.301C230.875 358.217 232.766 357.528 234.59 356.876C243.552 353.681 254.566 359.902 256.948 371.239C258.655 379.35 256.64 386.488 250.25 391.94C241.544 399.37 228.64 396.622 223.217 386.378C221.539 383.212 220.689 379.827 220.682 375.174ZM223.254 375.064C223.269 379.988 224.412 383.718 226.793 387.059C231.886 394.211 241.134 395.824 247.993 390.745C257.329 383.835 257.629 368.688 248.601 361.375C243.01 356.847 234.466 356.671 228.919 362.211C225.123 365.999 223.32 370.586 223.254 375.064Z" fill="black"/>
<path d="M244.234 383.19C244.219 384.011 243.875 385.14 243.135 386.122C241.86 387.822 239.507 388.071 237.881 386.693C236.246 385.308 235.668 382.648 236.745 380.802C237.441 379.6 239.434 378.076 241.105 378.64C242.944 379.263 244.234 380.78 244.234 383.19ZM237.998 383.146C237.998 383.747 238.049 384.165 238.415 384.729C239.463 386.341 241.435 386.217 242.27 384.495C242.482 384.062 242.6 383.564 242.673 383.08C242.9 381.534 241.75 380.12 240.255 380.061C239.082 380.017 237.998 380.999 237.998 383.146Z" fill="black"/>
<path d="M245.663 368.132C245.743 367.589 246.117 367.377 246.403 367.347C246.681 367.318 247.136 367.347 247.297 367.948C247.876 370.425 248.022 371.444 248.022 373.723C248.022 374.771 247.414 375.1 247.202 375.108C246.894 375.115 246.564 374.954 246.19 374.265C245.758 373.474 245.326 370.498 245.663 368.132Z" fill="black"/>
<path d="M230.208 369.692C230.274 369.377 230.369 368.945 230.926 368.857C231.388 368.828 231.637 369.348 231.703 369.619C232.084 371.216 232.37 372.733 232.216 375.782C232.187 376.339 232.077 376.94 231.344 376.969C230.611 376.998 230.487 376.412 230.362 375.855C230.047 374.389 229.886 371.18 230.208 369.692Z" fill="black"/>
<rect width="42.2086" height="42.2086" transform="translate(338 55)" fill="#F7F7F8"/>
<path d="M359.317 56.3923C364.424 56.4656 368.557 58.5467 372.426 61.9029C380.399 68.8204 380.978 85.5719 368.425 93.1343C359.764 98.3517 348.259 95.8749 342.704 86.3707C336.564 75.8698 341.437 61.8809 352.729 57.6014C354.847 56.7953 357.038 56.3703 359.317 56.3923ZM376.347 74.4775C376.464 70.7403 374.581 66.4095 371.298 63.002C367.092 58.642 361.669 57.1471 355.697 58.532C344.705 61.0675 338.74 73.4882 343.445 83.8718C346.771 91.2144 354.59 95.3253 362.065 93.6619C370.484 91.786 376.383 84.3628 376.347 74.4775Z" fill="black"/>
<path d="M371.789 80.3251C369.525 86.0189 365.487 89.3458 359.383 89.419C354.151 89.4777 350.304 86.8909 347.966 82.0619C347.819 82.1278 347.643 82.2157 347.475 82.2744C347.233 82.3623 347.094 82.4209 346.874 82.1425C346.771 82.0106 346.61 81.7761 346.911 81.5342C347.651 80.926 348.45 80.3984 349.256 79.8928C349.38 79.8122 349.673 79.8049 349.842 80.0613C350.025 80.3471 349.908 80.5303 349.798 80.6769C349.593 80.948 349.3 81.1532 349.006 81.4097C351.806 85.6965 355.536 88.2759 360.87 87.741C365.575 87.272 369.078 83.7839 370.36 79.673C370.419 79.4898 370.213 79.3579 370.016 79.116C369.686 78.7277 369.459 78.6617 369.832 78.0388C370.103 77.6505 370.521 77.8776 370.763 78.0022C371.532 78.4052 372.294 78.8522 372.969 79.3945C373.232 79.607 373.716 79.9221 373.401 80.4864C373.108 81.0579 372.705 80.6842 372.229 80.545C372.097 80.4864 371.965 80.4058 371.789 80.3251Z" fill="black"/>
<path d="M350.751 68.725C351.168 68.0508 351.623 67.5159 352.451 67.6844C353.242 67.8456 353.564 68.5344 353.572 69.172C353.594 70.4324 353.572 71.7294 353.293 72.9532C353.008 74.2136 352.421 75.4153 351.901 76.6098C351.535 77.4525 350.956 77.621 350.326 77.0055C348.303 75.0123 347.079 72.6234 347.211 69.7069C347.248 68.8789 347.695 68.1974 348.523 67.9189C349.417 67.6185 350.106 68.0288 350.751 68.725ZM352.377 68.8642C352.377 68.8642 352.216 68.6297 351.945 68.7103C351.74 68.6957 351.513 69.5677 351.381 70.0293C351.256 70.4617 351.278 70.7768 350.97 70.8281C350.479 70.872 350.516 70.4543 350.311 70.2492C350.216 70.1466 349.754 68.8422 349.094 69.084C348.669 69.2379 348.647 69.8608 348.669 70.2345C348.772 72.1324 349.637 73.7592 350.663 75.5033C351.601 73.2536 353 70.2345 352.377 68.8642Z" fill="black"/>
<path d="M367.487 68.1167C368.022 67.8163 368.528 67.5598 369.026 67.6624C369.766 67.8163 369.913 68.5931 369.979 69.2672C370.191 71.4143 369.261 73.2316 368.257 75.0196C368.03 75.4226 367.707 75.7744 367.495 76.1921C366.887 77.3792 365.839 77.1594 365.26 76.1408C364.051 73.9937 363.362 71.6341 363.582 69.1207C363.662 68.1607 364.021 67.2447 365.084 66.9956C366.154 66.7318 367.084 67.4059 367.487 68.1167ZM366.168 75.1149C366.278 75.6352 366.388 75.2321 366.491 75.1295C367.224 74.0303 367.964 72.9312 368.396 71.7221C368.733 70.7768 369.62 68.3806 368.689 68.6224C368.462 68.637 368.228 69.3332 368.03 69.6849C367.868 69.9634 367.539 70.4104 367.399 70.4324C366.865 70.447 366.93 69.9634 366.828 69.6849C366.586 69.0547 366.608 68.0655 365.707 68.1827C364.813 68.2999 364.915 69.2892 365.033 69.9341C365.34 71.6708 365.78 73.3928 366.168 75.1149Z" fill="black"/>
<path d="M314.399 114.317C325.953 114.317 337.724 113.27 349.212 112.147C365.702 110.533 382.503 111.462 398.956 109.238C402.845 108.713 402.371 109.619 398.956 110.758C389.429 113.933 377.43 113.486 367.529 113.536C354.504 113.601 340.802 111.251 327.986 113.97C324.611 114.686 320.807 115.633 317.655 117.052C316.656 117.501 315.713 118.269 317.525 118.571C323.006 119.484 328.88 119.005 334.41 119.005C346.347 119.005 358.284 119.005 370.22 119.005C381.482 119.005 392.282 119.005 403.47 119.005" stroke="#F3F3B1" stroke-width="10" stroke-linecap="round"/>
<path d="M329.167 113.44V124H326.959V113.44H329.167ZM322.303 113.44V124H320.095V113.44H322.303ZM328.111 117.776V119.552H321.199V117.776H328.111ZM332.803 114.848C332.344 114.848 332.003 114.752 331.779 114.56C331.555 114.357 331.443 114.064 331.443 113.68C331.443 113.285 331.555 112.992 331.779 112.8C332.003 112.597 332.344 112.496 332.803 112.496C333.262 112.496 333.603 112.597 333.827 112.8C334.051 112.992 334.163 113.285 334.163 113.68C334.163 114.064 334.051 114.357 333.827 114.56C333.603 114.752 333.262 114.848 332.803 114.848ZM333.891 116V124H331.699V116H333.891ZM343.591 114.096L343.847 115.664C343.804 115.664 343.756 115.664 343.703 115.664C343.66 115.653 343.612 115.648 343.559 115.648C343.068 115.648 342.7 115.76 342.455 115.984C342.209 116.197 342.087 116.496 342.087 116.88L341.191 116.512C341.191 116.085 341.276 115.691 341.447 115.328C341.617 114.955 341.868 114.656 342.199 114.432C342.54 114.208 342.945 114.096 343.415 114.096C343.436 114.096 343.463 114.096 343.495 114.096C343.527 114.096 343.559 114.096 343.591 114.096ZM340.967 122.496C341.831 122.496 342.497 122.683 342.967 123.056C343.436 123.429 343.671 123.952 343.671 124.624C343.671 125.232 343.495 125.744 343.142 126.16C342.791 126.587 342.295 126.907 341.655 127.12C341.025 127.333 340.295 127.44 339.463 127.44C338.087 127.44 337.079 127.248 336.439 126.864C335.809 126.48 335.495 125.979 335.495 125.36C335.495 124.923 335.66 124.555 335.991 124.256C336.332 123.957 336.892 123.792 337.671 123.76L337.591 124.016C337.036 123.92 336.609 123.739 336.311 123.472C336.023 123.195 335.879 122.816 335.879 122.336C335.879 121.845 336.065 121.445 336.439 121.136C336.823 120.816 337.34 120.629 337.991 120.576L338.951 121.024H338.727C338.268 121.056 337.943 121.152 337.751 121.312C337.569 121.461 337.479 121.632 337.479 121.824C337.479 122.048 337.564 122.219 337.735 122.336C337.916 122.443 338.172 122.496 338.503 122.496H340.967ZM339.479 125.936C340.033 125.936 340.487 125.888 340.839 125.792C341.201 125.696 341.468 125.573 341.639 125.424C341.82 125.275 341.911 125.109 341.911 124.928C341.911 124.725 341.831 124.56 341.671 124.432C341.511 124.315 341.223 124.256 340.807 124.256H338.103C337.847 124.256 337.633 124.32 337.463 124.448C337.303 124.576 337.223 124.752 337.223 124.976C337.223 125.275 337.42 125.509 337.815 125.68C338.22 125.851 338.775 125.936 339.479 125.936ZM339.495 115.84C340.241 115.84 340.887 115.952 341.431 116.176C341.985 116.389 342.407 116.699 342.695 117.104C342.993 117.509 343.142 117.995 343.142 118.56C343.142 119.115 342.993 119.595 342.695 120C342.407 120.405 341.985 120.72 341.431 120.944C340.887 121.157 340.241 121.264 339.495 121.264C338.311 121.264 337.404 121.024 336.775 120.544C336.156 120.053 335.847 119.392 335.847 118.56C335.847 117.995 335.991 117.509 336.279 117.104C336.577 116.699 336.999 116.389 337.543 116.176C338.087 115.952 338.737 115.84 339.495 115.84ZM339.495 117.216C339.068 117.216 338.716 117.333 338.439 117.568C338.161 117.803 338.023 118.128 338.023 118.544C338.023 118.96 338.161 119.291 338.439 119.536C338.716 119.771 339.068 119.888 339.495 119.888C339.921 119.888 340.268 119.771 340.535 119.536C340.812 119.291 340.951 118.96 340.951 118.544C340.951 118.128 340.812 117.803 340.535 117.568C340.268 117.333 339.921 117.216 339.495 117.216ZM344.996 124V112.496H347.188V117.36C347.444 116.848 347.796 116.469 348.244 116.224C348.692 115.968 349.198 115.84 349.764 115.84C350.318 115.84 350.809 115.947 351.236 116.16C351.673 116.373 352.014 116.699 352.26 117.136C352.516 117.563 352.644 118.101 352.644 118.752V124H350.452V119.392C350.452 118.699 350.318 118.224 350.052 117.968C349.785 117.701 349.444 117.568 349.028 117.568C348.718 117.568 348.42 117.643 348.132 117.792C347.854 117.931 347.625 118.165 347.444 118.496C347.273 118.816 347.188 119.243 347.188 119.776V124H344.996ZM364.666 116H366.938L363.898 124H361.37L358.33 116H360.666L362.65 122.32L364.666 116ZM372.54 118.896C372.54 118.437 372.407 118.08 372.14 117.824C371.884 117.568 371.543 117.44 371.116 117.44C370.721 117.44 370.375 117.541 370.076 117.744C369.777 117.947 369.559 118.283 369.42 118.752L367.548 118.176C367.729 117.472 368.124 116.907 368.732 116.48C369.351 116.053 370.177 115.84 371.212 115.84C371.916 115.84 372.529 115.952 373.052 116.176C373.575 116.389 373.98 116.715 374.268 117.152C374.567 117.589 374.716 118.139 374.716 118.8V122.048C374.716 122.453 374.908 122.656 375.292 122.656C375.473 122.656 375.644 122.629 375.804 122.576L375.676 123.936C375.399 124.075 375.052 124.144 374.636 124.144C374.263 124.144 373.927 124.08 373.628 123.952C373.329 123.824 373.095 123.632 372.924 123.376C372.753 123.109 372.668 122.779 372.668 122.384V122.32L373.052 122.256C372.988 122.661 372.812 123.008 372.524 123.296C372.236 123.573 371.884 123.787 371.468 123.936C371.063 124.085 370.641 124.16 370.204 124.16C369.66 124.16 369.191 124.08 368.796 123.92C368.401 123.749 368.097 123.504 367.884 123.184C367.671 122.864 367.564 122.469 367.564 122C367.564 121.403 367.756 120.917 368.14 120.544C368.524 120.16 369.073 119.899 369.788 119.76L372.796 119.152L372.78 120.512L370.86 120.896C370.497 120.971 370.22 121.072 370.028 121.2C369.847 121.317 369.756 121.515 369.756 121.792C369.756 122.059 369.852 122.261 370.044 122.4C370.247 122.539 370.487 122.608 370.764 122.608C370.988 122.608 371.207 122.581 371.42 122.528C371.633 122.475 371.825 122.389 371.996 122.272C372.167 122.155 372.3 121.995 372.396 121.792C372.492 121.589 372.54 121.344 372.54 121.056V118.896ZM379.328 112.496V121.536C379.328 121.909 379.392 122.171 379.52 122.32C379.648 122.469 379.861 122.544 380.16 122.544C380.341 122.544 380.49 122.533 380.608 122.512C380.725 122.48 380.874 122.437 381.056 122.384L380.864 123.824C380.682 123.931 380.453 124.011 380.176 124.064C379.909 124.128 379.642 124.16 379.376 124.16C378.597 124.16 378.026 123.973 377.664 123.6C377.312 123.216 377.136 122.608 377.136 121.776V112.496H379.328ZM385.061 124.16C384.528 124.16 384.048 124.064 383.621 123.872C383.194 123.68 382.853 123.376 382.597 122.96C382.352 122.533 382.229 121.984 382.229 121.312V116H384.421V120.784C384.421 121.403 384.549 121.835 384.805 122.08C385.061 122.315 385.429 122.432 385.909 122.432C386.133 122.432 386.352 122.395 386.565 122.32C386.778 122.235 386.965 122.107 387.125 121.936C387.296 121.765 387.429 121.547 387.525 121.28C387.621 121.003 387.669 120.677 387.669 120.304V116H389.861V124H387.909L387.829 122.608C387.562 123.141 387.194 123.536 386.725 123.792C386.266 124.037 385.712 124.16 385.061 124.16ZM395.88 124.16C395.037 124.16 394.301 123.995 393.672 123.664C393.053 123.333 392.573 122.859 392.232 122.24C391.89 121.621 391.72 120.875 391.72 120C391.72 119.125 391.89 118.379 392.232 117.76C392.573 117.141 393.048 116.667 393.656 116.336C394.274 116.005 394.978 115.84 395.768 115.84C396.578 115.84 397.266 116.005 397.832 116.336C398.397 116.656 398.829 117.099 399.128 117.664C399.426 118.219 399.576 118.853 399.576 119.568C399.576 119.781 399.57 119.984 399.56 120.176C399.549 120.368 399.533 120.539 399.512 120.688H393.128V119.168H398.552L397.496 119.552C397.496 118.88 397.341 118.363 397.032 118C396.733 117.637 396.306 117.456 395.752 117.456C395.346 117.456 394.994 117.552 394.696 117.744C394.408 117.936 394.189 118.224 394.04 118.608C393.89 118.981 393.816 119.456 393.816 120.032C393.816 120.597 393.896 121.067 394.056 121.44C394.226 121.803 394.461 122.075 394.76 122.256C395.069 122.437 395.437 122.528 395.864 122.528C396.333 122.528 396.712 122.437 397 122.256C397.288 122.075 397.512 121.824 397.672 121.504L399.416 122.176C399.245 122.592 398.984 122.949 398.632 123.248C398.29 123.547 397.88 123.776 397.4 123.936C396.93 124.085 396.424 124.16 395.88 124.16Z" fill="black"/>
</svg>
