<svg width="719" height="569" viewBox="0 0 719 569" fill="none" xmlns="http://www.w3.org/2000/svg">
<rect width="719" height="569" fill="#F7F7F8"/>
<path d="M435.663 258.322C440.467 260.153 446.792 259.67 451.792 259.963C468.224 260.926 484.615 261.025 501.044 259.917C513.147 259.101 549.46 256.695 537.356 257.502C523.424 258.431 509.989 259.179 495.85 258.687C472.307 257.867 448.741 255.784 425.229 254.267C423.505 254.156 430.841 254.981 431.517 254.996C446.882 255.342 462.221 254.289 477.579 254.222C496.051 254.141 515.225 252.856 533.483 255.817C541.375 257.096 532.511 256.682 530.203 256.682C516.511 256.682 502.841 257.502 489.152 257.502C482.149 257.502 475.19 256.682 468.194 256.682C466.374 256.682 465.05 256.5 463.546 257.502" stroke="#F3F3B1" stroke-width="5" stroke-linecap="round"/>
<path d="M411.059 295.227C453.928 295.227 497.036 295.059 539.725 299.328C549.4 300.295 559.047 301.381 568.702 302.517C576.26 303.406 553.475 302.479 545.876 302.062C526.261 300.983 506.723 298.488 487.284 295.728C477.663 294.363 468.09 292.882 458.352 292.767C452.741 292.701 448.081 295.976 442.406 296.685C435.65 297.53 429.086 297.688 422.268 297.688C391.399 297.688 484.074 298.922 514.757 302.289C523.869 303.289 551.039 307.467 541.912 306.618C516.223 304.228 490.586 301.936 465.095 297.87C460.015 297.059 455.027 296.337 450.06 297.505C449.674 297.596 446.476 297.688 448.147 297.688C455.473 297.688 462.753 298.014 470.062 298.599C482.255 299.574 494.367 301.677 506.556 302.517C507.898 302.61 509.225 302.608 510.566 302.608C510.945 302.608 509.806 302.608 509.427 302.608C496.867 302.608 484.339 302.378 471.793 301.697C463.134 301.227 454.492 300.608 445.868 299.692C443.967 299.49 441.488 299.497 439.672 298.69C437.144 297.566 445.155 299.451 447.873 299.966C460.017 302.266 472.437 304.12 484.687 305.706C494.367 306.96 505.919 304.874 515.213 307.529" stroke="#F3F3B1" stroke-width="5" stroke-linecap="round"/>
<path d="M160.886 215.886C160.447 212.37 158.018 213.53 155.12 214.496C150.529 216.026 151.274 215.879 149.77 219.637C148.616 222.524 150.287 224.114 152.897 224.014C154.367 223.957 156.827 221.3 157.621 220.262C158.324 219.343 160.914 214.811 161.373 216.302C162.082 218.61 161.414 221.64 161.546 224.014C161.745 227.587 163.16 230.985 163.387 234.504C163.551 237.039 163.819 238.916 160.261 239.02C157.494 239.102 157.269 236.921 156.509 234.643" stroke="black" stroke-linecap="round"/>
<path d="M169.015 213.385C169.015 216.327 169.64 219.366 169.64 222.416C169.64 223.782 169.555 227.879 169.64 226.515C169.798 223.993 170.493 221.021 171.516 218.734C173.677 213.903 175.115 214.957 177.143 219.012" stroke="black" stroke-linecap="round"/>
<path d="M184.021 217.761C184.021 215.575 182.311 222.393 183.396 224.292C185.217 227.479 193.208 224.151 193.4 220.888C193.574 217.925 191.052 215.261 188.085 215.92C186.881 216.188 182.231 219.368 184.021 220.262" stroke="black" stroke-linecap="round"/>
<path d="M194.025 216.511C194.025 218.713 192.923 220.775 193.435 223.076C193.807 224.751 196.007 228.697 197.151 225.265" stroke="black" stroke-linecap="round"/>
<path d="M206.53 230.892C206.53 227.547 207.781 224.305 207.781 220.888C207.781 217.558 207.451 210.607 212.158 210.884C213.86 210.984 215.558 215.7 214.52 216.997C213.29 218.535 211.202 221.478 209.657 218.387" stroke="black" stroke-linecap="round"/>
<path d="M221.536 210.884C221.536 215.156 221.536 219.429 221.536 223.701C221.536 225.635 221.536 227.569 221.536 229.502C221.536 230 221.492 225.818 222.023 224.639C222.753 223.016 222.843 221.157 224.35 219.985C225.493 219.095 227.508 221.343 227.754 222.451C228.16 224.276 227.789 226.528 227.789 228.391C227.789 230.281 227.574 232.286 227.824 234.157C227.962 235.196 233.109 229.343 233.416 229.016" stroke="black" stroke-linecap="round"/>
<path d="M239.044 214.01C239.044 219.272 239.669 224.373 239.669 229.641" stroke="black" stroke-linecap="round"/>
<path d="M252.174 218.387C251.919 216.346 246.975 219.667 246.269 220.575C244.649 222.658 245.922 225.286 245.922 227.453C245.922 230.224 249.15 229.988 250.924 230.406C252.893 230.869 254.374 229.618 255.301 227.766" stroke="black" stroke-linecap="round"/>
<path d="M274.058 219.637C271.629 219.941 269.72 223.693 269.681 225.959C269.622 229.487 269.156 230.418 272.808 231.17C275.084 231.638 277.146 231.885 279.095 230.545C280.937 229.278 282.491 225.644 280.936 223.701C279.74 222.206 270.946 220.86 270.307 222.138" stroke="black" stroke-linecap="round"/>
<path d="M237.487 276.164C235.058 276.468 233.149 280.22 233.11 282.486C233.05 286.014 232.585 286.945 236.236 287.697C238.513 288.165 240.575 288.412 242.524 287.072C244.365 285.806 245.919 282.172 244.365 280.228C243.169 278.733 234.375 277.387 233.735 278.665" stroke="black" stroke-linecap="round"/>
<path d="M428.795 290.128C426.366 290.432 424.456 294.184 424.418 296.45C424.358 299.978 423.892 300.909 427.544 301.661C429.82 302.129 431.883 302.375 433.832 301.035C435.673 299.769 437.227 296.135 435.673 294.192C434.476 292.697 425.683 291.351 425.043 292.629" stroke="black" stroke-linecap="round"/>
<path d="M281.561 213.385C281.561 217.149 277.984 230.892 284.062 230.892" stroke="black" stroke-linecap="round"/>
<path d="M244.99 269.912C244.99 273.677 241.413 287.419 247.491 287.419" stroke="black" stroke-linecap="round"/>
<path d="M436.298 283.875C436.298 287.64 432.721 301.383 438.799 301.383" stroke="black" stroke-linecap="round"/>
<path d="M286.564 219.012C286.925 222.622 290.663 225.656 294.345 224.605C294.846 224.461 295.943 221.187 295.943 220.575C295.943 219.31 293.01 218.3 292.191 219.325C291.181 220.588 289.62 221.601 288.578 222.902C288.069 223.538 288.069 227.616 288.578 228.252C289.222 229.056 290.385 231.448 291.566 231.517C293.138 231.61 293.872 230.267 295.317 230.267" stroke="black" stroke-linecap="round"/>
<path d="M249.992 275.539C250.353 279.149 254.092 282.183 257.773 281.132C258.275 280.988 259.371 277.714 259.371 277.102C259.371 275.837 256.439 274.827 255.62 275.852C254.609 277.115 253.048 278.128 252.007 279.43C251.498 280.066 251.498 284.143 252.007 284.779C252.651 285.583 253.813 287.975 254.994 288.044C256.567 288.137 257.301 286.794 258.746 286.794" stroke="black" stroke-linecap="round"/>
<path d="M441.3 289.503C441.661 293.113 445.4 296.147 449.081 295.095C449.583 294.952 450.679 291.678 450.679 291.066C450.679 289.801 447.747 288.791 446.928 289.815C445.917 291.079 444.356 292.092 443.315 293.393C442.806 294.029 442.806 298.107 443.315 298.743C443.958 299.547 445.121 301.939 446.302 302.008C447.874 302.101 448.608 300.758 450.054 300.758" stroke="black" stroke-linecap="round"/>
<path d="M305.321 221.513C303.103 221.266 302.205 221.492 301.083 224.014C300.079 226.274 302.11 226.809 303.758 227.175C306.189 227.715 305.124 230.496 304.383 231.83C303.732 233.002 303.258 233.77 301.709 233.254C301.233 233.095 298.89 231.517 299.694 231.517" stroke="black" stroke-linecap="round"/>
<path d="M268.75 278.04C266.532 277.794 265.633 278.019 264.512 280.541C263.508 282.801 265.539 283.336 267.187 283.702C269.618 284.242 268.553 287.023 267.812 288.357C267.161 289.529 266.687 290.298 265.137 289.781C264.662 289.622 262.319 288.044 263.123 288.044" stroke="black" stroke-linecap="round"/>
<path d="M460.058 292.004C457.839 291.757 456.941 291.982 455.82 294.505C454.816 296.765 456.847 297.3 458.495 297.666C460.926 298.206 459.861 300.987 459.12 302.321C458.469 303.493 457.995 304.261 456.445 303.745C455.97 303.586 453.627 302.008 454.431 302.008" stroke="black" stroke-linecap="round"/>
<path d="M312.199 221.513V232.768" stroke="black" stroke-linecap="round"/>
<path d="M275.628 278.04V289.295" stroke="black" stroke-linecap="round"/>
<path d="M466.936 292.004V303.259" stroke="black" stroke-linecap="round"/>
<path d="M327.205 225.265C325.017 225.265 321.75 225.293 321.578 228.391C321.365 232.223 324.791 229.525 325.955 227.488C327.607 224.597 327.268 234.207 326.545 237.457C326.386 238.173 325.241 241.493 324.704 241.521C322.053 241.661 317.936 238.559 316.576 236.519" stroke="black" stroke-linecap="round"/>
<path d="M290.634 281.792C288.446 281.792 285.179 281.82 285.007 284.918C284.794 288.75 288.219 286.053 289.384 284.015C291.035 281.124 290.696 290.735 289.974 293.984C289.815 294.7 288.67 298.02 288.133 298.048C285.482 298.188 281.365 295.086 280.005 293.046" stroke="black" stroke-linecap="round"/>
<path d="M481.942 295.755C479.754 295.755 476.487 295.783 476.315 298.882C476.102 302.714 479.527 300.016 480.692 297.979C482.343 295.088 482.004 304.698 481.282 307.948C481.123 308.664 479.978 311.984 479.441 312.012C476.789 312.152 472.672 309.05 471.313 307.01" stroke="black" stroke-linecap="round"/>
<path d="M331.582 224.639C331.582 227.665 331.674 236.446 332.798 233.636C333.545 231.769 334.325 229.122 335.82 227.627C337.186 226.26 342.199 227.067 342.837 228.981C343.234 230.172 343.156 233.552 344.087 234.018" stroke="black" stroke-linecap="round"/>
<path d="M295.011 281.166C295.011 284.193 295.103 292.973 296.227 290.163C296.973 288.297 297.754 285.649 299.249 284.154C300.615 282.787 305.628 283.595 306.266 285.508C306.663 286.699 306.585 290.08 307.516 290.545" stroke="black" stroke-linecap="round"/>
<path d="M486.319 295.13C486.319 298.156 486.411 306.937 487.535 304.127C488.281 302.26 489.062 299.612 490.557 298.118C491.923 296.751 496.936 297.558 497.574 299.472C497.97 300.663 497.893 304.043 498.824 304.509" stroke="black" stroke-linecap="round"/>
<path d="M347.214 225.265C347.635 229.056 352.412 228.982 354.717 227.627C355.761 227.013 356.7 224.091 355.412 223.389C353.159 222.16 351.516 223.788 349.715 225.126C347.282 226.933 346.233 231.245 348.603 233.879C351.836 237.471 353.452 232.142 356.593 232.142" stroke="black" stroke-linecap="round"/>
<path d="M310.643 281.792C311.064 285.583 315.841 285.509 318.146 284.154C319.19 283.54 320.129 280.618 318.84 279.916C316.587 278.687 314.945 280.315 313.144 281.653C310.711 283.46 309.662 287.772 312.032 290.406C315.264 293.998 316.88 288.669 320.021 288.669" stroke="black" stroke-linecap="round"/>
<path d="M501.95 295.755C502.372 299.547 507.149 299.473 509.454 298.118C510.497 297.504 511.436 294.582 510.148 293.88C507.895 292.651 506.253 294.279 504.451 295.617C502.019 297.424 500.969 301.736 503.34 304.37C506.572 307.962 508.188 302.633 511.329 302.633" stroke="black" stroke-linecap="round"/>
<path d="M361.595 224.639C361.595 228.287 361.595 231.934 361.595 235.581C361.595 238.737 361.529 230.208 361.595 229.016C361.784 225.606 368.473 223.412 368.473 227.766" stroke="black" stroke-linecap="round"/>
<path d="M325.024 281.166C325.024 284.814 325.024 288.461 325.024 292.108C325.024 295.264 324.957 286.735 325.024 285.543C325.213 282.133 331.901 279.939 331.901 284.293" stroke="black" stroke-linecap="round"/>
<path d="M516.331 295.13C516.331 298.778 516.331 302.425 516.331 306.072C516.331 309.228 516.265 300.699 516.331 299.507C516.521 296.097 523.209 293.903 523.209 298.257" stroke="black" stroke-linecap="round"/>
<path d="M155.259 272.159C152.679 271.901 146.475 270.79 144.629 273.097C143.33 274.722 144.545 277.398 146.158 278.551C149.98 281.28 155.662 282.158 157.169 276.883C157.408 276.05 158.595 272.907 156.509 272.784C155.041 272.698 155.943 272.683 156.37 273.41C157.087 274.628 157.183 275.824 157.447 277.196C158.203 281.124 157.929 285.609 156.857 289.458C155.624 293.883 154.974 297.103 150.048 297.76C147.057 298.159 147.756 290.921 147.756 289.041" stroke="black" stroke-linecap="round"/>
<path d="M167.139 279.662C166.91 277.836 163.387 281.714 163.387 283.101C163.387 286.758 167.241 283.98 168.077 282.476C168.468 281.772 168.389 279.273 168.389 280.079C168.389 281.392 168.194 282.834 169.153 283.9C171.438 286.439 173.182 283.901 176.518 282.789" stroke="black" stroke-linecap="round"/>
<path d="M179.644 275.911C179.894 277.911 180.269 279.941 180.269 282.163C180.269 283.439 179.986 285.381 180.304 282.997C180.642 280.466 181.603 277.163 183.535 275.424C184.914 274.182 187.002 280.067 187.112 280.947C187.219 281.804 187.047 286.211 187.738 283.101C188.025 281.807 189.973 278.503 191.524 278.412C193.371 278.303 193.497 284.185 194.65 285.915" stroke="black" stroke-linecap="round"/>
<path d="M198.402 277.786C198.402 282.96 205.25 282.538 208.719 281.26C210.361 280.655 215.809 280.064 215.249 277.543C214.891 275.93 208.951 273.914 207.538 273.479C204.16 272.44 199.48 279.864 199.652 282.789C199.889 286.818 209.579 288.259 212.158 286.54" stroke="black" stroke-linecap="round"/>
<path d="M142.128 342.188C143.845 340.257 144.871 336.481 145.88 334.06C146.263 333.141 148.411 326.537 148.867 328.363C150.352 334.301 151.898 339.376 153.383 345.314" stroke="black" stroke-linecap="round"/>
<path d="M144.004 336.561C146.405 336.561 148.939 335.936 151.507 335.936" stroke="black" stroke-linecap="round"/>
<path d="M159.01 329.058C159.01 333.716 159.846 338.246 160.261 342.813C160.811 348.86 160.886 343.782 160.886 340.938C160.886 338.44 161.414 334.946 163.248 333.296C164.473 332.194 166.178 331.514 167.139 333.435" stroke="black" stroke-linecap="round"/>
<path d="M178.394 334.685C178.085 332.221 173.731 335.564 173.114 335.901C171.104 336.997 170.89 338.906 170.89 340.972C170.89 347.361 175.943 343.87 179.019 341.563" stroke="black" stroke-linecap="round"/>
<path d="M184.646 327.807C184.646 330.308 184.878 332.643 185.271 335.102C185.759 338.148 185.394 341.445 186.036 344.411C186.71 347.53 186.45 348.131 186.522 344.411C186.541 343.413 187.167 334.974 190.273 336.7C192.572 337.977 192.775 342.42 192.775 344.689" stroke="black" stroke-linecap="round"/>
<path d="M198.402 333.435C197.694 328.483 196.165 352.915 198.402 348.441" stroke="black" stroke-linecap="round"/>
<path d="M209.031 326.557C210.49 326.739 210.298 339.313 210.594 341.389C210.739 342.403 210.311 349.066 211.532 349.066C212.138 349.066 212.877 348.081 213.408 347.816" stroke="black" stroke-linecap="round"/>
<path d="M206.53 338.437C207.631 337.458 213.069 337.186 214.659 337.186" stroke="black" stroke-linecap="round"/>
<path d="M218.41 339.062C218.688 336.838 223.167 337.998 224.663 337.811C225.71 337.68 232.044 335.655 230.151 333.573C229.612 332.981 227.269 331.627 227.164 332.948C227.035 334.555 225.37 335.798 225.288 337.186C225.216 338.411 225.22 339.715 225.288 340.938C225.405 343.038 231.898 342.188 233.416 342.188" stroke="black" stroke-linecap="round"/>
<path d="M240.294 332.809C238.377 334.727 237.793 336.593 237.793 339.34C237.793 342.527 238.176 342.478 240.92 341.563" stroke="black" stroke-linecap="round"/>
<path d="M257.176 320.304C254.758 322.453 255.249 323.949 255.301 327.529C255.367 332.156 255.59 336.395 255.335 341.111C255.276 342.204 254.275 345.869 256.238 344.342C257.188 343.603 259.646 342.188 257.802 342.188" stroke="black" stroke-linecap="round"/>
<path d="M248.423 332.809C251.643 332.809 256.815 332.99 259.677 331.559" stroke="black" stroke-linecap="round"/>
<path d="M267.18 336.561C265.539 336.766 264.843 346.206 268.084 345.28C272.279 344.081 273.071 340.51 274.058 336.561" stroke="black" stroke-linecap="round"/>
<path d="M277.81 336.561C280.065 339.097 280.69 343.173 281.874 346.252C282.013 346.613 282.187 348.642 282.187 347.816C282.187 344.406 281.83 341.067 281.596 337.672C281.403 334.865 284.713 330.984 286.564 334.685" stroke="black" stroke-linecap="round"/>
<path d="M290.315 336.561C291.741 336.561 297.488 339.437 298.409 336.214C299.608 332.017 297.552 331.747 295.456 335.31C293.434 338.748 292.191 342.668 292.191 346.808C292.191 351.451 299.687 345.734 300.944 345.315" stroke="black" stroke-linecap="round"/>
<path d="M137.752 222.365C152.168 222.365 166.545 223.985 180.964 224.38C205.739 225.058 230.516 225.491 255.301 225.491C294.486 225.491 333.685 224.866 372.85 224.866" stroke="black" stroke-linecap="round"/>
<path d="M134 338.038C151.693 338.038 169.385 338.038 187.078 338.038C212.858 338.038 238.98 339.301 264.61 336.163C286.113 333.53 307.604 335.614 329.081 333.661" stroke="black" stroke-linecap="round"/>
<path d="M442.253 251.127C440.392 253.454 440.588 267.754 446.318 264.57C450.632 262.173 456.009 255.092 456.009 249.877" stroke="black" stroke-linecap="round"/>
<path d="M473.516 251.127C472 251.296 471.069 253.278 470.112 254.253C467.731 256.68 465.183 258.891 462.609 261.097C461.994 261.624 459.135 264.825 459.135 264.258" stroke="black" stroke-linecap="round"/>
<path d="M459.761 249.877C461.144 250.049 462.533 253.595 463.512 254.601C465.135 256.267 466.346 257.73 467.75 259.603C469.333 261.714 471.11 263.822 472.266 266.133" stroke="black" stroke-linecap="round"/>
<path d="M483.521 264.883C483.521 266.329 483.688 267.926 482.27 268.634" stroke="black" stroke-linecap="round"/>
<path d="M496.651 250.502C497.458 258.567 499.153 265.77 508.218 266.724C511.88 267.109 512.276 261.75 512.908 259.221C513.288 257.702 513.498 251.145 514.784 250.502" stroke="black" stroke-linecap="round"/>
<path d="M521.661 248.626V266.759" stroke="black" stroke-linecap="round"/>
<path d="M533.764 298.608C533.764 296.606 532.831 297.188 531.32 296.748C530.721 296.573 529.645 298.042 529.5 298.697C529.066 300.649 530.15 302.207 530.519 304.009C530.673 304.763 530.745 305.773 529.994 306.186C529.03 306.716 527.129 307.211 526.027 306.71C523.969 305.775 524.504 304.58 524.504 302.882" stroke="black" stroke-linecap="round"/>
<path d="M451.595 218.071C437.545 221.118 422.835 222.297 409.666 228.432C404.138 231.008 399.125 233.929 396.408 239.611C393.636 245.406 391.995 251.867 390.8 258.143C388.048 272.592 387.622 289.202 391.542 303.415C396.074 319.842 404.259 337.045 415.571 349.8C424.797 360.204 439.114 366.971 452.004 371.786C467.434 377.552 483.721 377.102 499.912 375.5C509.033 374.598 517.645 373.876 526.095 369.967C533.116 366.718 538.812 362.04 544.775 357.228C556.523 347.747 572.918 336.298 577.828 321.427C583.932 302.942 586.607 284.873 582.099 265.831C578.951 252.531 573.951 238.718 567.244 226.761C561.014 215.656 554.18 207.147 542.807 201.507C532.641 196.465 519.764 194.097 508.417 194.005C496.379 193.907 486.219 195.226 474.621 199.204C465.544 202.318 455.86 204.773 446.99 208.34C443.379 209.793 438.811 211.84 436.071 214.58C432.938 217.713 430.882 221.845 428.198 225.424" stroke="black" stroke-linecap="round"/>
<path d="M136.319 278.845C143.972 278.367 151.446 277.612 159.155 277.827C170.914 278.155 182.571 280.017 194.33 280.435C217.516 281.26 240.716 279.938 263.854 282.28C292.81 285.21 322.204 282.061 350.998 286.86" stroke="black" stroke-linecap="round"/>
</svg>
