<svg width="846" height="740" viewBox="0 0 846 740" fill="none" xmlns="http://www.w3.org/2000/svg">
<path d="M89.5447 190.822H125.555V226.832C125.555 246.72 109.432 262.842 89.5447 262.842C69.657 262.842 53.5348 246.72 53.5348 226.832C53.5348 206.945 69.657 190.822 89.5447 190.822Z" fill="#0ACE82" stroke="#0D0C21" stroke-width="0.713137"/>
<path d="M89.5447 118.089L125.555 118.089L125.555 190.108L89.5447 190.108C69.657 190.108 53.5348 173.986 53.5348 154.098C53.5348 134.211 69.657 118.089 89.5447 118.089Z" fill="#A2A1FF" stroke="#0D0C21" stroke-width="0.713137"/>
<path d="M89.5447 45.3566L125.555 45.3566L125.555 117.376L89.5447 117.376C69.657 117.376 53.5348 101.254 53.5348 81.3665C53.5348 61.4787 69.657 45.3566 89.5447 45.3566Z" fill="#FF7261" stroke="#0D0C21" stroke-width="0.713137"/>
<path d="M165.525 117.376L129.515 117.376L129.515 45.3566L165.525 45.3566C185.412 45.3566 201.534 61.4787 201.534 81.3665C201.534 101.254 185.412 117.376 165.525 117.376Z" fill="#EE896B" stroke="#0D0C21" stroke-width="0.713137"/>
<rect x="129.515" y="118.089" width="72.0198" height="72.0198" rx="36.0099" fill="#1ABCFD" stroke="#0D0C21" stroke-width="0.713137"/>
<rect x="324.64" y="167.749" width="504.08" height="309.988" fill="white" stroke="#0D0C21" stroke-width="0.559147"/>
<rect x="346.681" y="209.2" width="310.27" height="27.4502" fill="#EFEFEF" stroke="black" stroke-width="0.277274"/>
<rect x="346.681" y="245.245" width="238.179" height="13.5864" fill="#EFEFEF" stroke="black" stroke-width="0.277274"/>
<rect x="346.681" y="267.427" width="238.179" height="13.5864" fill="#EFEFEF" stroke="black" stroke-width="0.277274"/>
<rect x="346.681" y="289.609" width="143.905" height="13.5864" rx="6.79322" fill="#EFEFEF" stroke="black" stroke-width="0.277274"/>
<rect x="379.954" y="317.336" width="116.178" height="116.178" fill="#EFEFEF" stroke="black" stroke-width="0.277274"/>
<rect x="518.591" y="317.336" width="116.178" height="116.178" fill="#EFEFEF" stroke="black" stroke-width="0.277274"/>
<rect x="657.228" y="317.336" width="116.178" height="116.178" fill="#EFEFEF" stroke="black" stroke-width="0.277274"/>
<circle cx="713.314" cy="263.321" r="13.2391" transform="rotate(30 713.314 263.321)" stroke="black" stroke-width="0.267456"/>
<circle cx="696.996" cy="282.214" r="9.89588" transform="rotate(30 696.996 282.214)" stroke="black" stroke-width="0.267456"/>
<circle cx="723.401" cy="281.877" r="9.89588" transform="rotate(30 723.401 281.877)" stroke="black" stroke-width="0.267456"/>
<circle cx="715.614" cy="263.223" r="13.2391" transform="rotate(30 715.614 263.223)" fill="#1B4543" stroke="black" stroke-width="0.267456"/>
<circle cx="699.295" cy="282.118" r="9.89588" transform="rotate(30 699.295 282.118)" fill="#B3D0C6" stroke="black" stroke-width="0.267456"/>
<circle cx="725.701" cy="281.781" r="9.89588" transform="rotate(30 725.701 281.781)" fill="#F0BF6F" stroke="black" stroke-width="0.267456"/>
<line x1="717.06" y1="316.336" x2="717.06" y2="293.335" stroke="black" stroke-width="0.267456" stroke-linecap="round" stroke-dasharray="5.35 5.35"/>
<mask id="path-21-inside-1_38_51" fill="white">
<path d="M16 394.912C16 388.873 20.8957 383.978 26.9348 383.978H70.6738V438.651H26.9348C20.8957 438.651 16 433.756 16 427.717V394.912Z"/>
</mask>
<path d="M16 394.912C16 388.873 20.8957 383.978 26.9348 383.978H70.6738V438.651H26.9348C20.8957 438.651 16 433.756 16 427.717V394.912Z" fill="#262442"/>
<path d="M15.5 394.912C15.5 388.597 20.6195 383.478 26.9348 383.478H70.6738V384.478H26.9348C21.1718 384.478 16.5 389.149 16.5 394.912H15.5ZM70.6738 439.151H26.9348C20.6195 439.151 15.5 434.032 15.5 427.717H16.5C16.5 433.48 21.1718 438.151 26.9348 438.151H70.6738V439.151ZM26.9348 439.151C20.6195 439.151 15.5 434.032 15.5 427.717V394.912C15.5 388.597 20.6195 383.478 26.9348 383.478V384.478C21.1718 384.478 16.5 389.149 16.5 394.912V427.717C16.5 433.48 21.1718 438.151 26.9348 438.151V439.151ZM70.6738 383.978V438.651V383.978Z" fill="black" mask="url(#path-21-inside-1_38_51)"/>
<path d="M26.9348 449.836H70.4238V504.01H26.9348C21.0337 504.01 16.25 499.226 16.25 493.325V460.521C16.25 454.62 21.0337 449.836 26.9348 449.836Z" fill="#1B4543" stroke="black" stroke-width="0.5"/>
<path d="M26.9348 515.445H70.4238V569.619H26.9348C21.0337 569.619 16.25 564.835 16.25 558.934V526.13C16.25 520.229 21.0337 515.445 26.9348 515.445Z" fill="#051754" stroke="black" stroke-width="0.5"/>
<mask id="path-25-inside-2_38_51" fill="white">
<path d="M70.6738 383.978H125.348V438.651H70.6738V383.978Z"/>
</mask>
<path d="M70.6738 383.978H125.348V438.651H70.6738V383.978Z" fill="#FFFFFE"/>
<path d="M70.6738 383.978V383.478H70.1738V383.978H70.6738ZM70.6738 438.651H70.1738V439.151H70.6738V438.651ZM70.6738 384.478H125.348V383.478H70.6738V384.478ZM125.348 438.151H70.6738V439.151H125.348V438.151ZM71.1738 438.651V383.978H70.1738V438.651H71.1738Z" fill="black" mask="url(#path-25-inside-2_38_51)"/>
<mask id="path-27-inside-3_38_51" fill="white">
<path d="M70.6738 449.586H125.348V504.26H70.6738V449.586Z"/>
</mask>
<path d="M70.6738 449.586H125.348V504.26H70.6738V449.586Z" fill="#F0BF6F"/>
<path d="M70.6738 450.086H125.348V449.086H70.6738V450.086ZM125.348 503.76H70.6738V504.76H125.348V503.76Z" fill="black" mask="url(#path-27-inside-3_38_51)"/>
<mask id="path-29-inside-4_38_51" fill="white">
<path d="M70.6738 515.195H125.348V569.869H70.6738V515.195Z"/>
</mask>
<path d="M70.6738 515.195H125.348V569.869H70.6738V515.195Z" fill="#FDF6E6"/>
<path d="M70.6738 515.695H125.348V514.695H70.6738V515.695ZM125.348 569.369H70.6738V570.369H125.348V569.369Z" fill="black" mask="url(#path-29-inside-4_38_51)"/>
<rect x="125.598" y="384.228" width="54.1738" height="54.1738" fill="#F9DA4A" stroke="black" stroke-width="0.5"/>
<mask id="path-32-inside-5_38_51" fill="white">
<path d="M125.348 449.586H180.022V504.26H125.348V449.586Z"/>
</mask>
<path d="M125.348 449.586H180.022V504.26H125.348V449.586Z" fill="#B3D0C6"/>
<path d="M125.348 449.586V449.086H124.848V449.586H125.348ZM180.022 449.586H180.522V449.086H180.022V449.586ZM180.022 504.26V504.76H180.522V504.26H180.022ZM125.348 504.26H124.848V504.76H125.348V504.26ZM125.348 450.086H180.022V449.086H125.348V450.086ZM179.522 449.586V504.26H180.522V449.586H179.522ZM180.022 503.76H125.348V504.76H180.022V503.76ZM125.848 504.26V449.586H124.848V504.26H125.848Z" fill="black" mask="url(#path-32-inside-5_38_51)"/>
<rect x="125.598" y="515.445" width="54.1738" height="54.1738" fill="#9BD1DB" stroke="black" stroke-width="0.5"/>
<mask id="path-35-inside-6_38_51" fill="white">
<path d="M180.021 383.978H223.761C229.8 383.978 234.695 388.873 234.695 394.912V427.717C234.695 433.756 229.8 438.651 223.761 438.651H180.021V383.978Z"/>
</mask>
<path d="M180.021 383.978H223.761C229.8 383.978 234.695 388.873 234.695 394.912V427.717C234.695 433.756 229.8 438.651 223.761 438.651H180.021V383.978Z" fill="#E7F5F5"/>
<path d="M180.021 383.478H223.761C230.076 383.478 235.195 388.597 235.195 394.912H234.195C234.195 389.149 229.524 384.478 223.761 384.478H180.021V383.478ZM235.195 427.717C235.195 434.032 230.076 439.151 223.761 439.151H180.021V438.151H223.761C229.524 438.151 234.195 433.48 234.195 427.717H235.195ZM180.021 438.651V383.978V438.651ZM223.761 383.478C230.076 383.478 235.195 388.597 235.195 394.912V427.717C235.195 434.032 230.076 439.151 223.761 439.151V438.151C229.524 438.151 234.195 433.48 234.195 427.717V394.912C234.195 389.149 229.524 384.478 223.761 384.478V383.478Z" fill="black" mask="url(#path-35-inside-6_38_51)"/>
<mask id="path-37-inside-7_38_51" fill="white">
<path d="M180.021 449.586H223.761C229.8 449.586 234.695 454.482 234.695 460.521V493.325C234.695 499.364 229.8 504.26 223.761 504.26H180.021V449.586Z"/>
</mask>
<path d="M180.021 449.586H223.761C229.8 449.586 234.695 454.482 234.695 460.521V493.325C234.695 499.364 229.8 504.26 223.761 504.26H180.021V449.586Z" fill="#FFFFFE"/>
<path d="M180.021 449.086H223.761C230.076 449.086 235.195 454.205 235.195 460.521H234.195C234.195 454.758 229.524 450.086 223.761 450.086H180.021V449.086ZM235.195 493.325C235.195 499.64 230.076 504.76 223.761 504.76H180.021V503.76H223.761C229.524 503.76 234.195 499.088 234.195 493.325H235.195ZM180.021 504.26V449.586V504.26ZM223.761 449.086C230.076 449.086 235.195 454.205 235.195 460.521V493.325C235.195 499.64 230.076 504.76 223.761 504.76V503.76C229.524 503.76 234.195 499.088 234.195 493.325V460.521C234.195 454.758 229.524 450.086 223.761 450.086V449.086Z" fill="black" mask="url(#path-37-inside-7_38_51)"/>
<mask id="path-39-inside-8_38_51" fill="white">
<path d="M180.021 515.195H223.761C229.8 515.195 234.695 520.09 234.695 526.13V558.934C234.695 564.973 229.8 569.869 223.761 569.869H180.021V515.195Z"/>
</mask>
<path d="M180.021 515.195H223.761C229.8 515.195 234.695 520.09 234.695 526.13V558.934C234.695 564.973 229.8 569.869 223.761 569.869H180.021V515.195Z" fill="#DFC5B9"/>
<path d="M180.021 514.695H223.761C230.076 514.695 235.195 519.814 235.195 526.13H234.195C234.195 520.367 229.524 515.695 223.761 515.695H180.021V514.695ZM235.195 558.934C235.195 565.249 230.076 570.369 223.761 570.369H180.021V569.369H223.761C229.524 569.369 234.195 564.697 234.195 558.934H235.195ZM180.021 569.869V515.195V569.869ZM223.761 514.695C230.076 514.695 235.195 519.814 235.195 526.13V558.934C235.195 565.249 230.076 570.369 223.761 570.369V569.369C229.524 569.369 234.195 564.697 234.195 558.934V526.13C234.195 520.367 229.524 515.695 223.761 515.695V514.695Z" fill="black" mask="url(#path-39-inside-8_38_51)"/>
</svg>
